<svg xmlns="http://www.w3.org/2000/svg" width="80" viewBox="0 0 134.722 133.208">
  <g id="Layer_x0020_1" transform="translate(-2824.593 -4061.274)">
    <g id="_2794215016016" transform="translate(2824.593 4061.274)">
      <path id="path7528" d="M2918.385,4134.775l5.223,3.478c2.26,1.518,2.667,3.423,2.667,6.031-1.65-.385-5.657-3.129-6.854-6.093a11.886,11.886,0,0,1-1.035-3.414ZM2918.385,4134.775ZM2915.755,4131.538ZM2927.487,4126.279Zm0,0c-3.251-2.176-1.324-.886-4.255-2.22-2-.911-1.228-2.562-4.446-1.016,2.279,4.75,2.176,2.315,4.508,4.594a7.313,7.313,0,0,1,2.574,6.326,7.17,7.17,0,0,0-1.891-.739c-1.989-.562-3.789-1.19-4.653-3.236a24.524,24.524,0,0,1-.889-4.371c-.23-1.843.709-3.146-2.275-1.566v2.428c-1.617-1.185-.46-2.195-3.842-.4.143.615,1.731,2.6,2.618,4.061.488.808.655.786.823,1.4-.646-.149-1.094-.441-1.784-.644-1.29-.379-2.664-.04-4.138-.715-1.141-.522-1.775-1.651-2.978.146.432,1.862,3.364,3.136,5.26,3.64,2.179.582,4.187,2,4.247,4.654-3.2-.746-6.457-.414-8.782-2.745a13.988,13.988,0,0,1-2.344-3.728c-.774.209-.958.666-1.4,1.238-.5.652-.749.836-.417,1.768a14.226,14.226,0,0,0,1.809,3.473c3.805,5.313,11.686,2.574,16.977,7.7.031.028.075.071.1.1a17.566,17.566,0,0,1,2.953,4.33c-.824-.221.013,0-.708-.3-2.742-1.15-3.019-.487-5.515-2.981a12.005,12.005,0,0,0-2.515-2.135,8.409,8.409,0,0,0-3.479-1.378c-5.362-1.358-7.852-.746-10.308-6.279-.271-.606-.463-1.169-.737-1.691-.466.167-.164.013-.475.333-1.418,1.445-1.449,2.371-.4,4.183a12.641,12.641,0,0,0,5.642,5.282c2.453,1.014,5.44,1.048,7.558,2.556.538.382-.09.128.625.386v.606c-2.555.6-4.939.621-7.029-1.266-2.169-1.961-4.358-4.15-7.23-5.107a6.072,6.072,0,0,0-2.729-.507c-.211.9-.582,1.054-.606,2.226a9.626,9.626,0,0,1,5.81,2.484,46.314,46.314,0,0,1,4.1,4.19c-1.731,0-2.186-.05-3.177-.868l-2.027-2.02c-1.2-1.247-2.813-3.208-4.909-3.386a4.283,4.283,0,0,0-.606,1.821c.273.144.507.28.783.429a6.315,6.315,0,0,1,.774.438,8.684,8.684,0,0,1,1.19,1.234,12.864,12.864,0,0,1,1.9,2.953c-1.455-.034-4.082-1.653-4.449-3.033h-.606c0,1.013-.2,1.563-.2,2.832,2.07,1.386,3.581,3.071,6.3,3.411a19.392,19.392,0,0,0,8.639-.809,17.37,17.37,0,0,1,8.652-1.11c2.406.383,5.337,1.971,5.536,4.374a31.942,31.942,0,0,0,3.236.2c1.383,0,7.8.324,8.689-.211,1.01-.606.053-3.56,4.535-4.365a17.179,17.179,0,0,1,6.563.367,23.563,23.563,0,0,1,2.642.8,18.505,18.505,0,0,0,9.522.367,13.243,13.243,0,0,0,4.809-2.269c2.08-1.766,1.872-2.421,1.271-5-.569.206-.541.563-.961,1.063a8.48,8.48,0,0,1-1.141,1.085,11.444,11.444,0,0,1-6.385,2.313,13.819,13.819,0,0,1-2.182-.056c-.488-.068-1.262-.3-1.868-.357,1.048-.911,5.061-1.611,10.166-6.625,1.091-1.069,1.237-1.3.615-2.533-.9-1.769-1.222-.3-3.046,1.314-2.937,2.6-5.984,3.678-9.96,4.6l3.339-5.157c2.241-1.921,4.865-2.329,8.6-2.329a6.484,6.484,0,0,0-1.212-2.63,21.7,21.7,0,0,0-7.625,1.479c-2.478,1.244-3.96,3.6-5.608,5.717a5.9,5.9,0,0,1-4.38,2.5c-3.389.3-5.207.317-7.474,1.834,1.25-5.365,6.342-6.581,10.883-7.728,5.35-1.35,5.564-1.374,8.617-5.341a8.474,8.474,0,0,1,2.751-2.105c-.528-1.979-1.806-2.461-3.326-1.3-2.242,1.707-2.245,5.089-10.228,5.754,1.047-1.983,1.793-4.349,3.938-5.365,2.332-1.1,4.7-.134,6.783-2.521a8.88,8.88,0,0,0-1.822-1.62c-1,.085-1.9.628-2.878.763a21.963,21.963,0,0,0-3.342.5c-3.239.874-3.016,5.08-9.559,9.656-.792.556-1.424,1.085-2.223,1.62a15.232,15.232,0,0,1,1.617-5.869c1.28-2.611,2.909-4.526,5.75-5.375,2.59-.773,7-.69,7.806-3.724a18.747,18.747,0,0,0-2.63-1.417c-3.628,2.427-2.083,1.774-7.088,2.62a8.74,8.74,0,0,0-4.8,2.478l-1.054,1.374a9.841,9.841,0,0,1,2.378-5.512,18.353,18.353,0,0,1,3.171-2.695,3.849,3.849,0,0,0,1.128-.9,4.2,4.2,0,0,0-4.017-.985,11.169,11.169,0,0,0-4.426,4.277c-.29.427-.056.118-.255.352,0-4.539,3.22-5.409.839-5.683a13.765,13.765,0,0,0-1.663-.2,2.142,2.142,0,0,0-2.009,1.636h-.4a3.572,3.572,0,0,0-2.269-1.573c-.684-.1-2.459.36-3.4.36.075.893.809,1.433,1.219,2.223a4.824,4.824,0,0,1,.805,2.835Z" transform="translate(-2865.184 -4095.13)" fill="#008346" fill-rule="evenodd"/>
      <path id="path7530" d="M2984.948,4265.921l-2.135,19.192c.954-.128,6.208-1.731,9.382-2.285a63.129,63.129,0,0,1,26.492,1.16,47,47,0,0,0,4.738,1.261c.51-.544,12.907-35.936,14.191-39.741a9.658,9.658,0,0,1,1.3,2.1c.227.414.33.625.56,1.051.1.181.2.374.286.523l.46.637c-.087-.441-1.719-4.137-2.241-4.514l-16.573-3.861c-.432.811-.811,1.514-1.274,2.366a45.161,45.161,0,0,1-6.463,8.707l-2.931,2.732a13.311,13.311,0,0,1-1.088.933l-3.221,2.443c-6.139,3.911-14.045,7.293-21.481,7.293Z" transform="translate(-2914.603 -4163.771)" fill="#c8c9c9" fill-rule="evenodd"/>
      <path id="path7532" d="M2943.969,4237.725Zm-23.06-9.711c1.07-1.6.771-1.962,2.776-3.9a11.381,11.381,0,0,1,4.3-2.372c-.18.376-.273.711-.46,1.16a7.6,7.6,0,0,1-6.621,5.11Zm28.32-7.082a12.9,12.9,0,0,1,7.256,4.274,5.185,5.185,0,0,1,1.443,2.6c-3.087-.718-7.181-3.481-8.7-6.879Zm-27.107,0a7.1,7.1,0,0,1-.827.992l-.417.4a13.748,13.748,0,0,1-9.071,3.472c-8.341-.05-6.712-2.428-12.947-2.428a2.871,2.871,0,0,1,.976-.644c2.235-1,4.856-.966,7.116-.979,1.415-.006,2.027.2,3.233.208,4.439.038,4.128.715,9.224-.289a26.8,26.8,0,0,1,2.714-.725ZM2922.122,4220.932Zm-15.981-2.427a3.026,3.026,0,0,1,2.024.605h-2.832C2905.543,4218.793,2905.6,4218.5,2906.14,4218.5Zm31.556-.4a12,12,0,0,1,9.712,5.462c-1.722,0-4.272-1.336-5.493-1.993a10.542,10.542,0,0,1-2.248-1.595,9.4,9.4,0,0,1-1.971-1.875Zm-26.094-3.842c4.085,0,5.474,1.821,7.889,2.023v.4c-.929.022-3.332.926-5.835.78-3.9-.224-3.155-.594-5.7-1.184a3.054,3.054,0,0,1,1.452-1.38,4.445,4.445,0,0,1,2.192-.641Zm32.364,23.464c1.035.243,1.648,1.1,2.428,1.617a7.517,7.517,0,0,0,1.821-.808c-.473-2.03-6.852-6.3-8.661-7.523-.845-.575-1.464-1.19-2.235-1.81-2.437-1.964-4.119-4.8-3.264-8.467,5.3,2.8,4.8,6.692,9.251,10.976,2.132,2.052,4.846,3.3,6.528,5.811a6.066,6.066,0,0,0,2.225-1.617l-1.256-1.377c3.606-.041,1.956.84,4.582-1.166.5-.382,1.729-1.066.538-1.29-2.583-.485-3.945.473-7.548-1.791l-1.7-1.333c-.6-.517-1.278-.945-1.489-1.747,2.664,0,8.272,1.831,11.057,3.1a6.044,6.044,0,0,0,1.486.538c.616-.92,1.536-1.71,2.263-2.593,1.306-1.591-.068-1.875-.441-3.273,1.044,0,2.3.1,2.89-.749a12.418,12.418,0,0,0,1.153-2.487c-4.585,0-5.952-.75-9.036-2.291-2.173-1.085-4.159-2.494-6.339-3.572l-1.007-.609c5.993,0,7.4,1.607,12.593,3.388a18.887,18.887,0,0,0,4.6.861,3.484,3.484,0,0,0,.812-2.629,11.984,11.984,0,0,1-3.979-.473c-.886-.3-2.559-.809-3.1-1.551,3.441,0,6.161.416,8.294-1.014v-2.226c-2.543.211-1.763,1.5-8.3-.2-3.538-.923-4.169-1.635-8.3-1.629-3,0-5.036,1.589-7.89,1.825-3.385.277-5.455-1.353-5.455-4.445h-11.934c-.929,3.988-1.6,4.39-5.235,3.417-8.092-2.17-14.8,5.2-22.712,2.279-.914-.339-.892-.634-1.791-.84a2.118,2.118,0,0,0-.056,1.256c.187,1.06.907,1.265,1.819,1.638.236.1.336.115.59.218.059.021.233.09.289.115.4.183.168.056.395.214a11.418,11.418,0,0,0-2.225.606,4.748,4.748,0,0,0,.606,2.226,29.943,29.943,0,0,1,4.141-.479c.534.038.942.075,1.523.075a11.73,11.73,0,0,1-4.856,2.63c.025,1.12,1.141,2.739,1.707,3.755.189.339.858,1.657,1,1.832.479.578,1.328.494,2.148.684-.043.028-.112.006-.137.069s-.105.052-.137.062l-.939.274c.208.9.488.991,1.029,1.6.616.69,1.238.625,2.2.625l-.846.977a11.209,11.209,0,0,0,1.859,2.058c4.084-2.735,7.212-1.017,11.53-2.021a6.924,6.924,0,0,1-.345,1.069c-.164.445-.242.775-.407,1.209-.886,2.356-3.979,3.659-5.518,3.787.249.932.9,1.06,1.75,1.486.818.407,1.305.911,2.229.494,1.271-.575,3.1-2.114,4.113-2.384,0,2.559-.606,3.311-.606,4.654a9.558,9.558,0,0,0,3.034.809,25.83,25.83,0,0,0,1.013-4.048c1.461.979,2.219,2.826,2.894,4.389.323.746.193.675,1,.825l2.176.248a8.059,8.059,0,0,0-1.331-4.131l-2.387-3.075c-1.013-1.163-1.769-2.114-.479-3.668a6.981,6.981,0,0,1,3.388-2.074,11.736,11.736,0,0,0,1.3,5.984c.668,1.209,2.055,3.582,3.357,3.926-.127-1.517-.78-2.63-.581-4.426a20.936,20.936,0,0,1,1.19-4.069,14.872,14.872,0,0,1,1.16,1.266l4.016,3.267a17.065,17.065,0,0,1,2.661,2.194l1.215,1.216c.4.522.715,1.05,1.063,1.566a5.575,5.575,0,0,0,2.428-.606,16.5,16.5,0,0,0-.808-2.63Z" transform="translate(-2864.472 -4144.273)" fill="#282424" fill-rule="evenodd"/>
      <path id="path7534" d="M2852.1,4245.3c0,.718,13.65,39.437,14.1,39.983l9.419-2a77.2,77.2,0,0,1,10.541-1c9.167-.4,12.9,1.306,20.471,2.677l-2.12-19.028c-7.458,0-16.429-3.681-22.392-7.89l-4.563-3.73a44.652,44.652,0,0,1-5.089-5.629c-1.19-1.6-3.917-5.555-4.305-7.225-1.234.028-15.9,3.728-16.056,3.842Z" transform="translate(-2840.243 -4163.779)" fill="#c8c9c9" fill-rule="evenodd"/>
      <path id="path7536" d="M2879.372,4317.577c-1.281,2.663-3.031,5.343-4.116,8.16,3.823-.886,7.234-1.669,11.471-2.288a71.862,71.862,0,0,1,25.634.786c2.6.547.634,1.048,3.522,3.357,3.385,2.707,8.785,2.359,11.748-2.48.426-.7.025-.5.867-.752,3.131-.958,10.072-1.748,13.728-2.048,6.864-.569,16.407,1.054,22.982,3.105.242.074.939.313,1.281.148-.892-.9-1.492-2.7-2.148-3.938-.743-1.4-1.458-2.856-2.1-4.068a46.86,46.86,0,0,1-4.738-1.263,63.132,63.132,0,0,0-26.491-1.159c-3.174.55-8.427,2.154-9.382,2.285l2.136-19.193c-1.256,0-1.657.208-2.985.208-1.371,0-1.88-.208-3.1-.208l2.12,19.028c-7.576-1.371-11.3-3.075-20.47-2.677a77.606,77.606,0,0,0-10.542,1l-9.419,2Z" transform="translate(-2853.415 -4196.075)" fill="#292525" fill-rule="evenodd"/>
      <path id="path7538" d="M2856.957,4298.506c1.085-2.816,2.835-5.5,4.116-8.16-.448-.547-14.1-39.266-14.1-39.984-.812.609-2.338,4-3.046,5.176-1.262,2.1-1.088,2.216.376,6.065l9.879,29.162c.429,1.212,2.136,7,2.776,7.741Z" transform="translate(-2835.112 -4168.845)" fill="#8b8b8c" fill-rule="evenodd"/>
      <path id="path7540" d="M3077.014,4290.623c.643,1.212,1.358,2.668,2.1,4.069.659,1.24,1.256,3.038,2.148,3.939.028-.044.062-.168.075-.137l13-38.2c.821-2.462,1.275-2.406-.3-4.787-.239-.361-.075-.152-.227-.314l-.46-.638c-.09-.146-.186-.338-.286-.522-.23-.426-.333-.634-.56-1.05a9.518,9.518,0,0,0-1.3-2.1c-1.281,3.805-13.681,39.2-14.191,39.741Z" transform="translate(-2968.189 -4169.14)" fill="#8b8b8c" fill-rule="evenodd"/>
      <path id="path7542" d="M2925.075,4062.079c0,3.945.78,8.487,1,12.55.081,1.48.3,2.9.41,4.243a7.16,7.16,0,0,1-1.1-1.735l-2.3-3.565c-.718-1.073-5.742-8.658-6.112-8.658-.951,0-1.924.719-3.034.808,0,3.354.494,9.074.6,12.954.034,1.24.385,3.046.41,4.24l-8.9-14.362-2.621.839c.065.874,4.561,7.33,5.453,8.67l5.664,8.7c1.191-.1,1.8-.724,2.832-.808l-.637-13.321a39.754,39.754,0,0,1-.376-4.277,18.7,18.7,0,0,1,2.468,3.4l4.9,7.243a24.619,24.619,0,0,1,2.347,3.72c1.433,0,1.632-.506,2.832-.606a16.614,16.614,0,0,0-.146-2.481c-.124-.911.012-1.812-.109-2.723a16.075,16.075,0,0,1-.14-2.49l-.358-5.108c-.124-.914.019-1.84-.084-2.745-.155-1.4-.376-3.771-.376-5.291a16.308,16.308,0,0,0-2.63.809Z" transform="translate(-2869.446 -4061.274)" fill="#302a29" fill-rule="evenodd"/>
      <path id="path7544" d="M2847.779,4131.689c2.708,0,11.95,3.709,8.636,10.252l-2.565,4.514-12.947-7.284a8.066,8.066,0,0,1,1.15-2.288c1.194-1.986,2.525-5.195,5.729-5.195Zm-10.516,8.7a42.019,42.019,0,0,1,4.315,2.359c1.71.867,11.987,7.243,13.283,7.352a9.62,9.62,0,0,1,1.352-2.692c.507-.911.98-1.67,1.49-2.556,1.97-3.419,3.37-6.63.746-10.277-2.185-3.034-7.159-6.015-10.61-5.67-4.937.494-6.267,3.46-8.623,7.774a28.51,28.51,0,0,0-1.952,3.711Z" transform="translate(-2831.801 -4099.732)" fill="#302a29" fill-rule="evenodd"/>
      <path id="path7546" d="M3096.728,4190.461c.7.165,1.557.4,2.266.566.864.2,1.361.326,2.3.532a37.877,37.877,0,0,0,4.738.926l-.942.476c-1.486.706-6.513,3.687-7.554,3.774l-.809-6.27Zm-2.428-.606c.19,2.26,1.014,6.043,1.014,8.294l-5.665,3.034a15.226,15.226,0,0,1,.4,3.034,36.639,36.639,0,0,0,4.75-2.533c1.719-.92,3.121-1.722,4.822-2.664l9.444-5.325a14.83,14.83,0,0,1-.4-3.034l-20.834-5.058c0,3.376.243,3.016,1.937,3.324a32.184,32.184,0,0,0,4.536.926Z" transform="translate(-2974.346 -4132.003)" fill="#302a29" fill-rule="evenodd"/>
      <path id="path7548" d="M3054.262,4112.417a22.3,22.3,0,0,1-3.69-2.984c-.932-.911-.96-.506-1.163-1.266,1.073-.248,7.893-4.4,8.092-4.448l-3.236,8.7ZM3039.5,4110.8a12.613,12.613,0,0,0,2.023,1.821l5.664-3.033c1.029.894,5.6,4.759,6.068,5.461-.174.747-.731,2.073-1.01,2.833-.177.488-.314.954-.522,1.5a10.464,10.464,0,0,0-.491,1.533,6.709,6.709,0,0,0,2.428,2.023c.783-3.357,6.065-16.944,6.879-20.43-.746-.5-1.52-1.35-2.226-1.822-.737.171-18.375,9.519-18.814,10.116Z" transform="translate(-2946.849 -4083.696)" fill="#302a29" fill-rule="evenodd"/>
      <path id="path7550" d="M2836.123,4197.279a6.716,6.716,0,0,1-2.089-.945c-1.405-.7-5.2-2.817-6.2-2.9v-.4a23.417,23.417,0,0,0,4.53-.932c1.6-.4,3.071-.743,4.573-1.091l-.808,6.27Zm-11.53-3.034,19.015,10.116a19.964,19.964,0,0,0,.4-2.832,43.9,43.9,0,0,0-5.664-2.832c0-1.558.979-6.892,1.013-8.294a23.352,23.352,0,0,0,3.115-.728,16.308,16.308,0,0,1,3.155-.687,10.793,10.793,0,0,1,.215-1.834c.227-1.8.569-1.5-3.534-.476-2.322.582-4.352,1.2-6.715,1.781l-9.916,2.624c-.759.257-.631.41-.756,1.268a7.653,7.653,0,0,1-.333,1.893Z" transform="translate(-2824.593 -4132.147)" fill="#302a29" fill-rule="evenodd"/>
      <path id="path7552" d="M3016.113,4087.139c3.19.264,1.877,2.972,4.476-4.831,1.02-3.065.56-2.232,3.357-4.33l6.491-4.837c.581-.392,1.828-1.128,2.064-1.778-.395-.19-.849-.273-1.352-.466-1.906-.737-1.766-.271-3.644,1.134l-4.333,3.354c-.345.273-.678.528-1.013.808-.547.457-.467.643-1.185.836l-2.642-10.3c-.311-.423-2.67-1.1-3.223-1.228l1.439,5.44c.525,1.831.958,3.637,1.508,5.571.945,3.308.591,2.248-.273,5.216-.4,1.377-1.635,4.075-1.663,5.418Z" transform="translate(-2932.976 -4063.677)" fill="#302a29" fill-rule="evenodd"/>
      <path id="path7554" d="M3090.509,4133.135a5.557,5.557,0,0,0,.675,1.552,26.253,26.253,0,0,1,2.157,4.52l-11.427,5.77a24.4,24.4,0,0,1-3.948,1.917c.093,1.11.765,1.561,1.013,2.63a5.891,5.891,0,0,0,1.986-.845l7.75-3.982c.687-.377,1.306-.7,2-1.039,1.34-.668,2.729-1.324,4.047-2.023.246.463.407.815.693,1.331.311.563.457.929.762,1.464l.684,1.34c.2.388.149.273.333.677a2.862,2.862,0,0,1,.361.853,7.292,7.292,0,0,0,2.428-1.011l-2.179-4.292c-.18-.327-.317-.594-.494-.92-.364-.656-.647-1.225-.967-1.865l-2.664-5.225a17.092,17.092,0,0,0-.976-1.856c-.644.171-.442.215-1.082.538-.472.239-.731.276-1.144.473Z" transform="translate(-2968.734 -4101.582)" fill="#302a29" fill-rule="evenodd"/>
      <path id="path7556" d="M2985.07,4082.7a14.971,14.971,0,0,0,2.832.2,36.958,36.958,0,0,1,.32-4.94l1.1-15.086-2.832-.2-1.184,14.8a49.157,49.157,0,0,0-.23,5.229Z" transform="translate(-2915.886 -4062.07)" fill="#302a29" fill-rule="evenodd"/>
      <path id="path7558" d="M2876.673,4100.16l6.472,7.486c.513.665,1.014,1.134,1.589,1.85l2.735,3.133a16.935,16.935,0,0,0,2.354,2.5,6.392,6.392,0,0,0,2.021-1.822l-6.765-7.8c-.028-.031-.065-.078-.093-.109l-4.524-5.189c-.73-.749-.861-1.265-1.768-1.871a18.754,18.754,0,0,0-2.024,1.818Z" transform="translate(-2854.219 -4082.363)" fill="#302a29" fill-rule="evenodd"/>
    </g>
  </g>
</svg>
