<svg xmlns="http://www.w3.org/2000/svg" viewBox="0 0 80.022 84.001">
  <g id="Layer_x0020_1" transform="translate(0 0.005)">
    <path id="path29" d="M13.695,26.749a4.794,4.794,0,1,1-4.884,4.793,4.84,4.84,0,0,1,4.884-4.793ZM30.076,50.331,37.6,42.807l7.524,7.524L37.6,57.856ZM64.9,43.369,47.752,26.3l-5.108,4.969,17.22,17.139ZM37.875,84q-.045-.054-.087-.116C32.814,78.906,13.972,60.322,9.031,55.315a3.893,3.893,0,0,1,.152-3.277,10.013,10.013,0,0,1-7.773-15.1,4.379,4.379,0,0,1,4.005-2.565,4.293,4.293,0,1,1,0,8.583,4.359,4.359,0,0,1-4.27-3.361A7.336,7.336,0,0,0,8.29,48.562a7.3,7.3,0,0,0,4.89-1.871c.289-.843,1.6-3.919,1.6-3.919,6.318-4.98,7.341-2.681,15.409-4.374L16.26,52.424,37.839,73.851,53.163,58.527l-3.282-3.432L37.928,67.047,21.537,50.657,37.928,34.266,52.666,49.005l5.018,5L69.735,41.956,51.062,23.283l5.109-4.969,18.6,18.6.12-.12,5.128,5.128L45.231,76.715,37.874,84ZM24.411,23.589c1.671,1.508,3.039,4.264,5.165,3.887,4.653-.826,3.36-9,11.538-10.639,4.819.594-.069,4.784,2.656,7.911-1.621.5-2.547-1.731-4.864-.7-3.693,3.5-3.838,8.927-9.363,10.091-3.776.8-7.616-2.924-10.19-5.5l-5.038-5.039L37.927-.005C43.32,5.24,48.464,10.538,53.844,15.918l-5.038,5.039L37.924,10.075,24.412,23.587Z" transform="translate(0)" fill="#e62129" fill-rule="evenodd"/>
  </g>
</svg>
