<svg xmlns="http://www.w3.org/2000/svg" xmlns:xlink="http://www.w3.org/1999/xlink" viewBox="0 0 72.001 72">
  <defs>
    <linearGradient id="linear-gradient" x1="0.084" y1="0.916" x2="0.916" y2="0.084" gradientUnits="objectBoundingBox">
      <stop offset="0" stop-color="#ffd600"/>
      <stop offset="0.5" stop-color="#ff0100"/>
      <stop offset="1" stop-color="#d800b9"/>
    </linearGradient>
    <linearGradient id="linear-gradient-2" x1="0.146" y1="0.854" x2="0.854" y2="0.146" gradientUnits="objectBoundingBox">
      <stop offset="0" stop-color="#ff6400"/>
      <stop offset="0.5" stop-color="#ff0100"/>
      <stop offset="1" stop-color="#fd0056"/>
    </linearGradient>
    <linearGradient id="linear-gradient-3" x1="0.146" y1="0.854" x2="0.854" y2="0.146" gradientUnits="objectBoundingBox">
      <stop offset="0" stop-color="#f30072"/>
      <stop offset="1" stop-color="#e50097"/>
    </linearGradient>
  </defs>
  <g id="social-media_2_" data-name="social-media (2)" transform="translate(0)">
    <path id="Path_3" data-name="Path 3" d="M71.784,21.158a26.43,26.43,0,0,0-1.674-8.739,17.644,17.644,0,0,0-4.152-6.377,17.649,17.649,0,0,0-6.377-4.153A26.425,26.425,0,0,0,50.843.217C47,.042,45.777,0,36,0S25,.042,21.157.216A26.433,26.433,0,0,0,12.419,1.89,17.644,17.644,0,0,0,6.042,6.042a17.647,17.647,0,0,0-4.153,6.376A26.428,26.428,0,0,0,.217,21.157C.042,25,0,26.223,0,36S.042,47,.217,50.843a26.423,26.423,0,0,0,1.673,8.739,17.642,17.642,0,0,0,4.152,6.376,17.639,17.639,0,0,0,6.377,4.152,26.416,26.416,0,0,0,8.739,1.674C25,71.959,26.224,72,36,72s11-.041,14.843-.216a26.419,26.419,0,0,0,8.739-1.674A18.405,18.405,0,0,0,70.11,59.581a26.421,26.421,0,0,0,1.674-8.739C71.959,47,72,45.777,72,36s-.042-11-.216-14.843ZM65.3,50.548a19.918,19.918,0,0,1-1.239,6.685,11.922,11.922,0,0,1-6.832,6.832A19.918,19.918,0,0,1,50.547,65.3c-3.8.174-4.934.21-14.547.21s-10.752-.036-14.548-.21a19.925,19.925,0,0,1-6.685-1.239,11.157,11.157,0,0,1-4.139-2.693,11.152,11.152,0,0,1-2.693-4.139A19.918,19.918,0,0,1,6.7,50.548c-.173-3.8-.21-4.935-.21-14.547s.037-10.751.21-14.548a19.933,19.933,0,0,1,1.239-6.685,11.161,11.161,0,0,1,2.693-4.14,11.146,11.146,0,0,1,4.14-2.693A19.915,19.915,0,0,1,21.453,6.7c3.8-.173,4.935-.21,14.547-.21h0c9.613,0,10.751.037,14.548.21a19.922,19.922,0,0,1,6.685,1.239,11.162,11.162,0,0,1,4.139,2.693,11.146,11.146,0,0,1,2.693,4.14,19.9,19.9,0,0,1,1.24,6.685c.173,3.8.21,4.935.21,14.547s-.036,10.751-.21,14.548Zm0,0" transform="translate(0 0)" fill="url(#linear-gradient)"/>
    <path id="Path_4" data-name="Path 4" d="M143.025,124.539a18.487,18.487,0,1,0,18.487,18.487A18.487,18.487,0,0,0,143.025,124.539Zm0,30.487a12,12,0,1,1,12-12A12,12,0,0,1,143.025,155.026Zm0,0" transform="translate(-107.026 -107.026)" fill="url(#linear-gradient-2)"/>
    <path id="Path_5" data-name="Path 5" d="M370.57,92.946a4.32,4.32,0,1,1-4.32-4.32,4.32,4.32,0,0,1,4.32,4.32Zm0,0" transform="translate(-311.033 -76.162)" fill="url(#linear-gradient-3)"/>
  </g>
</svg>
