<svg xmlns="http://www.w3.org/2000/svg" xmlns:xlink="http://www.w3.org/1999/xlink" viewBox="0 0 154.69 98.962">
  <defs>
    <linearGradient id="linear-gradient" x1="0.521" y1="0.06" x2="0.479" y2="0.94" gradientUnits="objectBoundingBox">
      <stop offset="0" stop-color="#b9df1b"/>
      <stop offset="1" stop-color="#e1f161"/>
    </linearGradient>
    <linearGradient id="linear-gradient-2" x1="0.985" y1="0.308" x2="0.016" y2="0.692" gradientUnits="objectBoundingBox">
      <stop offset="0" stop-color="#206fa6"/>
      <stop offset="1" stop-color="#1bfadf"/>
    </linearGradient>
    <linearGradient id="linear-gradient-3" x1="1.006" y1="0.395" x2="-0.006" y2="0.605" gradientUnits="objectBoundingBox">
      <stop offset="0" stop-color="#f4f504"/>
      <stop offset="1" stop-color="#fafb6d"/>
    </linearGradient>
    <linearGradient id="linear-gradient-4" y1="0.5" x2="1" y2="0.5" gradientUnits="objectBoundingBox">
      <stop offset="0" stop-color="#1b79bf"/>
      <stop offset="1" stop-color="#0c3ca7"/>
    </linearGradient>
    <linearGradient id="linear-gradient-5" y1="0.5" x2="1" y2="0.5" gradientUnits="objectBoundingBox">
      <stop offset="0" stop-color="#42b940"/>
      <stop offset="1" stop-color="#82f19e"/>
    </linearGradient>
    <linearGradient id="linear-gradient-6" y1="0.5" x2="1" y2="0.5" gradientUnits="objectBoundingBox">
      <stop offset="0" stop-color="#d43421"/>
      <stop offset="1" stop-color="#fb8080"/>
    </linearGradient>
    <linearGradient id="linear-gradient-7" x1="1.006" y1="0.397" x2="-0.006" y2="0.603" gradientUnits="objectBoundingBox">
      <stop offset="0" stop-color="#ff6e13"/>
      <stop offset="1" stop-color="#f1de2b"/>
    </linearGradient>
    <linearGradient id="linear-gradient-8" y1="0.5" x2="1" y2="0.5" gradientUnits="objectBoundingBox">
      <stop offset="0" stop-color="#298fde"/>
      <stop offset="1" stop-color="#87d5f1"/>
    </linearGradient>
    <linearGradient id="linear-gradient-9" x1="0.906" y1="0.19" x2="0.094" y2="0.81" gradientUnits="objectBoundingBox">
      <stop offset="0" stop-color="#a71d8c"/>
      <stop offset="1" stop-color="#da65f5"/>
    </linearGradient>
  </defs>
  <g id="Layer_x0020_1" transform="translate(-398.249 -679.958)">
    <path id="polygon7417" d="M721.094,721.124v22.188l20.8-3.453V717.671Z" transform="translate(-226.956 -26.512)" fill-rule="evenodd" fill="url(#linear-gradient)"/>
    <path id="polygon7419" d="M766.019,691.46v7.234l6.783-1.126v-7.234Z" transform="translate(-258.538 -7.295)" fill-rule="evenodd" fill="url(#linear-gradient-2)"/>
    <path id="polygon7421" d="M812.739,681.283V689.8l7.985-1.326v-8.516Z" transform="translate(-291.381 0)" fill-rule="evenodd" fill="url(#linear-gradient-3)"/>
    <path id="polygon7423" d="M833.79,722.5v12.351l11.58-1.921V720.574Z" transform="translate(-306.18 -28.553)" fill-rule="evenodd" fill="url(#linear-gradient-4)"/>
    <path id="polygon7425" d="M800.267,771.281v16.932l15.874-2.635V768.646Z" transform="translate(-282.613 -62.346)" fill-rule="evenodd" fill="url(#linear-gradient-5)"/>
    <path id="polygon7427" d="M767.926,797.482v6.763l6.34-1.053V796.43Z" transform="translate(-259.879 -81.878)" fill-rule="evenodd" fill="url(#linear-gradient-6)"/>
    <path id="path7429" d="M399.836,797.573l-.713,8.192c9.717.637,16.96-.046,19.657-8.157,2.336-7.032-.327-11.619-6.534-13.862-2.294-.83-3.63-.816-4.446-2.714-.215-3.555,7.64-2.278,9.819-2.47l1.023-8.888c-8.8.222-21.5.71-20.315,14.685.458,5.39,4.168,6.761,8.661,8.434,4.351,1.62,3.2,3.939,1.682,4.642-2.6,1.2-6.174-.047-8.832.138Z" transform="translate(0 -63.069)" fill="#fff" fill-rule="evenodd"/>
    <path id="path7431" d="M418.375,938.277l-1.728.294v-.41a.592.592,0,0,0-.066-.356.236.236,0,0,0-.219-.041.37.37,0,0,0-.253.15.564.564,0,0,0-.086.335.65.65,0,0,0,.1.4,1.145,1.145,0,0,0,.526.249,4.311,4.311,0,0,1,1.559.675,1.54,1.54,0,0,1,.323,1.125,1.852,1.852,0,0,1-.18.9,1.692,1.692,0,0,1-.691.587,3.822,3.822,0,0,1-1.191.393,3.174,3.174,0,0,1-1.274,0,1,1,0,0,1-.691-.44,2.1,2.1,0,0,1-.163-.936v-.364l1.728-.294v.675a.647.647,0,0,0,.072.389.28.28,0,0,0,.258.045.4.4,0,0,0,.276-.161.6.6,0,0,0,.09-.35c0-.326-.058-.53-.172-.61a4.714,4.714,0,0,0-.87-.357,7.142,7.142,0,0,1-.917-.362.963.963,0,0,1-.373-.382,1.418,1.418,0,0,1-.148-.7,1.816,1.816,0,0,1,.21-.967,1.726,1.726,0,0,1,.677-.576,3.781,3.781,0,0,1,1.13-.358,3.593,3.593,0,0,1,1.234-.029.993.993,0,0,1,.674.343,1.757,1.757,0,0,1,.166.908v.22Zm2.608-2.126V941.7l-1.864.317v-5.547Zm3.955-.673L426,940.844l-1.9.323-.1-.979-.671.114-.1,1.013-1.926.327.944-5.708,2.693-.458Zm-.988,3.738q-.134-.921-.282-2.288-.276,1.645-.35,2.4Zm2.372-3.973,1.875-.319a5.6,5.6,0,0,1,1.169-.106,1.246,1.246,0,0,1,.614.162.7.7,0,0,1,.279.376,2.825,2.825,0,0,1,.072.757v.483a1.745,1.745,0,0,1-.142.8,1.152,1.152,0,0,1-.517.462,3.448,3.448,0,0,1-.986.3l-.5.085v2.237l-1.864.317v-5.547Zm1.864.629v1.413c.053-.007.1-.013.136-.02a.59.59,0,0,0,.355-.159.669.669,0,0,0,.1-.422v-.457c0-.189-.038-.307-.115-.351a.823.823,0,0,0-.474,0Zm8.713-2.429-1.064,2.686L437,938.973l-1.919.326-.756-2.249v2.377l-1.864.317V934.2l1.864-.317v2.155l.837-2.3,1.738-.3Zm.418-.071,3.1-.528v1.108l-1.24.211v1.059l1.158-.2v1.052l-1.158.2v1.22l1.366-.233v1.108l-3.231.55Zm3.76-.64,1.317-.224a13.172,13.172,0,0,1,1.783-.225,1.067,1.067,0,0,1,.76.274,1.311,1.311,0,0,1,.294.982,1.076,1.076,0,0,1-1.026,1.31,1.364,1.364,0,0,1,.744.159.632.632,0,0,1,.235.287,3.81,3.81,0,0,1,.047.813v1.465l-1.728.294v-1.846a.932.932,0,0,0-.09-.537c-.059-.061-.216-.069-.47-.026v2.5l-1.864.317v-5.547Zm1.864.629V934.6a1.122,1.122,0,0,0,.436-.141c.083-.058.125-.211.125-.455v-.305c0-.177-.041-.285-.121-.327a.791.791,0,0,0-.44-.007Zm5.281-1.845v3.707c0,.555-.008.913-.023,1.074a.87.87,0,0,1-.2.465,1.209,1.209,0,0,1-.487.348,4.622,4.622,0,0,1-.922.23l-.928.158v-.971c.11-.011.19-.022.24-.03a.64.64,0,0,0,.309-.127.336.336,0,0,0,.13-.208,3.265,3.265,0,0,0,.018-.427v-3.9l1.864-.317Zm3.935-.669,1.065,5.366-1.9.323-.1-.979-.671.114-.1,1.013-1.926.327.944-5.708,2.693-.458Zm-.988,3.738q-.134-.921-.282-2.288-.276,1.645-.35,2.4Zm6.1-1.808v.954l-2.335.4v-.954Zm6.071-2.147-1.728.294v-.41a.592.592,0,0,0-.066-.356.236.236,0,0,0-.219-.041.37.37,0,0,0-.253.15.564.564,0,0,0-.086.335.651.651,0,0,0,.1.4,1.144,1.144,0,0,0,.526.249,4.312,4.312,0,0,1,1.56.675,1.541,1.541,0,0,1,.323,1.125,1.853,1.853,0,0,1-.18.9,1.693,1.693,0,0,1-.691.588,3.824,3.824,0,0,1-1.191.393,3.179,3.179,0,0,1-1.274,0,1,1,0,0,1-.691-.44,2.1,2.1,0,0,1-.163-.935v-.364l1.728-.294v.675a.647.647,0,0,0,.072.389.279.279,0,0,0,.258.045.4.4,0,0,0,.276-.161.6.6,0,0,0,.09-.35c0-.326-.058-.53-.172-.61a4.7,4.7,0,0,0-.87-.357,7.067,7.067,0,0,1-.917-.362.962.962,0,0,1-.373-.382,1.417,1.417,0,0,1-.148-.7,1.816,1.816,0,0,1,.209-.967,1.726,1.726,0,0,1,.677-.576,3.78,3.78,0,0,1,1.13-.358,3.59,3.59,0,0,1,1.234-.029.992.992,0,0,1,.674.343,1.756,1.756,0,0,1,.166.908v.22Zm3.955-2.356,1.065,5.366-1.9.323-.1-.979-.671.114-.1,1.013-1.926.328.944-5.708,2.693-.458Zm-.988,3.737q-.134-.921-.282-2.288-.276,1.646-.35,2.4Zm6.526-4.68v5.547l-1.629.277-.968-2.357v2.522l-1.557.265v-5.547l1.557-.265,1.041,2.32v-2.5l1.557-.265Zm4.493-.764v1.108l-1.095.186V932.3l-1.864.317v-4.439l-1.1.188v-1.108l4.064-.691Zm4.652-.791v3.709a5.267,5.267,0,0,1-.053.895,1.368,1.368,0,0,1-.314.578,2.063,2.063,0,0,1-.686.525,3.642,3.642,0,0,1-1.006.31,3.429,3.429,0,0,1-1.13.028,1.411,1.411,0,0,1-.733-.3.862.862,0,0,1-.288-.508,10.522,10.522,0,0,1-.044-1.225V926.5l1.864-.317v4.161a1.229,1.229,0,0,0,.05.456c.033.062.1.085.2.067a.269.269,0,0,0,.223-.149,1.746,1.746,0,0,0,.05-.534v-4.089l1.864-.317Zm4.877-.829v5.547l-1.629.277-.968-2.358v2.522l-1.557.265v-5.547l1.557-.265,1.041,2.321v-2.5l1.557-.265Zm4.469,2.038v.954l-2.335.4v-.954Zm7.872-4.137v5.547l-1.629.277,0-3.744-.647,3.855-1.14.194-.684-3.544,0,3.661-1.629.277v-5.547l2.406-.409c.068.324.142.707.222,1.144l.264,1.364.424-2.662,2.422-.412Zm3.961-.674,1.065,5.366-1.9.323-.1-.979-.671.114-.1,1.013-1.926.327.944-5.708,2.693-.458Zm-.988,3.738q-.134-.921-.282-2.288-.276,1.645-.35,2.4Zm6.526-4.68v5.547l-1.629.277-.968-2.358v2.522l-1.557.265v-5.547l1.557-.265,1.041,2.321v-2.5l1.557-.265Zm.747-.127,1.392-.237a11.228,11.228,0,0,1,1.822-.214,1.3,1.3,0,0,1,.722.193.743.743,0,0,1,.309.435,5.623,5.623,0,0,1,.062,1.047v1.942a3.7,3.7,0,0,1-.09,1.013.962.962,0,0,1-.315.449,1.853,1.853,0,0,1-.558.294,7,7,0,0,1-1,.226l-2.345.4Zm1.864.629v3.654a.735.735,0,0,0,.487-.208,1.581,1.581,0,0,0,.092-.7v-2.158a2.251,2.251,0,0,0-.03-.479.186.186,0,0,0-.14-.131,1.075,1.075,0,0,0-.409.019Zm5-1.8v5.547l-1.864.317v-5.547Zm.744-.127,1.317-.224a13.166,13.166,0,0,1,1.783-.225,1.066,1.066,0,0,1,.76.274,1.311,1.311,0,0,1,.294.982,1.076,1.076,0,0,1-1.026,1.31,1.365,1.365,0,0,1,.744.159.633.633,0,0,1,.235.287,3.825,3.825,0,0,1,.047.813v1.465l-1.728.294V923.1a.928.928,0,0,0-.091-.536q-.088-.092-.47-.026v2.5l-1.864.317Zm1.864.629v1.234a1.122,1.122,0,0,0,.436-.141c.083-.058.125-.211.125-.455v-.305c0-.177-.041-.285-.121-.327a.79.79,0,0,0-.44-.007Zm4.873-1.776v5.547l-1.864.317V918.98Zm4.466,2.038v.954l-2.335.4V921.1Zm6.573-3.916-1.064,2.686,1.163,2.845-1.919.326-.756-2.249v2.377l-1.864.317v-5.547l1.864-.317v2.155l.837-2.3Zm.418-.071,1.317-.224a13.155,13.155,0,0,1,1.783-.225,1.067,1.067,0,0,1,.76.274,1.311,1.311,0,0,1,.294.982,1.075,1.075,0,0,1-1.025,1.311,1.364,1.364,0,0,1,.744.159.631.631,0,0,1,.235.287,3.788,3.788,0,0,1,.047.813v1.465l-1.728.294V920a.933.933,0,0,0-.09-.537c-.059-.061-.216-.069-.47-.026v2.5l-1.864.317v-5.547Zm1.864.63v1.234a1.126,1.126,0,0,0,.436-.141c.083-.059.125-.211.125-.455v-.305c0-.177-.041-.285-.121-.327a.791.791,0,0,0-.44-.007Zm3.009-1.458,3.1-.528v1.108l-1.24.211v1.059l1.158-.2v1.052l-1.158.2v1.22l1.366-.233v1.108l-3.231.55Zm6.971-1.186,1.065,5.366-1.9.323-.1-.979-.671.114-.1,1.013-1.926.328.944-5.708,2.693-.458Zm-.988,3.738q-.134-.921-.282-2.288-.276,1.646-.35,2.4l.632-.107Zm5.62-4.525v1.108l-1.095.186v4.439l-1.864.317v-4.439l-1.1.188V914.6Zm2.289-.389v5.547l-1.864.317V913.84Zm.744-.127,3.15-.536v1.108l-1.285.219v1.059l1.14-.194V916.1l-1.14.194v2.328l-1.864.317Z" transform="translate(-11.273 -163.728)" fill="#fff"/>
    <path id="path7433" d="M479.327,844.612l5.876-1.018a18.394,18.394,0,0,1,4.22-.371,3.4,3.4,0,0,1,2.316,1.053,4.975,4.975,0,0,1,.88,3.381,3.748,3.748,0,0,1-.622,2.4,5.8,5.8,0,0,1-2.464,1.425,3.957,3.957,0,0,1,2.785.789,3.708,3.708,0,0,1,.732,2.6v1.743a6.475,6.475,0,0,1-.526,2.915,3.462,3.462,0,0,1-1.67,1.545,22.341,22.341,0,0,1-4.708,1.152l-6.819,1.181v-18.8Zm5.914,2.184v4.183c.249-.051.44-.088.579-.112a1.5,1.5,0,0,0,1.082-.54,5.279,5.279,0,0,0,.234-2.068,2.582,2.582,0,0,0-.191-1.207.694.694,0,0,0-.5-.361,5.409,5.409,0,0,0-1.2.105Zm0,7.106v5.276a3.265,3.265,0,0,0,1.56-.595,2.275,2.275,0,0,0,.335-1.492v-1.759c0-.808-.1-1.278-.3-1.417a2.932,2.932,0,0,0-1.593-.013Zm15.852-13.061v18.8l-5.914,1.025v-18.8Zm14.847,3.132-5.483.95v-1.39a2.124,2.124,0,0,0-.211-1.207.718.718,0,0,0-.694-.145,1.152,1.152,0,0,0-.8.5,2,2,0,0,0-.273,1.133,2.338,2.338,0,0,0,.311,1.36,3.583,3.583,0,0,0,1.67.859q3.926,1.263,4.948,2.331t1.024,3.823a6.6,6.6,0,0,1-.57,3.061,5.435,5.435,0,0,1-2.191,1.972,11.5,11.5,0,0,1-3.78,1.3,9.453,9.453,0,0,1-4.043-.044,3.192,3.192,0,0,1-2.191-1.51,7.546,7.546,0,0,1-.517-3.174V852.56l5.483-.95V853.9a2.333,2.333,0,0,0,.23,1.319.848.848,0,0,0,.818.159,1.246,1.246,0,0,0,.875-.536,2.115,2.115,0,0,0,.287-1.183c0-1.105-.182-1.8-.546-2.072a14.485,14.485,0,0,0-2.761-1.233,22.216,22.216,0,0,1-2.909-1.251,3.223,3.223,0,0,1-1.182-1.3,5.11,5.11,0,0,1-.469-2.378,6.467,6.467,0,0,1,.665-3.272,5.535,5.535,0,0,1,2.149-1.933,11.378,11.378,0,0,1,3.584-1.183,10.681,10.681,0,0,1,3.914-.064,3.129,3.129,0,0,1,2.139,1.182,6.325,6.325,0,0,1,.526,3.082v.745Zm12.546-7.878,3.378,18.214-6.034,1.045-.32-3.319-2.129.369-.32,3.43-6.111,1.058,3-19.318,8.541-1.48Zm-3.134,12.64q-.423-3.123-.895-7.763-.876,5.57-1.11,8.111l2-.347Zm14.273-5.087v3.232l-7.407,1.283v-3.232Zm15.259-12.127v18.8l-5.914,1.025v-7.89l-1.723.3v7.89l-5.914,1.025v-18.8l5.914-1.025v6.726l1.723-.3v-6.726Zm2.388-.414,9.848-1.706v3.755l-3.933.682v3.589l3.674-.637v3.565l-3.674.637v4.135l4.335-.751v3.755l-10.249,1.776v-18.8Zm11.928-2.066,5.876-1.018a18.39,18.39,0,0,1,4.22-.371,3.4,3.4,0,0,1,2.316,1.053,4.975,4.975,0,0,1,.88,3.381,3.749,3.749,0,0,1-.622,2.4,5.8,5.8,0,0,1-2.464,1.425,3.957,3.957,0,0,1,2.785.789,3.708,3.708,0,0,1,.732,2.6v1.743a6.478,6.478,0,0,1-.526,2.915,3.465,3.465,0,0,1-1.67,1.545,22.352,22.352,0,0,1-4.708,1.152L569.2,847.84Zm5.914,2.184v4.183c.249-.051.44-.088.579-.112a1.5,1.5,0,0,0,1.081-.54,5.275,5.275,0,0,0,.235-2.069,2.581,2.581,0,0,0-.191-1.207.692.692,0,0,0-.5-.361A5.4,5.4,0,0,0,575.116,831.225Zm0,7.106v5.276a3.267,3.267,0,0,0,1.56-.595,2.276,2.276,0,0,0,.335-1.492v-1.759c0-.808-.1-1.278-.3-1.417a2.933,2.933,0,0,0-1.593-.013Zm20.125-13.8,3.378,18.214-6.034,1.045-.32-3.319-2.129.369-.321,3.43-6.11,1.059,3-19.318,8.541-1.48Zm-3.134,12.64q-.423-3.123-.895-7.763-.876,5.57-1.11,8.111Zm17.828-15.185v3.755l-3.474.6v15.044l-5.914,1.025V827.367l-3.5.607v-3.755l12.89-2.233Z" transform="translate(-56.997 -99.843)" fill="#fff"/>
    <path id="polygon7435" d="M705.555,685.743V701.5l14.771-2.452V683.291Z" transform="translate(-216.032 -2.343)" fill-rule="evenodd" fill="url(#linear-gradient-7)"/>
    <path id="polygon7437" d="M711.354,797.75v11.62l10.895-1.809v-11.62Z" transform="translate(-220.109 -81.535)" fill-rule="evenodd" fill="url(#linear-gradient-8)"/>
    <path id="polygon7439" d="M779.738,723.871v15.756l14.771-2.452V721.419Z" transform="translate(-268.182 -29.147)" fill-rule="evenodd" fill="url(#linear-gradient-9)"/>
    <path id="path7441" d="M510.527,731.523v34.655l-8.748,1.65-.025-23.39-3.475,24.051-6.124,1.156-3.669-22.177-.024,22.874-8.748,1.65V737.336l12.921-2.437c.364,2.027.761,4.421,1.19,7.158l1.418,8.532,2.276-16.611,13.009-2.453Zm27.867-5.257-5.712,16.725,6.246,17.829-10.3,1.943-4.058-14.086v14.852l-10.012,1.889V730.763l10.012-1.889v13.465l4.5-14.313,9.332-1.76Z" transform="translate(-57.269 -32.554)" fill="#fff" fill-rule="evenodd"/>
    <path id="polygon7443" d="M551.093,979.956v-2.01l2.5-.431v2.011Z" transform="translate(-107.448 -209.178)" fill="#293b91" fill-rule="evenodd"/>
    <path id="polygon7445" d="M665.5,960.888v-2.011l2.5-.431v2.011Z" transform="translate(-187.873 -195.773)" fill="#293b91" fill-rule="evenodd"/>
    <path id="polygon7447" d="M789.822,939.629v-2.011l2.5-.431V939.2Z" transform="translate(-275.271 -180.829)" fill="#293b91" fill-rule="evenodd"/>
  </g>
</svg>
