<svg xmlns="http://www.w3.org/2000/svg" width="60.848" height="56.911" viewBox="0 0 60.848 56.911">
  <g id="bakery" transform="translate(0 -0.001)">
    <path id="Path_42" data-name="Path 42" d="M293.437,293.856H273.593l-3.565-3.565V268.9H295.22v23.172a1.782,1.782,0,0,1-1.783,1.782Zm0,0" transform="translate(-237.937 -236.944)" fill="#ff8900"/>
    <path id="Path_43" data-name="Path 43" d="M291.536,193.17H270.028V178.91h21.508a7.131,7.131,0,1,1,0,14.26Zm0,0" transform="translate(-237.937 -157.647)" fill="#ffb751"/>
    <path id="Path_44" data-name="Path 44" d="M38.935,183.976a7.431,7.431,0,0,0-7.2-5.062H7.493a7.43,7.43,0,0,0-7.2,5.062,7.148,7.148,0,0,0,3.279,8.235V212.78a1.765,1.765,0,0,0,1.783,1.783h30.3V192.211a7.148,7.148,0,0,0,3.28-8.235Zm0,0" transform="translate(0 -157.65)" fill="#ffb751"/>
    <path id="Path_45" data-name="Path 45" d="M181.081,192.211v22.352H165.039V178.914H177.16a7.431,7.431,0,0,1,7.2,5.062,7.148,7.148,0,0,1-3.28,8.235Zm0,0" transform="translate(-145.426 -157.65)" fill="#ff9b00"/>
    <path id="Path_46" data-name="Path 46" d="M58.577,208.91H33.623a3.557,3.557,0,0,0-1.177,6.916,1.769,1.769,0,0,1,1.177,1.675v19.928H58.577V217.5a1.769,1.769,0,0,1,1.177-1.675,3.557,3.557,0,0,0-1.177-6.916Zm0,0" transform="translate(-26.486 -184.081)" fill="#faecd8"/>
    <path id="Path_47" data-name="Path 47" d="M181.081,212.475a3.569,3.569,0,0,1-2.388,3.351,1.769,1.769,0,0,0-1.177,1.675v19.928H165.039V208.91h12.477A3.575,3.575,0,0,1,181.081,212.475Zm0,0" transform="translate(-145.425 -184.081)" fill="#f4d7af"/>
    <path id="Path_48" data-name="Path 48" d="M213.6,330.678a1.782,1.782,0,1,1-1.782-1.783A1.782,1.782,0,0,1,213.6,330.678Zm0,0" transform="translate(-185.074 -289.807)" fill="#dabba6"/>
    <path id="Path_49" data-name="Path 49" d="M213.6,240.688a1.782,1.782,0,1,1-1.782-1.782,1.782,1.782,0,0,1,1.782,1.782Zm0,0" transform="translate(-185.074 -210.512)" fill="#dabba6"/>
    <g id="Group_19" data-name="Group 19" transform="translate(10.702 0.001)">
      <path id="Path_50" data-name="Path 50" d="M153.608,390.67a1.782,1.782,0,1,1-1.783-1.783A1.765,1.765,0,0,1,153.608,390.67Zm0,0" transform="translate(-142.913 -342.67)" fill="#f4d7af"/>
      <path id="Path_51" data-name="Path 51" d="M152.436,17.526a6.067,6.067,0,0,1,0-10.1,2.5,2.5,0,0,0,0-4.164A1.782,1.782,0,1,1,154.413.3a6.067,6.067,0,0,1,0,10.1,2.5,2.5,0,0,0,0,4.164,1.782,1.782,0,1,1-1.978,2.966Zm0,0" transform="translate(-142.641 -0.001)" fill="#f4d7af"/>
      <path id="Path_52" data-name="Path 52" d="M227.428,17.526a6.067,6.067,0,0,1,0-10.1,2.5,2.5,0,0,0,0-4.164A1.782,1.782,0,1,1,229.405.3a6.067,6.067,0,0,1,0,10.1,2.5,2.5,0,0,0,0,4.164,1.782,1.782,0,0,1-1.978,2.966Zm0,0" transform="translate(-208.721 -0.001)" fill="#f4d7af"/>
      <path id="Path_53" data-name="Path 53" d="M302.42,17.526a6.067,6.067,0,0,1,0-10.1,2.5,2.5,0,0,0,0-4.164A1.782,1.782,0,1,1,304.4.3a6.066,6.066,0,0,1,0,10.1,2.5,2.5,0,0,0,0,4.164,1.782,1.782,0,0,1-1.977,2.966Zm0,0" transform="translate(-274.801 -0.001)" fill="#f4d7af"/>
      <path id="Path_54" data-name="Path 54" d="M98.963,270.293A5.233,5.233,0,0,0,95.4,268.9a5.347,5.347,0,0,0,0,10.695,5.327,5.327,0,0,0,3.565-9.3Zm0,0" transform="translate(-90.051 -236.946)" fill="#f4d7af"/>
    </g>
    <path id="Path_55" data-name="Path 55" d="M166.822,284.559a5.23,5.23,0,0,1-1.783,3.957V280.6A5.23,5.23,0,0,1,166.822,284.559Zm0,0" transform="translate(-145.426 -247.253)" fill="#dabba6"/>
    <path id="Path_56" data-name="Path 56" d="M166.822,390.67a1.765,1.765,0,0,1-1.783,1.782v-3.565A1.765,1.765,0,0,1,166.822,390.67Zm0,0" transform="translate(-145.426 -342.669)" fill="#dabba6"/>
  </g>
</svg>
