<svg xmlns="http://www.w3.org/2000/svg" width="61.633" height="56.796" viewBox="0 0 61.633 56.796">
  <g id="online-shop" transform="translate(0 -19.5)">
    <path id="Path_109" data-name="Path 109" d="M91.712,109.5v40.675a4.961,4.961,0,0,1-4.96,4.96H44.96a4.961,4.961,0,0,1-4.96-4.96V109.5Z" transform="translate(-35.04 -78.839)" fill="#f4f4e6"/>
    <path id="Path_110" data-name="Path 110" d="M47.441,155.135H44.96a4.961,4.961,0,0,1-4.96-4.96V109.5h2.48v40.675A4.961,4.961,0,0,0,47.441,155.135Z" transform="translate(-35.04 -78.839)" fill="#e6e6e6"/>
    <path id="Path_111" data-name="Path 111" d="M91.712,127.5v16.162a5.939,5.939,0,0,1-.992.083h-.868a5.953,5.953,0,0,1-5.952-5.952,5.952,5.952,0,1,1-11.9,0,5.952,5.952,0,0,1-5.952,5.952h-.124a5.953,5.953,0,0,1-5.952-5.952,5.952,5.952,0,0,1-5.952,5.952h-.248a5.953,5.953,0,0,1-5.952-5.952,5.952,5.952,0,0,1-5.952,5.952h-.868a5.939,5.939,0,0,1-.992-.083V127.5Z" transform="translate(-35.04 -94.607)" fill="#e6e6e6"/>
    <path id="Path_112" data-name="Path 112" d="M14.11,100.74,12.9,109.056a15.727,15.727,0,0,0-.125,1.977c0,.1,0,.207-.007.31a5.953,5.953,0,0,1-5.945,5.642H5.952a5.954,5.954,0,0,1-5.945-5.642c0-.1-.007-.206-.007-.31a4.428,4.428,0,0,1,.423-1.89l4.538-8.4,4.17-1.24Z" transform="translate(0 -70.079)" fill="#fd646f"/>
    <path id="Path_113" data-name="Path 113" d="M115.153,100.74v10.293c0,.1,0,.207-.007.31a5.953,5.953,0,0,1-5.945,5.642h-.248a5.954,5.954,0,0,1-5.945-5.642c0-.1-.007-.206-.007-.31a15.725,15.725,0,0,1,.125-1.977l1.212-8.316,5.237-1.24Z" transform="translate(-90.227 -70.079)" fill="#ffc682"/>
    <path id="Path_114" data-name="Path 114" d="M213.029,100.74v10.293c0,.1,0,.207-.007.31a5.953,5.953,0,0,1-5.945,5.642h-.124a5.953,5.953,0,0,1-5.945-5.642c0-.1-.007-.206-.007-.31V100.74l6.138-1.24Z" transform="translate(-176.074 -70.079)" fill="#fd646f"/>
    <path id="Path_115" data-name="Path 115" d="M309.9,111.033c0,.1,0,.207-.007.31a5.953,5.953,0,0,1-11.89,0c0-.1-.007-.206-.007-.31V100.74l5.518-1.24,5.174,1.24,1.1,8.315A17.57,17.57,0,0,1,309.9,111.033Z" transform="translate(-261.045 -70.079)" fill="#ffc682"/>
    <path id="Path_116" data-name="Path 116" d="M398.206,111.033c0,.1,0,.207-.007.31a5.953,5.953,0,0,1-5.945,5.642h-.868a5.954,5.954,0,0,1-5.945-5.642c0-.1-.007-.206-.007-.31a17.563,17.563,0,0,0-.113-1.978l-1.1-8.315,4.5-1.24,4.524,1.24,4.537,8.4a4.376,4.376,0,0,1,.316.921A4.449,4.449,0,0,1,398.206,111.033Z" transform="translate(-336.573 -70.079)" fill="#fd646f"/>
    <path id="Path_117" data-name="Path 117" d="M150.26,271.966a.93.93,0,0,0-.912-1.114H128.384l-.031-.148a3.426,3.426,0,0,0-3.336-2.7H123.43a.93.93,0,0,0,0,1.86h1.586a1.557,1.557,0,0,1,1.517,1.229l2.764,13.056a3.428,3.428,0,0,0,2.35,2.554,2.79,2.79,0,1,0,5.2.151h4.164a2.79,2.79,0,1,0,5.26,0h.222a.93.93,0,1,0,0-1.86H132.633a1.557,1.557,0,0,1-1.517-1.229l-.238-1.127h16.469a.93.93,0,0,0,.912-.746l.977-4.844a.923.923,0,0,0,.047-.234Zm-15.111,15.813a.93.93,0,1,1-.93-.93A.931.931,0,0,1,135.149,287.779Zm9.425,0a.93.93,0,1,1-.93-.93A.931.931,0,0,1,144.574,287.779Zm3.012-11.967h-4.377l.388-3.1h4.615Zm-11.182,4.96-.388-3.1H141.1l-.388,3.1Zm-.62-4.96-.388-3.1h6.326l-.388,3.1Zm-2.262-3.1.388,3.1h-4.476l-.656-3.1Zm-3.694,4.96h4.314l.388,3.1h-4.046Zm12.761,3.1.388-3.1h4.234l-.625,3.1Z" transform="translate(-107.309 -217.684)" fill="#50758d"/>
    <path id="Path_118" data-name="Path 118" d="M.06,195H12.818a5.953,5.953,0,0,1-5.945,5.642H6.005A5.954,5.954,0,0,1,.06,195Z" transform="translate(-0.053 -153.736)" fill="#fc4755"/>
    <path id="Path_119" data-name="Path 119" d="M103.06,195H115.2a5.953,5.953,0,0,1-5.945,5.642h-.248A5.954,5.954,0,0,1,103.06,195Z" transform="translate(-90.28 -153.736)" fill="#ffac5c"/>
    <path id="Path_120" data-name="Path 120" d="M201.06,195h12.014a5.953,5.953,0,0,1-5.945,5.642H207A5.953,5.953,0,0,1,201.06,195Z" transform="translate(-176.127 -153.736)" fill="#fc4755"/>
    <path id="Path_121" data-name="Path 121" d="M298.06,195h11.89a5.953,5.953,0,0,1-11.89,0Z" transform="translate(-261.098 -153.736)" fill="#ffac5c"/>
    <path id="Path_122" data-name="Path 122" d="M406.818,195a5.953,5.953,0,0,1-5.945,5.642H400A5.954,5.954,0,0,1,394.06,195Z" transform="translate(-345.193 -153.736)" fill="#fc4755"/>
    <path id="Path_123" data-name="Path 123" d="M40,30.661v-6.2a4.96,4.96,0,0,1,4.96-4.96H86.752a4.96,4.96,0,0,1,4.96,4.96v6.2Z" transform="translate(-35.04)" fill="#50758d"/>
    <g id="Group_27" data-name="Group 27" transform="translate(7.1 22.259)">
      <path id="Path_124" data-name="Path 124" d="M62.9,46.351a2.789,2.789,0,1,0-4.277-3.579l-.709.827A2.789,2.789,0,1,0,62.2,47.177Z" transform="translate(-57.25 -41.75)" fill="#2b597f"/>
      <path id="Path_125" data-name="Path 125" d="M122.155,46.6a2.789,2.789,0,1,0-4.277-3.579l-.709.827a2.789,2.789,0,1,0,4.277,3.579Z" transform="translate(-109.152 -41.969)" fill="#2b597f"/>
      <path id="Path_126" data-name="Path 126" d="M181.155,46.6a2.789,2.789,0,1,0-4.277-3.579l-.709.827a2.789,2.789,0,1,0,4.277,3.579Z" transform="translate(-160.836 -41.969)" fill="#2b597f"/>
    </g>
    <path id="Path_127" data-name="Path 127" d="M66.04,47.33a2.79,2.79,0,1,1,2.79-2.79A2.793,2.793,0,0,1,66.04,47.33Z" transform="translate(-55.406 -19.491)" fill="#fd646f"/>
    <path id="Path_128" data-name="Path 128" d="M125.29,47.58a2.79,2.79,0,1,1,2.79-2.79A2.793,2.793,0,0,1,125.29,47.58Z" transform="translate(-107.309 -19.71)" fill="#ffc682"/>
    <path id="Path_129" data-name="Path 129" d="M184.29,47.58a2.79,2.79,0,1,1,2.79-2.79A2.793,2.793,0,0,1,184.29,47.58Z" transform="translate(-158.992 -19.71)" fill="#93ddb7"/>
    <path id="Path_130" data-name="Path 130" d="M272.648,46.6a2.788,2.788,0,0,0-2.121-4.6H254.034a2.786,2.786,0,0,0-2.156,1.021l-.709.827a2.788,2.788,0,0,0,2.121,4.6h16.493a2.786,2.786,0,0,0,2.156-1.021Z" transform="translate(-219.436 -19.71)" fill="#2b597f"/>
    <path id="Path_131" data-name="Path 131" d="M275.783,47.58H259.29a2.79,2.79,0,0,1,0-5.58h16.493a2.79,2.79,0,1,1,0,5.58Z" transform="translate(-224.692 -19.71)" fill="#f5f5f5"/>
    <path id="Path_132" data-name="Path 132" d="M125.29,47.58a2.79,2.79,0,1,1,2.79-2.79A2.793,2.793,0,0,1,125.29,47.58Z" transform="translate(-107.309 -19.71)" fill="#ffc682"/>
    <path id="Path_133" data-name="Path 133" d="M184.29,47.58a2.79,2.79,0,1,1,2.79-2.79A2.793,2.793,0,0,1,184.29,47.58Z" transform="translate(-158.992 -19.71)" fill="#93ddb7"/>
  </g>
</svg>
