<?xml version="1.0" encoding="UTF-8" standalone="no"?>
<svg
   xmlns:dc="http://purl.org/dc/elements/1.1/"
   xmlns:cc="http://creativecommons.org/ns#"
   xmlns:rdf="http://www.w3.org/1999/02/22-rdf-syntax-ns#"
   xmlns:svg="http://www.w3.org/2000/svg"
   xmlns="http://www.w3.org/2000/svg"
   xmlns:sodipodi="http://sodipodi.sourceforge.net/DTD/sodipodi-0.dtd"
   xmlns:inkscape="http://www.inkscape.org/namespaces/inkscape"
   inkscape:version="1.0 (4035a4fb49, 2020-05-01)"
   sodipodi:docname="bg.svg"
   id="svg10"
   viewBox="0 0 4166.6667 4166.6667"
   style="clip-rule:evenodd;fill-rule:evenodd;image-rendering:optimizeQuality;shape-rendering:geometricPrecision;text-rendering:geometricPrecision"
   version="1.1"
   height="400"
   width="400"
   xml:space="preserve"><metadata
   id="metadata14"><rdf:RDF><cc:Work
       rdf:about=""><dc:format>image/svg+xml</dc:format><dc:type
         rdf:resource="http://purl.org/dc/dcmitype/StillImage" /><dc:title></dc:title></cc:Work></rdf:RDF></metadata><sodipodi:namedview
   inkscape:current-layer="svg10"
   inkscape:window-maximized="1"
   inkscape:window-y="-8"
   inkscape:window-x="1912"
   inkscape:cy="204.06724"
   inkscape:cx="95.999519"
   inkscape:zoom="1.1476306"
   units="px"
   showgrid="false"
   id="namedview12"
   inkscape:window-height="705"
   inkscape:window-width="1366"
   inkscape:pageshadow="2"
   inkscape:pageopacity="0"
   guidetolerance="10"
   gridtolerance="10"
   objecttolerance="10"
   borderopacity="1"
   bordercolor="#666666"
   pagecolor="#ffffff" />
 <defs
   id="defs4">
  <style
   id="style2"
   type="text/css">
   <![CDATA[
    .fil0 {fill:#F4F8FB}
   ]]>
  </style>
 </defs>
 <g
   transform="matrix(2.4018438,0,0,2.4018438,-633.09439,19.947705)"
   id="Layer_x0020_1">
  <metadata
   id="CorelCorpID_0Corel-Layer" />
  <path
   id="path7"
   d="m 1909.76,318.47 c 37.94,-46.04 70.54,-79.7 95.81,-121.8 V 52.14 c -17.6,14.31 -33.89,29.01 -42.41,37.29 -90.07,87.45 -146.52,203.24 -147.09,342.18 l 93.7,-113.14 z m -543.29,1117.78 -39.13,167.98 c 242.67,17.26 270.1,-216.82 678.22,-101.21 v -169.8 c -1.39,-0.3 -2.73,-0.59 -4.03,-0.89 -224.39,-49.63 -261.14,10.59 -415.78,65.42 -84.38,29.91 -125.08,33.24 -219.28,38.5 z m -49.3,191.31 c -8.32,14.71 -14.86,31.34 -25.27,46.37 -16.44,23.73 -28.6,16.59 -21.91,49.66 218.55,37.96 425.93,-215.53 716.7,-128.23 6.04,1.81 12.35,3.88 18.87,6.13 v -75.26 c -391.28,-109.81 -457.63,129.59 -688.39,101.33 z m 512.49,-482.95 c -10.47,-6.61 -2.84,-2.97 -18.26,-7.29 l -59.06,-14.02 c -68.44,-18.63 -143.15,-50.68 -195.22,-92.15 -328.46,-261.64 -2.35,-698.16 -45.87,-894.56 -12.3,-55.53 -45.17,-78.66 -99.98,-94.92 -51.84,-15.37 -97.79,8.33 -146.94,25.84 -47.67,16.98 -95.14,35.09 -141.05,53.86 -107.27,43.87 -344.45,155.92 -384.2,-45.46 -5.01,-25.39 -5.4,-51.21 -3.06,-77.19 h -93.46 c -28.8,56.38 -56.74,123.19 -58.35,190.66 -6.44,270.93 385.87,206.2 350.51,273.86 -8.85,10.07 -15.49,12.62 -34.22,11.33 L 787.13,451.87 C 708.22,432.1 687.86,413.54 655.3,403.72 c 19.91,312.75 340.8,216.3 339.02,277.48 -1.71,58.91 -254.6,-27.81 -258.61,-27.73 -10.2,84.2 57.71,139.64 108.91,164.86 108.94,53.66 188.93,17.3 235.21,37.24 13.28,55.01 -70.96,39.01 -117.93,35.81 -53.05,-3.62 -87.29,-17.92 -129.64,-23.54 32.93,118.17 119.8,172.36 238.92,186.37 40.7,4.78 104.75,-1.81 135.52,6.03 4.51,14.11 4.5,21.9 -0.08,36 -76.42,22.57 -184.66,-11.01 -228.49,-14.22 42.44,143.41 214.37,179.63 393.13,167.94 165.57,-10.83 314.03,-56.69 458.4,-105.35 z M 1851.49,-1.27 c 11.56,57.42 20.51,101.09 25.44,122.7 15.07,-12.13 29.55,-31.17 42.86,-46.15 18.97,-21.35 54.98,-48.91 85.77,-71.83 v -4.72 z m 154.07,847.55 c -13.79,-13.27 -25.73,-28.65 -36.04,-47.46 -75.05,-136.96 -17.87,-258.43 36.04,-354.96 V 272.17 c -31.48,36.9 -72.61,80.42 -126.53,152.17 -82.45,109.72 -61.91,136.43 -84.13,172.96 -92.86,-38.07 -168.85,-129.95 -168.85,-237.67 0,-172.82 123.06,-372.16 -147.74,-348.14 11.56,15.59 -10.19,-1.82 29.19,26.68 127.41,92.23 -17.12,411.06 -41.89,542.69 -29.85,158.61 -6.88,292.26 81.25,382.62 62.27,63.84 152.53,102.28 245.78,124.23 20.77,4.89 87.94,14.93 100.33,21.53 3.95,2.1 52.17,47.31 112.59,92.4 V 846.29 Z"
   class="fil0" />
 </g>
</svg>
