<svg xmlns="http://www.w3.org/2000/svg" width="52.136" height="56.627" viewBox="0 0 52.136 56.627">
  <g id="Layer_x0020_1" transform="translate(-0.01 0.002)">
    <path id="Path_9" data-name="Path 9" d="M48.7,2.878l-1.726-1.4C44.62-.006,41.888,0,39.294,0L.027.017.01,36.065c8.111-.167,9.866.514,9.864-8.206,0-5.976.073-12,0-17.965L42.3,9.911l6.4-7.032Z" transform="translate(0 0)" fill="#2780bc" fill-rule="evenodd"/>
    <path id="Path_10" data-name="Path 10" d="M137.286,82.075h22.888c2.789-.084,3.581-.568,5.621-2.384a10.236,10.236,0,0,0,3.316-4.79c.95-2.809.507-26.66.507-31.432,0-5.429.8-9.693-2.041-13.77l-7.617,8.044L159.9,72.2q-8.219,0-16.437-.006c-6.6-.016-6.364,4.086-6.174,9.884Z" transform="translate(-117.575 -25.451)" fill="#2780bc" fill-rule="evenodd"/>
    <path id="Path_11" data-name="Path 11" d="M.11,159.6H13.693c.641-3.24-.451-6.045.744-9.788,3.556-11.131,16.137-6.488,22.744-7.791l0-21.135-7.134,7.655c2.189,5.557-3.293,8.174-6.225,5.2-2.012-2.044-2.129-8.271,5.319-6.3,1.208-1.949,3.947-4.2,6.308-7.27l-18.765.087c.2,8.6,1.8,20.06-7.108,23.182-2.743.96-6.423.668-9.471.664v15.5Z" transform="translate(-0.086 -102.975)" fill="#f7a31c" fill-rule="evenodd"/>
  </g>
</svg>
