<svg id="social-media_2_" data-name="social-media (2)" xmlns="http://www.w3.org/2000/svg" xmlns:xlink="http://www.w3.org/1999/xlink" width="55.941" height="55.94" viewBox="0 0 55.941 55.94">
  <defs>
    <linearGradient id="linear-gradient" x1="0.084" y1="0.916" x2="0.916" y2="0.084" gradientUnits="objectBoundingBox">
      <stop offset="0" stop-color="#ffd600"/>
      <stop offset="0.5" stop-color="#ff0100"/>
      <stop offset="1" stop-color="#d800b9"/>
    </linearGradient>
    <linearGradient id="linear-gradient-2" x1="0.146" y1="0.854" x2="0.854" y2="0.146" gradientUnits="objectBoundingBox">
      <stop offset="0" stop-color="#ff6400"/>
      <stop offset="0.5" stop-color="#ff0100"/>
      <stop offset="1" stop-color="#fd0056"/>
    </linearGradient>
    <linearGradient id="linear-gradient-3" x1="0.146" y1="0.854" x2="0.854" y2="0.146" gradientUnits="objectBoundingBox">
      <stop offset="0" stop-color="#f30072"/>
      <stop offset="1" stop-color="#e50097"/>
    </linearGradient>
  </defs>
  <path id="Path_3" data-name="Path 3" d="M55.772,16.438a20.535,20.535,0,0,0-1.3-6.789,13.708,13.708,0,0,0-3.226-4.954,13.712,13.712,0,0,0-4.954-3.227A20.531,20.531,0,0,0,39.5.169C36.519.032,35.566,0,27.97,0S19.421.032,16.438.168a20.537,20.537,0,0,0-6.789,1.3A13.708,13.708,0,0,0,4.695,4.695,13.711,13.711,0,0,0,1.468,9.648a20.533,20.533,0,0,0-1.3,6.789C.032,19.421,0,20.374,0,27.97S.032,36.519.169,39.5a20.53,20.53,0,0,0,1.3,6.789,13.707,13.707,0,0,0,3.226,4.954,13.7,13.7,0,0,0,4.954,3.226,20.524,20.524,0,0,0,6.789,1.3c2.983.136,3.936.168,11.532.168s8.549-.032,11.532-.168a20.526,20.526,0,0,0,6.789-1.3,14.3,14.3,0,0,0,8.18-8.18,20.528,20.528,0,0,0,1.3-6.789c.136-2.983.168-3.936.168-11.532s-.032-8.549-.168-11.532ZM50.738,39.273a15.475,15.475,0,0,1-.963,5.194,9.262,9.262,0,0,1-5.308,5.308,15.475,15.475,0,0,1-5.194.963c-2.949.135-3.833.163-11.3.163s-8.354-.028-11.3-.163a15.481,15.481,0,0,1-5.194-.963,8.668,8.668,0,0,1-3.216-2.093,8.665,8.665,0,0,1-2.093-3.216A15.476,15.476,0,0,1,5.2,39.273c-.134-2.949-.163-3.834-.163-11.3s.029-8.353.163-11.3a15.487,15.487,0,0,1,.963-5.194A8.672,8.672,0,0,1,8.258,8.258a8.66,8.66,0,0,1,3.216-2.092A15.473,15.473,0,0,1,16.668,5.2c2.949-.134,3.834-.163,11.3-.163h0c7.468,0,8.353.029,11.3.163a15.478,15.478,0,0,1,5.194.963,8.672,8.672,0,0,1,3.216,2.092,8.66,8.66,0,0,1,2.092,3.216,15.461,15.461,0,0,1,.963,5.194c.134,2.949.163,3.834.163,11.3s-.028,8.353-.163,11.3Zm0,0" transform="translate(0 0)" fill="url(#linear-gradient)"/>
  <path id="Path_4" data-name="Path 4" d="M138.9,124.539A14.363,14.363,0,1,0,153.265,138.9,14.363,14.363,0,0,0,138.9,124.539Zm0,23.687a9.324,9.324,0,1,1,9.324-9.324A9.323,9.323,0,0,1,138.9,148.226Zm0,0" transform="translate(-110.932 -110.932)" fill="url(#linear-gradient-2)"/>
  <path id="Path_5" data-name="Path 5" d="M368.643,91.982a3.357,3.357,0,1,1-3.356-3.357,3.356,3.356,0,0,1,3.356,3.357Zm0,0" transform="translate(-322.385 -78.942)" fill="url(#linear-gradient-3)"/>
</svg>
