<svg xmlns="http://www.w3.org/2000/svg" xmlns:xlink="http://www.w3.org/1999/xlink" height="509.806" viewBox="0 0 508.619 509.806">
  <defs>
    <linearGradient id="linear-gradient" x1="0.078" y1="0.636" x2="1.009" y2="0.479" gradientUnits="objectBoundingBox">
      <stop offset="0" stop-color="#ffcb29"/>
      <stop offset="1" stop-color="#fefefe"/>
    </linearGradient>
    <radialGradient id="radial-gradient" cx="0.722" cy="0.463" r="0.628" gradientTransform="matrix(-0.044, -0.999, 0.957, -0.042, -0.113, 0.752)" gradientUnits="objectBoundingBox">
      <stop offset="0" stop-color="#fefefe"/>
      <stop offset="1" stop-color="#00afef"/>
    </radialGradient>
  </defs>
  <g id="Layer_x0020_1" transform="translate(141316.641 -44853.324)">
    <g id="_2794000330992" transform="translate(-141316.641 44853.324)">
      <g id="g399" transform="translate(0 0)">
        <path id="path191" d="M-13760.891,4729.856c7.836,16.1,10.991,32.552,5.253,50.126-5.4,16.549-17.625,31.193-27.893,45.02-11.916,16.052-22.045,31.8-26.384,51.649l-.448,2.051h-2.1c-17.428,0-35.656,6.968-51.819,12.927-18.328,6.761-38.9,14.579-58.736,13.057-18.691-1.426-33.062-10.862-44.839-24.737-12.9,12.432-27.554,20.507-46.041,20.491-17.416-.015-35.117-7.13-51.428-12.609a205.41,205.41,0,0,0-27.379-7.576,104.751,104.751,0,0,0-29.913-1.555l-2.08.209-.645-1.987c-5.379-16.582-17.634-31.753-28.319-45.307-12.1-15.347-25.878-32.49-30.571-51.825-4.42-18.233.116-34.8,9.677-50.289-15.809-8.411-28.021-19.882-33.723-37.456-2.675-8.252-3.654-16.919-3.975-25.538-.355-9.083,0-18.182.1-27.267.212-19.994-.859-38.689-9.021-57.3l-.831-1.924,1.7-1.233c14.1-10.237,24.753-26.594,34.331-40.932,10.861-16.246,22.894-34.653,39.845-45.1,15.876-9.789,33.2-10.623,50.811-6.329,3.127-17.638,10.262-32.795,25.207-43.641,14.1-10.219,32.6-14.866,49.019-20.024,19.082-5.978,36.527-12.784,51.716-26.291l1.567-1.394,1.7,1.235c14.1,10.237,32.937,15.315,49.535,19.993,18.807,5.3,40.018,11.07,55.188,23.952,14.3,12.144,20.364,28.226,21.726,46.378a77.948,77.948,0,0,1,27.127.528,57.724,57.724,0,0,1,22.168,9.967c14.065,10.237,24.205,26.4,34.188,40.435,11.583,16.295,23.441,30.792,40.982,41.061l1.811,1.057-.658,1.989c-2.659,8.185-3.7,16.885-4.067,25.471-.4,9.26-.016,18.566.354,27.827.768,19.53,1.841,41.494-5.721,59.9-7.126,17.35-20.54,28.1-37.395,34.99Z" transform="translate(14222.014 -4395.072)" fill="#fefefe" fill-rule="evenodd"/>
        <path id="path193" d="M-13969.517,4396.438c41.861,30.407,121.964,15.78,125.564,91.22,71.9-11.9,70.9,59.2,125.574,91.237-15.989,49.2,22.669,120.875-47.963,147.613,33.548,64.708-34.4,85.71-47.963,147.613-51.754,0-107.962,58.922-155.213,0-51.168,51.891-92.15-6.232-155.208,0-15.987-49.2-89.391-84.459-47.961-147.613-65.175-32.634-22.557-89.57-47.967-147.613,41.867-30.407,52.708-111.119,125.57-91.237,10.894-72.06,78.211-49.134,125.57-91.22Z" transform="translate(14223.98 -4393.103)" fill="#00923f" fill-rule="evenodd"/>
        <circle id="circle195" cx="201.105" cy="201.105" r="201.105" transform="translate(53.354 64.645)" fill="url(#linear-gradient)"/>
        <circle id="circle197" cx="193.335" cy="193.335" r="193.335" transform="translate(61.126 71.919)" fill="#ed3237"/>
        <path id="path199" d="M-13811.182,4532.471c-7.387,100.032-90.871,178.917-192.8,178.917s-185.419-78.87-192.808-178.917c53.7-24.286,120.455-38.688,192.808-38.688S-13864.883,4508.185-13811.182,4532.471Z" transform="translate(14258.367 -4252.798)" fill="#fefefe" fill-rule="evenodd"/>
        <path id="polygon201" d="M-14122.707,4461.036l11.532,137.088,11.538-137.088-11.538-30.632Z" transform="translate(14365.154 -4344.147)" fill="#f1dc3f" fill-rule="evenodd"/>
        <path id="polygon203" d="M-14109.807,4467.237l-6.4,110.013,20.189-105.848-3.85-26.194Z" transform="translate(14374.513 -4322.809)" fill="#f1dc3f" fill-rule="evenodd"/>
        <path id="polygon205" d="M-14095.5,4470.479l-20.184,96.429,35.886-89.715-1.446-24.143Z" transform="translate(14375.271 -4311.507)" fill="#f1dc3f" fill-rule="evenodd"/>
        <path id="polygon207" d="M-14085.222,4475.657l-29.479,77.731,41.977-69.224,1.765-20.668Z" transform="translate(14376.685 -4296.449)" fill="#f1dc3f" fill-rule="evenodd"/>
        <path id="polygon209" d="M-14114.215,4467.237l6.4,110.013-20.342-105.848,4.006-26.194Z" transform="translate(14357.299 -4322.809)" fill="#f1dc3f" fill-rule="evenodd"/>
        <path id="polygon211" d="M-14119.223,4470.479l20.51,96.429-36.523-89.715,1.758-24.143Z" transform="translate(14347.083 -4311.507)" fill="#f1dc3f" fill-rule="evenodd"/>
        <path id="polygon213" d="M-14125.022,4475.657l29.8,77.731-42.459-69.224-1.758-20.668Z" transform="translate(14341.032 -4296.449)" fill="#f1dc3f" fill-rule="evenodd"/>
        <path id="polygon215" d="M-13992.268,4477.338l-116.789,67.653,126.4-46.027,22.434-23.5Z" transform="translate(14384.822 -4279.207)" fill="#f1dc3f" fill-rule="evenodd"/>
        <path id="polygon217" d="M-14008.244,4489.438l-100.287,39.667,102.367-25.086,21.631-14.532Z" transform="translate(14385.579 -4259.062)" fill="#f1dc3f" fill-rule="evenodd"/>
        <path id="polygon219" d="M-14014.623,4497.667l-94.042,21.1,94.521-3.623,20.832-11.5Z" transform="translate(14385.391 -4247.199)" fill="#f1dc3f" fill-rule="evenodd"/>
        <path id="polygon221" d="M-14027.573,4505.581l-81.221,4.742,78.817,10.382,19.066-6.938Z" transform="translate(14385.203 -4235.793)" fill="#f1dc3f" fill-rule="evenodd"/>
        <path id="polygon223" d="M-14015.131,4492.052l-94.846,51.635,85.392-62.9,24.993-7.159Z" transform="translate(14383.497 -4281.845)" fill="#f1dc3f" fill-rule="evenodd"/>
        <path id="polygon225" d="M-14033.51,4489.977l-77.055,59.1,64.557-71.18,22.11-8.507Z" transform="translate(14382.646 -4287.955)" fill="#f1dc3f" fill-rule="evenodd"/>
        <path id="polygon227" d="M-14054.839,4487.6l-56.712,60.045,43.9-68.248,17.623-10.22Z" transform="translate(14381.231 -4288.258)" fill="#f1dc3f" fill-rule="evenodd"/>
        <path id="polygon229" d="M-14001.293,4595.524l-110.061-78.885,95.165,97.131,30.275,10.542Z" transform="translate(14381.513 -4219.856)" fill="#f1dc3f" fill-rule="evenodd"/>
        <path id="polygon231" d="M-14034.327,4593.542l-78.34-75.617,66.327,83.77,22.105,13.729Z" transform="translate(14379.621 -4218.001)" fill="#f1dc3f" fill-rule="evenodd"/>
        <path id="polygon233" d="M-14054.138,4595.861l-59.118-77.812,44.056,85.886,19.068,14.259Z" transform="translate(14378.769 -4217.821)" fill="#f1dc3f" fill-rule="evenodd"/>
        <path id="polygon235" d="M-14075.124,4591.52l-39.247-73.07,24.831,77.378,14.416,14.645Z" transform="translate(14377.161 -4217.246)" fill="#f1dc3f" fill-rule="evenodd"/>
        <path id="polygon237" d="M-14023.955,4580.644l-86.353-65.554,92.284,51.923,16.982,19.945Z" transform="translate(14383.027 -4222.089)" fill="#f1dc3f" fill-rule="evenodd"/>
        <path id="polygon239" d="M-14025.073,4560.232l-85.234-45.785,90.521,28.963,16.979,16.773Z" transform="translate(14383.027 -4223.015)" fill="#f1dc3f" fill-rule="evenodd"/>
        <path id="polygon241" d="M-14032.891,4539.7l-77.217-26.467,78.981,11.1,16.655,11.872Z" transform="translate(14383.313 -4224.766)" fill="#f1dc3f" fill-rule="evenodd"/>
        <path id="polygon243" d="M-14166.146,4498.466l125.44,49-115.348-70.408-31.881-2.645Z" transform="translate(14271.133 -4280.711)" fill="#f1dc3f" fill-rule="evenodd"/>
        <path id="polygon245" d="M-14156.207,4491.764l93.716,53.8-84.106-64.675-24.67-7.8Z" transform="translate(14295.16 -4282.631)" fill="#f1dc3f" fill-rule="evenodd"/>
        <path id="polygon247" d="M-14151.833,4489.832l75.935,60.685-63.12-72.285-21.945-9.051Z" transform="translate(14310.01 -4288.258)" fill="#f1dc3f" fill-rule="evenodd"/>
        <path id="polygon249" d="M-14145.188,4487.669l55.43,61.053-42.454-68.807-17.465-10.624Z" transform="translate(14326.275 -4288.098)" fill="#f1dc3f" fill-rule="evenodd"/>
        <path id="polygon251" d="M-14154.966,4489.134l99.485,41.974-101.893-27.282-21.311-15.076Z" transform="translate(14284.472 -4260.054)" fill="#f1dc3f" fill-rule="evenodd"/>
        <path id="polygon253" d="M-14153.8,4497.273l93.717,23.085-94.678-5.463-20.506-12Z" transform="translate(14289.389 -4247.767)" fill="#f1dc3f" fill-rule="evenodd"/>
        <path id="polygon255" d="M-14151.266,4505.359l81.222,6.344-79.3,8.972-18.907-7.355Z" transform="translate(14299.51 -4236.115)" fill="#f1dc3f" fill-rule="evenodd"/>
        <path id="polygon257" d="M-14144.639,4621.736l86.514-105.255-102.852,88.417-12.98,30.054Z" transform="translate(14291.277 -4220.083)" fill="#f1dc3f" fill-rule="evenodd"/>
        <path id="polygon259" d="M-14147.426,4588.136l80.426-73.085-87.313,60.157-15.379,21.339Z" transform="translate(14297.431 -4222.145)" fill="#f1dc3f" fill-rule="evenodd"/>
        <path id="polygon261" d="M-14147.781,4567.844l80.906-53.43-87.474,37.264-15.541,18.216Z" transform="translate(14297.146 -4223.063)" fill="#f1dc3f" fill-rule="evenodd"/>
        <path id="polygon263" d="M-14147.658,4546.748l74.5-33.515-77.379,18.487-15.54,13.331Z" transform="translate(14302.627 -4224.766)" fill="#f1dc3f" fill-rule="evenodd"/>
        <path id="polygon265" d="M-14149.516,4600.056l71.447-82.393-58.791,89.555-20.824,15.634Z" transform="translate(14314.742 -4218.381)" fill="#f1dc3f" fill-rule="evenodd"/>
        <path id="polygon267" d="M-14144.674,4600.728l52.066-82.987-36.209,89.812-17.775,15.891Z" transform="translate(14330.722 -4218.268)" fill="#f1dc3f" fill-rule="evenodd"/>
        <path id="polygon269" d="M-14136.684,4594.6l32.684-76.546-17.946,79.67-12.979,15.876Z" transform="translate(14345.003 -4217.821)" fill="#f1dc3f" fill-rule="evenodd"/>
        <circle id="circle271" cx="94.024" cy="94.024" r="94.024" transform="translate(158.671 170.172)" fill="url(#radial-gradient)"/>
        <path id="path273" d="M-13963.011,4560.22q0,39.913-28.73,67.735-28.66,27.85-68.646,27.828-40.006,0-68.646-27.828-28.664-27.854-28.663-67.735,0-39.844,28.762-67.895,28.57-27.755,68.546-27.732,39.965,0,68.517,27.732,28.866,28.044,28.855,67.895Zm-5.336,0q0-36.982-28.551-64.516l-3.218,5.5-15.434-4.1-11.819,3.315-5.711,15.414-12.623,3.315-1.714,13.024-5.19-2.419-4.1,11.038,3.681,19.93-4.484,8.506-8.621.37,2.088,11.421a198.784,198.784,0,0,1-23.25-15.923l-15.007-1.41c-1.682-.849-4.375-2.051-8.107-3.588a197.386,197.386,0,0,1-17.238,18.935l-.42,7.321-3.314,6.713-3.687-.3-12.51-25.135.385-7.322-5.194-.3v.208q0,37.656,27.25,64.114,26.919,26.12,64.723,26.13,37.764,0,64.9-26.291,27.133-26.265,27.145-63.939Zm-59.291-36.029-5.02,3.073h-4.1l4.1-6.9,2.8.513,2.229,3.317Zm-7.517,7.592a125.5,125.5,0,0,1-10.425,17.847l-2.407.479q5.191-14.3,10.012-19.929l2.8,1.6Zm16.31,42.151-2.6,6.632-6.295-.625,8.892-6.022Zm5.127,15.827-3.895,1.506,2.706-5.72,1.2,4.214Zm29.22,13.714-3.074,7q-7.039,4.518-14.322,9.531l-3.206,7.289-2.9,2.115-2.32-3.524c2.286-5,4.579-8.62,6.935-10.8l6.792-3.011a39.788,39.788,0,0,1,5.818-10.525l2.9,4.407,3.383-2.5Zm-53.477-16.309-7.833-4.406,7.415-2.292Zm-12.13-3.316-2.9,4.1-5.189-7.017,8.107,2.9Zm37.776,25.744q-1.493,9.445-13.44,21.131l-4.905.417-16.763-6.906-15.821.787c.061-3.653-1.395-8.01-4.494-13.026.993-4.662,3.708-9.548,8.112-14.594,9.466,1.058,17.508-.3,24.025-4.1l7,5.719,4-10.638a62.156,62.156,0,0,0,12.239,21.226Zm-53.2-25.839-3.017,2.626-3.685-2.227,6.694-.415Zm44.367,51.489-2.187,2.8-6.636-.416,5.035-4.1Zm-88.236-40.66a59.775,59.775,0,0,1-12.237,8.891l-4.892-2.195,8.617-8.923Z" transform="translate(14314.721 -4294.869)" fill="#373435"/>
        <path id="path275" d="M-14117.582,4526.916l-.009.016c-.15-.08-.311-.161-.449-.24.157.064.316.144.458.209Z" transform="translate(14371.878 -4205.366)" fill="none" fill-rule="evenodd"/>
        <path id="path277" d="M-14139.989,4546.129c-.353.177-.687.354-1.026.529l-.048-.031C-14140.711,4546.45-14140.355,4546.29-14139.989,4546.129Z" transform="translate(14338.697 -4177.351)" fill="none" fill-rule="evenodd"/>
        <path id="path279" d="M-13968.926,4564.067l11.116,8.509-98.075,22.668-.067,1.186-2.529-.593-2.53.593-.063-1.186-98.079-22.668,11.116-8.509,43.572-44.92.647-.24a37.814,37.814,0,0,1,6.07-1.538,61.361,61.361,0,0,1,15.313-.754,58.362,58.362,0,0,1,17.508,4.454,69.027,69.027,0,0,1,6.439,2.964c2.088-1.106,4.332-2.1,6.458-2.964a58.711,58.711,0,0,1,17.5-4.438,61.27,61.27,0,0,1,15.316.753,38.048,38.048,0,0,1,6.072,1.539l.643.239,43.57,44.921Z" transform="translate(14312.622 -4220.138)" fill="#4b4b4d" fill-rule="evenodd"/>
        <path id="path281" d="M-14152.623,4561.627s30.473,1.762,48.545,7.048a307.377,307.377,0,0,1,36.158,13.57v-56.568s-12.08-6.952-24.176-7.833c-12.074-.881-20.119,2.114-20.119,2.114l-40.424,41.684Z" transform="translate(14322.012 -4218.354)" fill="#fffbd4" fill-rule="evenodd"/>
        <path id="path283" d="M-14156.3,4542.316l7.723-5.912s20.52-.175,38.286,4.5c17.765,4.662,47.741,16.742,47.741,16.742l-.3,6.264Z" transform="translate(14316.724 -4191.369)" fill="#dad7be" fill-rule="evenodd"/>
        <path id="path285" d="M-14033.262,4561.627s-30.468,1.762-48.544,7.048a306.9,306.9,0,0,0-36.155,13.57v-56.568s12.075-6.952,24.176-7.833c12.078-.881,20.12,2.114,20.12,2.114l40.419,41.684Z" transform="translate(14371.985 -4218.354)" fill="#fffbd4" fill-rule="evenodd"/>
        <path id="path287" d="M-14024.183,4542.316l-7.71-5.912s-20.522-.175-38.286,4.5c-17.769,4.662-47.748,16.742-47.748,16.742l.311,6.264Z" transform="translate(14372.047 -4191.369)" fill="#d8d5bd" fill-rule="evenodd"/>
        <path id="path289" d="M-14081.222,4518.075c-9.535,2.293-20.86,6.474-35.589,14.244l-.109,1.779a138.079,138.079,0,0,1,37.1-14.435l-1.408-1.571Z" transform="translate(14373.494 -4217.785)" fill="#373435" fill-rule="evenodd"/>
        <path id="path291" d="M-14072.525,4522.094c-11.316,1.65-24.834,5.64-44.315,15.923l-.11,1.764c16.518-9.116,31.686-14.033,45.915-16.02l-1.489-1.683Z" transform="translate(14373.447 -4212.015)" fill="#373435" fill-rule="evenodd"/>
        <path id="path293" d="M-14065.354,4525.382c-12.817.977-27.718,4.165-51.458,16.711l-.114,1.761c19.325-10.67,36.8-15.588,53.1-16.79l-1.521-1.7Z" transform="translate(14373.483 -4207.277)" fill="#373435" fill-rule="evenodd"/>
        <path id="path295" d="M-14057.079,4529.166c-14.82.625-31.338,2.916-59.7,16.983l-.112,1.778c22.5-11.663,42.647-16.469,61.361-17.03l-1.538-1.731Z" transform="translate(14373.541 -4201.8)" fill="#373435" fill-rule="evenodd"/>
        <path id="path297" d="M-14048.888,4532.942c-16.937.464-35.095,2.067-67.881,17.1l-.132,1.761c25.636-12.287,48.466-16.95,69.612-17.078l-1.6-1.8Z" transform="translate(14373.523 -4196.382)" fill="#373435" fill-rule="evenodd"/>
        <path id="path299" d="M-14132.567,4518.075c9.53,2.293,20.856,6.474,35.562,14.244l.112,1.779a138.142,138.142,0,0,0-37.087-14.435l1.413-1.571Z" transform="translate(14348.9 -4217.785)" fill="#373435" fill-rule="evenodd"/>
        <path id="path301" d="M-14136.065,4522.094c11.311,1.65,24.83,5.64,44.308,15.923l.119,1.764c-16.521-9.116-31.688-14.033-45.92-16.02l1.493-1.683Z" transform="translate(14343.748 -4212.015)" fill="#373435" fill-rule="evenodd"/>
        <path id="path303" d="M-14139,4525.382c12.812.977,27.717,4.165,51.455,16.711l.112,1.761c-19.32-10.67-36.8-15.588-53.095-16.79l1.521-1.7Z" transform="translate(14339.471 -4207.277)" fill="#373435" fill-rule="evenodd"/>
        <path id="path305" d="M-14142.395,4529.166c14.82.625,31.34,2.916,59.7,16.983l.109,1.778c-22.494-11.663-42.648-16.469-61.365-17.03l1.547-1.731Z" transform="translate(14334.534 -4201.8)" fill="#373435" fill-rule="evenodd"/>
        <path id="path307" d="M-14145.723,4532.942c16.939.464,35.088,2.067,67.9,17.1l.131,1.761c-25.635-12.287-48.463-16.95-69.611-17.078l1.6-1.8Z" transform="translate(14329.693 -4196.382)" fill="#373435" fill-rule="evenodd"/>
        <path id="polygon309" d="M-13945.551,4543.145l-108.291,28.147-108.3-28.147,3.368-3.092,104.935,25.841,104.77-25.841Z" transform="translate(14308.305 -4186.11)" fill="#373435" fill-rule="evenodd"/>
        <path id="polygon311" d="M-14104.08,4592.666l68.734-142.679,6.082,13.762-59.915,135.756.159,10.654-8.33,15.476-4.161-1.907-17.946,31.978-9.614,5.416,14.416-43.368-3.847-1.762,5.614-16.229Z" transform="translate(14355.975 -4315.924)" fill="#fefefe" fill-rule="evenodd"/>
        <path id="polygon313" d="M-14113.3,4597.674l8.655-6.986,66.486-138.176,3.525,7.61-59.758,135.2v10.559l-6.73,12.734-4.168-1.872-18.739,33.417-3.209,1.747,13.143-39.185-3.85-1.763Z" transform="translate(14358.627 -4312.283)" fill="#373435" fill-rule="evenodd"/>
        <g id="g317" transform="translate(63.655 74.674)">
          <path id="path315" d="M-14002.571,4425.66h1.563a4.878,4.878,0,0,1,2.854.916l.033.016.063.047.014.016.064.047.029.032.065.048.029.016.063.048.027.031h0l.064.064h0l.084.081a5.076,5.076,0,0,1,1.459,2.659l1.938.207a4.977,4.977,0,0,1,5.291-3.571l7.815.833a4.964,4.964,0,0,1,4.42,4.517l1.911.4a4.953,4.953,0,0,1,5.614-3l7.7,1.634a4.945,4.945,0,0,1,3.91,4.95l1.854.609a5,5,0,0,1,5.913-2.4l7.463,2.437a4.951,4.951,0,0,1,3.382,5.335l1.772.785a4.968,4.968,0,0,1,6.122-1.763l7.18,3.2a4.97,4.97,0,0,1,2.8,5.672l1.687.976a4.967,4.967,0,0,1,6.279-1.1l6.8,3.925a4.964,4.964,0,0,1,2.2,5.928l1.57,1.154a4.966,4.966,0,0,1,6.359-.448l6.362,4.613a4.98,4.98,0,0,1,1.572,6.121l1.455,1.3a4.984,4.984,0,0,1,6.374.208l5.839,5.254a4.956,4.956,0,0,1,.912,6.248l1.3,1.459a4.965,4.965,0,0,1,6.307.879l5.255,5.848a4.972,4.972,0,0,1,.261,6.313l1.149,1.57a4.958,4.958,0,0,1,6.183,1.538l4.617,6.361a4.982,4.982,0,0,1-.4,6.312l.973,1.7a4.971,4.971,0,0,1,5.993,2.163l3.931,6.81a4.99,4.99,0,0,1-1.062,6.232l.786,1.777a4.961,4.961,0,0,1,5.731,2.789l3.209,7.178a4.992,4.992,0,0,1-1.7,6.087l.591,1.858a4.98,4.98,0,0,1,5.419,3.364l2.437,7.482a4.984,4.984,0,0,1-2.345,5.878l.4,1.907a4.978,4.978,0,0,1,5.03,3.924l1.637,7.691a5,5,0,0,1-2.935,5.607l.213,1.938a4.99,4.99,0,0,1,4.593,4.421l.817,7.818a4.955,4.955,0,0,1-3.506,5.255v1.954a4.973,4.973,0,0,1,4.1,4.871v7.866a4.983,4.983,0,0,1-4.036,4.869l-.213,1.941a4.976,4.976,0,0,1,3.575,5.285l-.817,7.819a4.973,4.973,0,0,1-4.517,4.421l-.4,1.905a4.946,4.946,0,0,1,2.994,5.624l-1.631,7.69a4.979,4.979,0,0,1-4.952,3.924l-.61,1.843a5,5,0,0,1,2.407,5.912l-2.438,7.48a4.951,4.951,0,0,1-5.334,3.382l-.8,1.777a4.957,4.957,0,0,1,1.759,6.12l-3.2,7.177a4.969,4.969,0,0,1-5.671,2.8l-.973,1.7a4.992,4.992,0,0,1,1.114,6.279l-3.921,6.81a4.973,4.973,0,0,1-5.925,2.194l-1.141,1.571a4.981,4.981,0,0,1,.446,6.36l-4.633,6.36a4.955,4.955,0,0,1-6.115,1.57l-1.3,1.458a4.984,4.984,0,0,1-.207,6.376l-5.26,5.848a4.943,4.943,0,0,1-6.245.914l-1.46,1.3a4.964,4.964,0,0,1-.883,6.312l-5.848,5.254a4.976,4.976,0,0,1-6.309.273l-1.572,1.137a4.965,4.965,0,0,1-1.54,6.185l-6.362,4.613a4.954,4.954,0,0,1-6.311-.4l-1.7.977a4.962,4.962,0,0,1-2.16,5.991l-6.81,3.926a4.984,4.984,0,0,1-6.232-1.058l-1.778.8a4.967,4.967,0,0,1-2.78,5.736l-7.182,3.188a4.994,4.994,0,0,1-6.091-1.7l-1.844.608a4.962,4.962,0,0,1-3.382,5.4l-7.477,2.435a4.994,4.994,0,0,1-5.882-2.323l-1.906.4a4.969,4.969,0,0,1-3.906,5.03l-7.689,1.636a5.007,5.007,0,0,1-5.612-2.933l-1.937.207a4.973,4.973,0,0,1-4.418,4.6l-7.824.818a4.936,4.936,0,0,1-5.253-3.509h-1.956a4.949,4.949,0,0,1-4.866,4.1h-7.869a4.984,4.984,0,0,1-4.869-4.039l-1.94-.208a4.951,4.951,0,0,1-5.286,3.574l-7.817-.816a4.965,4.965,0,0,1-4.418-4.517l-1.909-.417a4.964,4.964,0,0,1-5.625,3l-7.686-1.635a4.941,4.941,0,0,1-3.912-4.949l-1.861-.594a4.989,4.989,0,0,1-5.906,2.4l-7.481-2.436a4.979,4.979,0,0,1-3.384-5.335l-1.772-.785a4.962,4.962,0,0,1-6.119,1.763l-7.183-3.2a4.966,4.966,0,0,1-2.8-5.655l-1.68-.978a4.977,4.977,0,0,1-6.281,1.124l-6.812-3.927a4.982,4.982,0,0,1-2.2-5.927l-1.569-1.154a4.965,4.965,0,0,1-6.358.448l-6.362-4.63a4.956,4.956,0,0,1-1.572-6.119l-1.452-1.3a5,5,0,0,1-6.383-.207l-5.83-5.255a4.955,4.955,0,0,1-.916-6.248l-1.3-1.441a4.969,4.969,0,0,1-6.308-.88l-5.258-5.847a4.967,4.967,0,0,1-.254-6.312l-1.152-1.572a4.959,4.959,0,0,1-6.185-1.537l-4.617-6.361a4.98,4.98,0,0,1,.4-6.311l-.978-1.682a4.974,4.974,0,0,1-5.989-2.178l-3.926-6.81a4.984,4.984,0,0,1,1.056-6.23l-.786-1.779a4.964,4.964,0,0,1-5.731-2.79l-3.207-7.177a4.987,4.987,0,0,1,1.7-6.086l-.588-1.86a4.972,4.972,0,0,1-5.419-3.364l-2.435-7.481a4.98,4.98,0,0,1,2.342-5.88l-.417-1.907a4.964,4.964,0,0,1-5.031-3.908l-1.632-7.688a4.959,4.959,0,0,1,2.933-5.592l-.214-1.939a4.968,4.968,0,0,1-4.595-4.422l-.817-7.818a4.944,4.944,0,0,1,3.508-5.253v-1.939a4.984,4.984,0,0,1-4.1-4.887v-7.865a4.993,4.993,0,0,1,4.038-4.87l.206-1.939a5,5,0,0,1-3.575-5.286l.813-7.818a5.008,5.008,0,0,1,4.522-4.421l.4-1.906a4.95,4.95,0,0,1-3-5.623l1.635-7.69a4.975,4.975,0,0,1,4.95-3.925l.593-1.859a4.97,4.97,0,0,1-2.39-5.912l2.437-7.48a4.952,4.952,0,0,1,5.332-3.381l.8-1.777a4.954,4.954,0,0,1-1.763-6.12l3.2-7.175a4.993,4.993,0,0,1,5.671-2.806l.983-1.682a4.956,4.956,0,0,1-1.123-6.279l3.919-6.808a4.983,4.983,0,0,1,5.931-2.2l1.139-1.57a4.986,4.986,0,0,1-.449-6.36l4.627-6.36a4.964,4.964,0,0,1,6.122-1.572l1.3-1.441a4.981,4.981,0,0,1,.213-6.376l5.253-5.847a4.948,4.948,0,0,1,6.248-.913l1.457-1.3a4.974,4.974,0,0,1-.125-5.045l.016-.032.031-.064.016-.032.034-.064.028-.048.029-.047.034-.064.014-.033.054-.064.056-.1h0l.063-.08.063-.08h0l.067-.079h0a5.886,5.886,0,0,1,.456-.481l5.5-4.95.337-.3h0l.1-.08h0c.065-.048.119-.1.2-.145h0l.1-.062.016-.016a4.628,4.628,0,0,1,1.631-.77h.016l.216-.047h.009l.1-.016h.033l.112-.016h0l.1-.015h.018l.095-.016h.409a4.984,4.984,0,0,1,3.175,1.009l1.57-1.137a4.975,4.975,0,0,1,.271-4.839h0l.063-.1.032-.031.033-.064.029-.032.029-.064.033-.047.029-.048.034-.031.029-.049a5,5,0,0,1,.949-.9l5.522-4,.829-.609h0a5.389,5.389,0,0,1,1.1-.594h0a7.874,7.874,0,0,1,.795-.239h.021a.907.907,0,0,1,.207-.032h.033l.059-.016h.306l.109-.015h.432a4.967,4.967,0,0,1,3.249,1.33l1.685-.978a5.031,5.031,0,0,1,.852-4.886h0l.076-.08v-.016l.063-.063.029-.033.054-.048.029-.032.063-.063.016-.016.011-.016.036-.032.047-.049.079-.079a4.51,4.51,0,0,1,.819-.593l5.911-3.413.9-.513h0a4.978,4.978,0,0,1,2.1-.656h.8l.085.015h.027l.083.016h.029l.088.015h.009a4.932,4.932,0,0,1,2.993,1.667l1.783-.8a4.945,4.945,0,0,1,1.28-4.678h0l.081-.1h0l.078-.082.021-.016.059-.064.031-.033.063-.047.029-.032.036-.03.063-.048.08-.065h0l.1-.064.061-.047.033-.016.079-.064h0a4.317,4.317,0,0,1,.689-.37l6.012-2.675,1.168-.528h0c.078-.033.159-.064.235-.1a5.024,5.024,0,0,1,2.037-.32h.126l.112.016h.018a1.176,1.176,0,0,1,.242.031h0l.108.016h.021l.1.016h.017l.047.015.061.017h.031l.065.015.059.015.033.016.079.016h.033l.081.031h.031a4.886,4.886,0,0,1,2.6,1.907l1.841-.608v-.033h0a4.965,4.965,0,0,1,1.954-4.629h0l.1-.066.017-.016.063-.047.029-.016.065-.031.045-.033h0l.1-.064h0l.1-.064h0l.1-.047h0l.1-.048h0l.2-.1h.009c.18-.081.34-.143.532-.208l5.433-1.761,2.032-.659a4.95,4.95,0,0,1,2.771-.08h0a.99.99,0,0,1,.209.064l.047.015.067.016.039.017.054.015.056.015.054.016a2.027,2.027,0,0,1,.272.111l.1.048h0l.1.048a5,5,0,0,1,2.113,2.033l1.909-.4v-.034h0v-.239h0a4.992,4.992,0,0,1,2.3-4.1l.019-.016.085-.048.029-.016.061-.032.029-.031.063-.032.05-.032.031-.017.059-.032.038-.016.079-.033.1-.046h0l.094-.032h0a5.29,5.29,0,0,1,.847-.272l5.289-1.122,2.405-.513a4.884,4.884,0,0,1,2.991.3h0l.095.047h.02l.084.034.031.016.063.031.045.016.047.033.048.03.045.033c.083.048.159.1.242.144h0a4.974,4.974,0,0,1,1.894,2.259l1.938-.208v-.033h0a4.974,4.974,0,0,1,2.241-3.78h0c.145-.082.274-.161.42-.24h0l.093-.064h0l.1-.048.031-.016.063-.032.063-.032.029-.016.083-.032h.014l.1-.032.1-.032h0l.112-.033c.061-.014.144-.048.209-.064a6.923,6.923,0,0,1,.774-.144l5.731-.592,2.084-.225a4.956,4.956,0,0,1,3.045.672h.012c.063.032.119.081.177.113l.034.016.056.046.038.033h0l.084.063h.011l.083.064h0l.083.064h0l.061.048.034.016a4.892,4.892,0,0,1,1.552,2.356h1.951v-.048l.021-.08v-.033l.014-.064.021-.048.028-.1v-.016l.029-.1v-.032a1.8,1.8,0,0,1,.115-.32h0c.031-.079.063-.144.1-.225v-.015c.029-.065.063-.128.1-.208v-.017a5.043,5.043,0,0,1,2.643-2.449h.014l.1-.032h.009l.1-.032h0l.085-.033.065-.017h.016l.078-.016h.019l.063-.016.059-.015h0l.1-.033h0l.11-.03h0l.114-.015a4.135,4.135,0,0,1,.9-.082h6.29Zm-118.621,48.175a4.894,4.894,0,0,1,.707,1.81v.033l.014.064v.128l.018.08v.111l.016.1h0v.978l-.016.1-.018.112h0l-.014.1v.016l-.016.1h0l-.019.081v.015l-.011.1v.033l-.034.08v.031l-.013.065-.019.047-.016.064v.032a4.027,4.027,0,0,1-.235.577v.016l-.054.08v.015l-.043.081-.016.015-.034.08-.009.032-.038.065-.009.031-.054.081-.059.08v.015l-.019.016a2.088,2.088,0,0,1-.225.3l-.033.048-.029.048-.029.032-.047.047-.047.048-.034.033-.045.064-.033.032-.043.048-.034.032a2.2,2.2,0,0,1-.18.159h0l-2.3,2.083-3.543,3.189c-.1.08-.176.143-.257.209h-.013l-.083.063-.017.016-.061.046-.031.016-.067.048-.014.016-.061.048-.036.016-.058.047-.1.063h0l-.1.066h0l-.094.048h0l-.052.031-.043.031-.045.032-.065.032-.049.032-.063.033-.045.015-.064.032-.045.016-.063.016-.062.015h0l-.095.032-.112.032h0l-.1.031h-.021l-.1.033h0l-.062.016h-.045l-.063.017h-.031l-.062.016h-.045l-.065.015-.062.016h-.059l-.1.016h-.011l-.1.016h-1.075l-.1-.016h0l-.1-.016h0l-.1-.016h-.013l-.086-.015h-.026l-.063-.016-.049-.017-.065-.016-.045-.016-.062-.015h-.032c-.125-.032-.253-.081-.368-.112h-.013l-.1-.033h0l-.078-.032h-.034l-.076-.032h-.021l-.083-.032-.029-.016-.061-.032-.033-.015-.083-.033-.095-.046h0l-.1-.065h0l-.1-.047h0l-.061-.048-.031-.016-.061-.031-.033-.032-.063-.032-.033-.016-.083-.064h0l-.079-.063-.033-.016-.063-.064h0l-1.181,1.072a4.973,4.973,0,0,1-.18,6.409l-5.249,5.846a4.977,4.977,0,0,1-6.317.882l-1.066,1.186a4.979,4.979,0,0,1,.476,6.392l-4.612,6.36a4.956,4.956,0,0,1-6.181,1.538l-.947,1.3a4.97,4.97,0,0,1,1.156,6.313l-3.923,6.809a5,5,0,0,1-5.99,2.179l-.806,1.378a4.974,4.974,0,0,1,1.813,6.152l-3.2,7.177a4.969,4.969,0,0,1-5.737,2.787l-.658,1.458a4.949,4.949,0,0,1,2.437,5.93l-2.437,7.48a5,5,0,0,1-5.412,3.38l-.506,1.523a4.947,4.947,0,0,1,3.05,5.64l-1.635,7.689a4.974,4.974,0,0,1-5.028,3.924l-.344,1.571a4.956,4.956,0,0,1,3.622,5.286l-.833,7.818a4.972,4.972,0,0,1-4.595,4.423l-.159,1.6a4.972,4.972,0,0,1,4.147,4.886v7.866a4.976,4.976,0,0,1-4.1,4.886v1.6a4.982,4.982,0,0,1,4.65,4.421l.834,7.817a4.987,4.987,0,0,1-3.575,5.287l.173,1.586a4.983,4.983,0,0,1,5.08,3.908l1.632,7.689a4.951,4.951,0,0,1-2.989,5.624l.335,1.568a5,5,0,0,1,5.467,3.365l2.432,7.482a4.976,4.976,0,0,1-2.392,5.912l.5,1.521a4.943,4.943,0,0,1,5.776,2.772l3.213,7.177a4.969,4.969,0,0,1-1.77,6.119l.66,1.46a4.952,4.952,0,0,1,6.037,2.147l3.926,6.807a4.968,4.968,0,0,1-1.121,6.28l.8,1.394a4.957,4.957,0,0,1,6.232,1.506l4.631,6.36a4.983,4.983,0,0,1-.445,6.36l.948,1.3a4.97,4.97,0,0,1,6.355.85l5.253,5.848a4.971,4.971,0,0,1,.213,6.377l1.076,1.184a4.973,4.973,0,0,1,6.407.175l5.848,5.257a4.973,4.973,0,0,1,.878,6.311l1.188,1.074a4.96,4.96,0,0,1,6.4-.5l6.355,4.613a4.961,4.961,0,0,1,1.546,6.183l1.293.945a4.989,4.989,0,0,1,6.315-1.154l6.807,3.926a4.97,4.97,0,0,1,2.161,5.993l1.395.8a4.97,4.97,0,0,1,6.15-1.81l7.176,3.2a4.967,4.967,0,0,1,2.791,5.735l1.458.657a4.946,4.946,0,0,1,5.922-2.434l7.483,2.434a4.98,4.98,0,0,1,3.366,5.417l1.522.5a4.966,4.966,0,0,1,5.635-3.044l7.7,1.633a4.942,4.942,0,0,1,3.9,5.031l1.569.336a4.967,4.967,0,0,1,5.289-3.619l7.817.816a4.98,4.98,0,0,1,4.425,4.6l1.585.16a4.975,4.975,0,0,1,4.887-4.148h7.865a4.952,4.952,0,0,1,4.871,4.1h1.6a4.982,4.982,0,0,1,4.419-4.647l7.822-.816a4.973,4.973,0,0,1,5.282,3.573l1.59-.177a4.978,4.978,0,0,1,3.905-5.078l7.7-1.634a4.989,4.989,0,0,1,5.619,3l1.577-.321a4.972,4.972,0,0,1,3.361-5.462l7.479-2.437a4.971,4.971,0,0,1,5.913,2.4l1.519-.5a4.976,4.976,0,0,1,2.771-5.784l7.18-3.2a4.979,4.979,0,0,1,6.119,1.763l1.46-.657a4.976,4.976,0,0,1,2.16-6.041l6.81-3.925a4.975,4.975,0,0,1,6.277,1.122l1.392-.8a4.958,4.958,0,0,1,1.507-6.232l6.362-4.63a4.991,4.991,0,0,1,6.362.449l1.3-.946a4.988,4.988,0,0,1,.847-6.361l5.846-5.253a4.969,4.969,0,0,1,6.376-.208l1.19-1.074a4.971,4.971,0,0,1,.173-6.407l5.257-5.847a4.964,4.964,0,0,1,6.307-.882l1.077-1.186a4.99,4.99,0,0,1-.5-6.392l4.628-6.36a4.979,4.979,0,0,1,6.183-1.539l.95-1.3a4.961,4.961,0,0,1-1.156-6.312l3.923-6.809a4.971,4.971,0,0,1,5.994-2.164l.8-1.394a4.976,4.976,0,0,1-1.819-6.15l3.214-7.177a4.979,4.979,0,0,1,5.731-2.79l.653-1.458a4.949,4.949,0,0,1-2.43-5.927l2.43-7.481a4.968,4.968,0,0,1,5.4-3.366l.5-1.521a4.953,4.953,0,0,1-3.043-5.639l1.633-7.689a4.955,4.955,0,0,1,5.033-3.909l.316-1.569a4.972,4.972,0,0,1-3.62-5.287l.819-7.817a4.973,4.973,0,0,1,4.595-4.423l.176-1.586a4.971,4.971,0,0,1-4.15-4.886v-7.867a4.95,4.95,0,0,1,4.105-4.869v-1.6a4.964,4.964,0,0,1-4.649-4.419l-.833-7.819a4.983,4.983,0,0,1,3.573-5.288l-.173-1.6a4.962,4.962,0,0,1-5.08-3.91l-1.633-7.689a4.976,4.976,0,0,1,2.994-5.622l-.335-1.57a5,5,0,0,1-5.467-3.365l-2.437-7.481a4.976,4.976,0,0,1,2.408-5.911l-.5-1.522a4.956,4.956,0,0,1-5.785-2.771l-3.205-7.178a4.959,4.959,0,0,1,1.766-6.119l-.658-1.458a4.973,4.973,0,0,1-6.036-2.148l-3.933-6.807a4.989,4.989,0,0,1,1.125-6.28l-.8-1.378a4.958,4.958,0,0,1-6.234-1.5l-4.63-6.361a4.984,4.984,0,0,1,.448-6.361l-.945-1.3a4.978,4.978,0,0,1-6.362-.849l-5.253-5.847a4.966,4.966,0,0,1-.209-6.377l-1.075-1.185a4.977,4.977,0,0,1-6.412-.175l-5.843-5.255a4.977,4.977,0,0,1-.888-6.312l-1.181-1.072a4.977,4.977,0,0,1-6.392.5l-6.365-4.63a4.961,4.961,0,0,1-1.536-6.183l-1.3-.945a4.963,4.963,0,0,1-6.312,1.154l-6.808-3.927a4.963,4.963,0,0,1-2.16-5.992l-1.393-.8a4.975,4.975,0,0,1-6.153,1.81l-7.175-3.188a4.964,4.964,0,0,1-2.79-5.735l-1.459-.657a4.957,4.957,0,0,1-5.925,2.435l-7.483-2.435a4.971,4.971,0,0,1-3.361-5.416l-1.522-.5a4.987,4.987,0,0,1-5.64,3.061l-7.689-1.636a4.95,4.95,0,0,1-3.907-5.03l-1.574-.335a4.959,4.959,0,0,1-5.289,3.619l-7.82-.815a4.977,4.977,0,0,1-4.415-4.6l-1.59-.176c-.047.256-.114.513-.173.754h0l-.034.095v.016l-.033.08-.014.049-.018.063-.012.048-.033.064-.014.033-.031.063h0l-.052.1h0l-.043.1h0l-.064.1v.015l-.048.1-.014.032-.049.063-.014.032-.047.065-.016.017-.063.1h0a2.509,2.509,0,0,1-.206.288h0a2.2,2.2,0,0,1-.229.273h-.014l-.064.064-.029.031-.065.065-.009.015-.086.08h0l-.076.08h0a3.331,3.331,0,0,1-.278.224l-.076.065-.021.015h-.014l-.083.065h0l-.1.065-.013.016-.083.047-.029.016-.083.047h0l-.084.049-.028.017-.048.03-.062.033h0l-.088.047h-.009l-.092.048h0l-.1.048-.062.032-.034.016h-.029l-.083.031h-.016l-.061.016-.062.033-.029.016-.1.031h-.031l-.1.032h-.013l-.1.033-.031.016-.1.015h-.031l-.114.032h0l-.112.033h-.045l-.081.016h-.033l-.093.015h-.029l-.1.017h-.029l-.083.016h-.05l-.1.016h-.016c-.13,0-.254.016-.386.016h-7.845a2.088,2.088,0,0,1-.314-.016h-.146l-.077-.016h-.038l-.094-.016h-.034l-.081-.017h0l-.092-.015h-.016l-.114-.016h0l-.112-.033h0l-.1-.032h-.065l-.083-.015-.062-.016-.048-.016-.047-.017-.076-.03-.034-.016-.078-.033-.047-.016-.083-.032h-.029l-.119-.048h0l-.1-.033h0c-.062-.032-.14-.063-.207-.1l-.045-.031-.047-.033-.047-.031-.045-.032-.048-.032-.067-.033-.031-.017-.1-.063h0l-.1-.063h-.013l-.021-.016-.1-.065h0l-.092-.064h0l-.016-.016-.083-.063h0l-.061-.063-.048-.032-.031-.032-.031-.033-.045-.048-.034-.031-.061-.048-.036-.032-.028-.033-.045-.047h0l-.065-.065h0l-.083-.08h0l-.063-.079-.013-.014-.063-.066h0l-.062-.065-.019-.03-.045-.065-.031-.031-.045-.064-.018-.032-.045-.064-.019-.016-.058-.079-.048-.082h0l-.062-.1h0l-.067-.1c-.062-.128-.128-.24-.19-.368v-.018l-.032-.078-.016-.032-.029-.081h0a2.424,2.424,0,0,1-.114-.3h0l-.029-.1-.033-.1h0l-.014-.1-.016-.031-.016-.082v-.031l-.019-.1h0l-.014-.1v-.015l-.016-.1h-1.6a5.367,5.367,0,0,1-.178,1.073v.032l-.029.08v.031l-.033.1-.029.095h0l-.029.1h0l-.054.1v.016l-.029.1h0l-.031.066-.016.047-.029.049-.034.063-.013.047-.034.064-.016.031-.047.081-.014.015-.045.081-.018.015v.016l-.045.08h0l-.063.1h0l-.065.079v.017l-.058.081v.015l-.034.048-.033.047-.032.033-.045.064-.031.048-.033.03-.031.033-.043.065-.034.032-.049.047-.014.033-.016.015-.062.064h0l-.081.08h0l-.016.016-.083.064-.059.063h0l-.048.032-.033.032-.029.031-.067.049-.033.016-.059.047-.034.032-.047.032-.062.032-.029.032a.524.524,0,0,0-.155.112l-.1.064h0l-.1.064-.1.048h-.014l-.067.032-.042.033-.055.031-.047.031-.059.033-.033.015-.063.033-.028.016-.084.033h0l-.094.032h0l-.095.032-.114.032h0l-.1.032h-.012l-.1.032h0l-.065.016-.047.016-.047.015-.079.016-.029.016-.1.016h-.029l-.1.016h-.033l-.1.015h-.019l-.109.016h-.021l-.119.016-3.271.336-4.535.48c-.114.016-.208.016-.318.033h-.546l-.1-.016h0l-.114-.016h-.016l-.1-.016h-.05l-.1-.015h-.016l-.076-.016-.062-.017-.088-.016h-.009a1.109,1.109,0,0,1-.229-.063h0l-.112-.033h-.018l-.092-.031h0c-.063-.031-.146-.047-.209-.08l-.034-.015-.1-.033h0l-.11-.048h0l-.1-.031-.031-.016-.083-.033-.012-.016c-.114-.047-.213-.113-.3-.16h-.014l-.1-.048h-.013l-.083-.064-.029-.016-.063-.047-.047-.032-.045-.032-.034-.033-.061-.047-.031-.015-.047-.047-.047-.033h0l-.083-.064h0l-.079-.064h0l-.083-.064-.018-.016-.029-.032-.048-.049-.029-.031-.064-.064-.034-.016-.062-.064-.031-.033-.045-.047-.032-.032-.031-.048-.047-.047-.016-.032-.047-.064h0l-.061-.1h0l-.063-.08v-.015l-.062-.082h0l-.045-.063-.019-.031a.7.7,0,0,0-.1-.161l-.016-.033-.047-.079v-.015l-.05-.081-.013-.017-.034-.079-.045-.1h0l-.047-.1c-.034-.064-.047-.112-.081-.175l-.011-.033-.034-.08-.014-.033-.033-.079-.016-.033-.031-.08v-.031l-.029-.081-.016-.047-.032-.063h0l-1.588.159a4.991,4.991,0,0,1-.047.978v.014a2.958,2.958,0,0,1-.083.416l-.029.113h0l-.031.1-.031.08-.021.048-.011.064-.021.032-.024.1v.016l-.034.081-.018.032-.031.063-.012.033-.033.064-.019.048-.031.063h0l-.045.1h0l-.047.1h0l-.048.1h0l-.033.064-.029.047-.029.048-.033.047-.029.048-.029.063-.034.033-.031.063-.031.033-.031.048-.036.048-.029.031-.043.064h0l-.067.08h0l-.062.1h0l-.061.081-.016.016-.029.031-.045.049h0l-.065.064h-.016l-.047.063-.029.016-.065.063-.016.017-.062.064-.029.031-.047.048-.029.032-.05.032h0l-.081.064h0l-.1.065h0l-.083.065-.083.062-.014.016c-.062.032-.112.083-.175.114h-.016l-.062.047-.032.014-.062.033-.045.033-.047.033-.048.031-.062.032-.016.017c-.061.031-.117.063-.178.1l-.094.047h-.014l-.1.031h0l-.058.017-.048.032-.049.015-.081.033-.031.016-.081.032-.036.016-.1.033h-.014c-.112.03-.237.063-.368.1l-3.764.8-3.912.833a2.831,2.831,0,0,0-.314.065h-.029l-.062.016h-.178l-.085.015h-.71c-.065,0-.15-.015-.214-.015h-.016a.977.977,0,0,1-.222-.033h0l-.115-.032h0l-.112-.016h0l-.112-.032h0l-.1-.032h-.031l-.1-.032h-.014l-.1-.032h-.033l-.095-.034h-.018a.842.842,0,0,1-.188-.079h-.036l-.09-.032h0c-.063-.033-.146-.065-.209-.1h-.021l-.1-.048-.016-.015-.083-.033-.031-.016-.062-.032-.029-.032-.048-.032-.045-.032-.064-.031-.029-.016h-.016l-.083-.064h0l-.1-.065h0l-.083-.064-.014-.016-.083-.064h0l-.063-.064-.016-.018-.047-.047-.047-.033-.045-.032-.032-.031-.062-.048-.016-.016-.061-.047h0l-.063-.064h0l-.083-.079h0l-.062-.081a.79.79,0,0,1-.126-.144l-.033-.032-.045-.064-.031-.033-.045-.063-.019-.016-.045-.063-.018-.032-.048-.065-.028-.032c-.029-.048-.063-.1-.1-.161l-.045-.1-.052-.066-.012-.03-.018-.016-.047-.08h0l-.05-.08v-.017l-.024-.079-.021-.033-.033-.079h0l-.029-.1-.014-.016-.031-.08h0l-1.577.337a4.972,4.972,0,0,1-.062,1.826v.033l-.014.08v.033l-.016.063-.016.048-.012.063-.02.047c-.032.1-.063.176-.1.273l-.029.1h0l-.032.1c-.031.063-.045.112-.078.176l-.014.032-.033.064-.029.048-.016.034-.032.063-.016.033-.029.064-.018.03-.029.066-.033.049v.015l-.05.079-.062.1h0l-.057.08h0l-.033.047-.034.048h0l-.045.063h0l-.047.065-.016.031-.034.048-.047.048-.029.031-.031.048-.045.048-.018.016-.063.065-.062.062h0l-.086.083h0l-.076.079h-.021l-.062.064-.014.016-.062.049h0l-.062.063-.019.016-.059.048-.033.032-.047.032-.045.032-.048.033-.062.032-.029.032-.083.048-.014.016h-.018l-.095.063-.114.064-.079.048h0l-.049.033-.083.03h0l-.1.048-.029.015-.083.032-.031.018-.1.032h-.012c-.116.047-.247.1-.356.127l-4.391,1.426-3.093,1.01c-.1.032-.209.064-.3.1h-.031l-.086.017h-.029l-.083.016h-.026l-.1.016h0l-.092.014-.063.016h-.061l-.112.018h0l-.112.014h-.018l-.1.015h-.656a1.126,1.126,0,0,1-.222-.015h0l-.112-.014h-.031l-.1-.018h-.031l-.081-.016h-.045l-.065-.014-.036-.016-.058-.016-.045-.017-.086-.016h-.033a1.083,1.083,0,0,1-.205-.063h-.013l-.1-.034h0l-.095-.03h0l-.083-.033-.013-.015-.063-.016-.062-.031-.052-.016-.059-.032-.049-.016-.045-.034-.065-.031h-.019l-.076-.032h0l-.094-.047h0l-.1-.048-.078-.047h-.019l-.062-.048-.029-.015-.067-.048-.011-.016-.062-.032-.047-.032-.031-.032-.052-.033-.062-.047h0l-.079-.064-.033-.033-.063-.046-.076-.066h0l-.083-.064c-.047-.047-.1-.1-.144-.144h-.019l-.062-.065-.027-.032-.049-.063-.034-.033-.061-.063-.016-.032-.047-.065-.029-.031c-.034-.048-.083-.1-.112-.144l-.065-.08h0l-.062-.08h0l-.029-.063-.033-.032-.045-.066-.019-.031-.029-.065-.029-.047-.033-.065-.014-.03-.033-.065-.021-.033-.029-.079h0l-1.516.5a4.8,4.8,0,0,1,.112,1.825v.146l-.016.079v.032l-.019.08v.031l-.014.081v.015l-.02.1h0l-.012.1v.015l-.031.1h0l-.034.1h0l-.031.1h0l-.033.063-.012.048-.029.063v.033l-.033.08-.018.031-.032.065-.016.032-.029.063v.017l-.033.08v.016l-.047.1v.015l-.048.1-.029.063-.016.032v.016l-.047.08h0l-.029.064-.018.032-.029.064-.016.032-.048.063v.017l-.047.064-.016.031-.047.063v.016a1.274,1.274,0,0,0-.133.162l-.056.08h0l-.063.079-.067.065-.016.015-.062.081h0l-.061.063-.017.016-.062.064-.014.016-.062.063-.034.033-.047.047-.029.033-.062.048-.034.016-.058.046-.095.064h0l-.1.065-.021.015-.08.065h-.019l-.029.033-.062.031-.047.033-.048.031-.045.032-.083.048h0c-.061.031-.144.08-.209.111h-.013a2.41,2.41,0,0,1-.229.112l-3.827,1.7-3.348,1.489-.1.048h0l-.1.032h-.016l-.1.032-.033.016-.061.032-.045.016-.047.016-.081.033-.029.015-.083.016-.034.016-.062.016h-.045l-.1.031h0l-.112.016h0l-.1.016h-.045l-.095.016h-.016l-.1.016h-.141c-.117,0-.243.016-.354.016h-.016a2.719,2.719,0,0,1-.359-.016h-.128l-.09-.016h-.018l-.112-.016h0l-.112-.016h0c-.083,0-.162-.031-.242-.031h0l-.093-.032h-.054l-.188-.048h-.018l-.095-.032-.031-.016-.063-.016-.047-.016-.062-.015-.029-.016-.065-.032-.033-.016h-.012l-.1-.031h-.016l-.1-.033h0l-.092-.048h-.016l-.081-.031h0l-.062-.033-.029-.016-.062-.03-.034-.016-.061-.033-.016-.017-.083-.047h0l-.083-.048-.034-.015a5.492,5.492,0,0,1-.494-.354v-.016a.971.971,0,0,1-.144-.128l-.031-.031-.061-.047v-.016a5.139,5.139,0,0,1-.71-.833l-1.453.657a5.185,5.185,0,0,1,.319,1.7v.575l-.019.08v.033l-.016.1v.016l-.014.1h0l-.018.1-.016.08v.031l-.014.064-.016.032-.018.063-.014.048-.016.047-.016.065-.019.047-.014.064-.016.064v.016l-.029.079v.017l-.033.1v.016l-.029.1h0l-.031.1v.015l-.031.1-.032.079-.016.032-.028.065-.019.047-.029.064-.02.032-.034.064-.009.032-.034.065-.033.033-.029.063h0l-.043.08v.017h0c-.054.079-.119.159-.166.24l-.014.032-.033.048-.029.047-.063.064v.015l-.062.065-.031.031-.045.065-.031.03-.052.066-.012.016-.062.064h0l-.065.064h0l-.076.08h0l-.083.063v.016l-.083.064h0l-.047.033-.048.032-.029.03-.062.048-.029.015-.062.048-.031.017-.1.064h0c-.061.047-.14.095-.207.143h0l-.112.064-3.7,2.132-3.105,1.794c-.1.047-.173.1-.274.143l-.029.016-.049.032-.063.031-.047.016-.062.032-.048.015-.062.033-.045.016-.062.033-.032.016h-.016l-.1.031h0c-.112.033-.222.064-.339.1l-.029.016-.083.016-.047.017-.062.015-.063.016-.059.016h-.033l-.1.016h0a1.248,1.248,0,0,0-.242.032h0a1.217,1.217,0,0,1-.238.016h-.608l-.112-.016h-.112l-.1-.015h-.061l-.063-.016h-.062l-.045-.016h-.065l-.062-.016-.063-.015-.031-.016-.081-.016h-.016a.9.9,0,0,1-.192-.064l-.1-.031h0l-.1-.033-.079-.031-.029-.016-.087-.033-.029-.016-.081-.033-.029-.015-.067-.032-.045-.016-.062-.031-.031-.016-.083-.033a4.223,4.223,0,0,1-.971-.641l-.083-.08a3.971,3.971,0,0,1-.527-.545l-1.4.8a4.677,4.677,0,0,1,.447,1.347l.014.11a2,2,0,0,1,.033.321v.542h0v.1h0v.111h0v.4l-.016.063v.112l-.018.065-.014.047-.016.065v.032l-.016.078h0l-.031.1v.015l-.029.1h0l-.034.1v.017l-.029.1h0l-.033.077v.016l-.029.1h0l-.036.1v.015l-.031.08-.009.032-.034.065-.02.031-.029.08v.016l-.048.1-.042.1h0l-.05.1h0l-.047.08v.016l-.045.08v.015l-.052.08-.012.032-.047.064-.033.032-.048.063-.013.015-.063.082h0l-.062.08v.016l-.065.079-.062.08h0l-.076.079h0l-.063.08h0l-.052.049-.031.033-.047.046-.029.033-.047.047-.048.032-.031.033-.061.047-.033.032-.079.064h0a1.219,1.219,0,0,1-.207.16h0l-2.266,1.633-4.1,2.98a1.625,1.625,0,0,1-.369.24h-.013l-.081.05-.047.03-.048.033-.047.032-.062.032-.05.032-.059.032h0l-.1.047h0l-.09.048h0l-.1.032h0l-.061.032-.033.016-.063.016-.059.015-.047.016-.083.016-.036.017-.076.031h-.031l-.085.016-.043.015h0l-.1.016h-.016l-.114.015h0l-.1.016h0l-.083.017h-.093l-.083.016h-.029l-.08.016h-1.28l-.079-.016h0l-.094-.016h0l-.112-.017h0l-.1-.03c-.063-.016-.131-.032-.188-.048h-.016l-.084-.032h-.031l-.078-.032h-.014c-.13-.047-.258-.1-.387-.144h0l-.1-.047a5.11,5.11,0,0,1-1.011-.593h0a1.584,1.584,0,0,1-.157-.127l-.014-.016-.062-.065-.018-.015-.086-.064h0l-.074-.079-1.3.944Zm-4.865-.143.095.032-.014.016v.031h0l-.018.033h0v.048h0l-.016.031v.048h0v.031l-.014.016v.033h0v.031h0v.032h0v.08h0v.032h0v.03h0v.032h0v.1h0v.095h0v.1h0v.1h0v.1h0v.08h0v.032h0v.031h0v.031h0v.033h0v.063h0v.031h0v.032h0v.017h0v.03h0l.014.033h0l.016.016v.016h0l.018.032h0l.014.016v.015h0l.016.034h0l.016.015v.031l.021.016h0l.011.031h0l.032.032h0l.031.033h0l.021.031h0l.016.017h.009l.021.016.011.016.021.016h0l.011.014h.021l.011.016.021.016.016.016.014.016.016.016.018.016h0l.029.016.034.016h.014l.016.015h0l.029.016h0l.033.016h0l.029.017h0l.034.016h0l.031.015h0l.029.016h0l.033.016h0l.029.016h.016l.014.016h.943l.063-.016h.029l.034-.016h0l.028-.016h0l.027-.016h0l.034-.015h0l.033-.016.063-.032h0l.029-.017h.016l.019-.016.016.048h0l.014.063v.017l.018.047v.016l.016.032h0a2.784,2.784,0,0,1,.126.722v.016a3.049,3.049,0,0,1-.078.849l-.019.063-.016.066h0a3.3,3.3,0,0,1-.123.384l-.034.047a.955.955,0,0,1-.078.16l-.034.05h0l-.033.064-.032.046h0a.268.268,0,0,1-.061.1l-.033.048h0l-.029.047h0l-.027.048h0l-.033.032-.021.016-.029.048h0l-.047.048h0l-.029.031h-.016l-.031.033h0l-.031.031h0l-.032.048h0l-.045.047h-.018a.567.567,0,0,1-.112.112h0l-4.148,3.733c-.085.064-.166.128-.237.191h0c-.067.033-.117.081-.18.113h0l-.063.033h-.013l-.048.031h0a1.426,1.426,0,0,1-.128.064h0l-.047.016-.019.014h0l-.049.034h-.014l-.045.032h0l-.031.016-.029.016h-.021a1.08,1.08,0,0,1-.192.063h-.012a.5.5,0,0,1-.146.033h0a.408.408,0,0,0-.14.031h0a3.046,3.046,0,0,1-1.6-.127l.494-.45a1.556,1.556,0,0,0,.117-2.2h0a1.554,1.554,0,0,0-2.2-.112l-.5.449-.014-.1v-.049h0v-.241h0v-.092h0v-.146h0v-.158h0v-.066h0v-.079h0l7.881-6.488Zm-7.854,6.263c0-.048.017-.1.017-.128h0a.288.288,0,0,1,.033-.128h0l-.061.29Zm.119-.5c.029-.066.045-.144.077-.209v-.016l.02-.049v-.015a2.158,2.158,0,0,1,.128-.271h0a.619.619,0,0,1,.081-.127h0l-.318.672Zm.494-.93a.8.8,0,0,0,.079-.1h0l.018-.016a1.586,1.586,0,0,1,.142-.161h0a.715.715,0,0,0,.117-.11l4.152-3.734a2.987,2.987,0,0,1,1.213-.671l.047-.016.029-.017h.02a.3.3,0,0,1,.131-.032h.029l.047-.015h1.17l-7.24,4.837Zm-6.969,8.955a.538.538,0,0,1,.036-.176h0v-.031c.009-.064.029-.112.043-.178a3.121,3.121,0,0,0-2.74.977l-3.734,4.15a3.076,3.076,0,0,0-.606,3.074l.444-.5a1.547,1.547,0,0,1,2.194-.112h0a1.548,1.548,0,0,1,.112,2.2l-.451.5a3.038,3.038,0,0,0,3-.929l3.734-4.148a3.064,3.064,0,0,0,.432-3.477l-.062.048-.033.016h0l-.029.016h0l-.033.016h0l-.027.016h0l-.031.015h0l-.034.016h0l-.029.016h0l-.031.016h0l-.031.015h-.047l-.029.016h-1.018l-.036-.016h0l-.029-.015h0l-.033-.016-.029-.016h0l-.027-.016h0l-.033-.015h0l-.029-.016h0l-.029-.016-.021-.016h-.018l-.016-.016h-.014l-.016-.015-.018-.016h-.014l-.016-.016-.016-.015-.019-.018h-.014l-.016-.015-.018-.015-.012-.016h0l-.033-.016h0l-.014-.015h0l-.033-.016h0l-.014-.032h0l-.034-.033h0l-.029-.034h0l-.016-.015v-.015l-.031-.033h0l-.016-.014-.016-.016h0l-.014-.016h0l-.018-.016v-.031l-.016-.016h0l-.014-.032h0l-.021-.015v-.016h0l-.014-.016v-.016l-.02-.017v-.016h0l-.01-.015h0v-.016l-.02-.016h0l-.014-.032h0v-.031h0v-.032h0v-.063h0v-.03h0v-.033h0v-.1h0v-.1h0v-.08h0v-.033h0v-.031h0v-.032h0v-.031h0v-.113h0v-.031h0Zm28.839-25.808a1.163,1.163,0,0,1,.225.015h.144a3.3,3.3,0,0,1,.674.178h0v.015l-.014.016h0l-.021.016v.046h0l-.014.033h0v.031h0l-.016.032h0v.016l-.014.016h0v.032h0v.032h0l-.018.065h0v.03h0v.031h0v.032h0v.032h0v.033h0v.1h0v.1h0v.1h0v.1h0v.1h0v.094h0v.1h0v.032h0v.031h0v.031h0v.032h0v.033h0v.031h0v.032h0l.018.033v.031l.014.032h0l.016.016v.017h0v.031h0v.031l.014.016v.016l.021.016h0l.014.032h0l.016.032h0l.018.031h0l.012.033v.018l.018.015v.015l.016.016h0l.014.016.018.016.016.015.014.016.016.017.019.016.016.016.029.031.018.016h.014l.031.016.014.016h0l.033.016h0l.034.016h0l.029.016.029.016h0l.031.016h0l.033.014h0l.029.016h0l.029.016h0l.034.017h0l.033.015h.043l.021.016h.063l.016.016h.076l.029.016h.018l.034.015h.723a.49.49,0,0,1,.142-.03h0l.032-.016h.049l.029-.016h.016l.014-.015h.018l.029-.017h.034l.014.048h0l.016.064h0l.018.047v.033h0l.018.064v.016l.012.064h0v.207h0v.319h0v.159h0v.048h0v.064a.632.632,0,0,1-.029.177v.063c-.033.128-.065.256-.1.385l-.018.049v.015l-.031.1v.016a1.794,1.794,0,0,1-.145.305h0l-.029.047-.033.048a2.05,2.05,0,0,1-.227.336l-.029.047h0l-.034.048h0l-.029.03h0l-.028.035h0l-.034.031-.021.016-.047.048h0l-.029.048-.014.016h-.016l-.033.048h0l-.014.015-.034.033h0l-.045.048h0l-.047.032-.016.016v.014c-.031.034-.076.065-.11.1h0l-4.521,3.284h0l2.646-8.988Zm-3.834,9.5a.777.777,0,0,1-.2.031h-.15a3.192,3.192,0,0,1-1.586-.289l.548-.383a1.554,1.554,0,0,0,.34-2.165h0a1.563,1.563,0,0,0-2.167-.352l-.542.384v-.142h0v-.207h0v-.066h0v-.063h0v-.079h0v-.064h0v-.081h0l.014-.063h0a4.423,4.423,0,0,1,.146-.641h0a2.782,2.782,0,0,1,.514-.9h0l.048-.065h0a2.884,2.884,0,0,1,.379-.368h0l.061-.032h0l.021-.016.043-.031,4.522-3.285a2.842,2.842,0,0,1,.546-.321l.045-.016a.808.808,0,0,1,.178-.064l.045-.016h0l.031-.015.049-.016.05-.015h.029l.033-.018h0l.048-.016.029-.014h.013a.787.787,0,0,0,.126-.033h.562l-3.826,9.5Zm21.418-19.529a.317.317,0,0,1,.13.063h0l.029.016h0v.016l-.014.016h0l-.016.032h0v.016l-.013.016h0l-.019.032-.014.015v.016h0l-.016.017-.016.032h0l-.014.016h0l-.02.031h0l-.014.016v.015h0l-.021.032h0v.032h0v.033h0v.03h0v.033h0v.03h0v.033h0v.078h0l-.009.08h0v.1h0v.093h0v.1h0v.079h0v.1h0v.033h0v.064h0v.031h0v.032h0v.031h0v.032h0v.033l.009.031h0l.021.033v.047h0v.1h0l.014.031h0l.02.032h0l.014.031h0l.016.032h0l.016.032v.016l.014.015v.016l.019.017.013.016.016.016v.015l.014.016.021.016.029.032v.015l.016.016h.018l.014.017.016.016.019.016h0l.029.015h0l.028.016h0l.034.016h0l.047.032h0l.029.033h0l.034.016h0l.029.016h0l.028.015h0l.019.016h.016l.016.016h.014l.018.016.029.017h.016l.021.016h.031l.014.016h.018l.032.016.013.016h.045l.031.016h0l.029.015h0l.036.016h.029l.034.016h.094c.063.017.112.017.176.032h.363a1.724,1.724,0,0,0,.283-.063v.048h0v.319h0v.224h0v.063a.786.786,0,0,1-.014.178v.064h0V4455l-.016.064h0a3.642,3.642,0,0,1-.14.562l-.018.046h0l-.014.065a.507.507,0,0,0-.062.16l-.031.047h0l-.032.048h0c-.035.064-.064.129-.1.192l-.019.016v.016l-.018.034a.374.374,0,0,0-.063.1l-.029.046-.031.033v.015l-.031.032-.018.017-.029.032-.029.048h0l-.034.047h0l-.029.031h0l-.031.033h0l-.031.032h0l-.047.048-.029.032v.016l-.019.015-.028.032h-.021l-.027.033-.047.032h0l-.05.032-.016.016-.033.032h-.009l-.088.064-.043.033h0l-.049.031-.034.016-.029.016h0l-.047.031-.062.033h0l-4.838,2.788h0l-.062.032h0l-.032.016-.045.032h0l-.047.033h-.016l-.065.032h0l-.045.016h-.018l-.031.016-.031.016h-.014l-.05.016h0l-.029.015-.029.016h-.018l-.05.016h0l-.061.016h-.031l-.047.016h0l-.047.015h0l-.045.016h-.048l-.047.015h-.566a1.1,1.1,0,0,1-.222-.015h0a3.18,3.18,0,0,1-1.318-.433l.577-.338a1.562,1.562,0,0,0,.562-2.13h0a1.546,1.546,0,0,0-2.118-.562l-.577.336v-.159h0v-.43l.021-.049h0v-.094l.014-.048h0l.014-.047v-.049l.016-.046h0l.016-.048v-.015l.013-.033.019-.032h0l.021-.049v-.015l.011-.032.018-.032c.034-.064.063-.128.1-.193h0l.029-.047v-.016h0l.031-.063h0l.033-.065h0l.029-.065h0l.034-.047.013-.015h0a3.926,3.926,0,0,1,.259-.353h0l.045-.048h0l.052-.048h0l.042-.048h0l.048-.046h0a2.665,2.665,0,0,1,.222-.193h.019l.047-.032h0l.029-.033.034-.016.013-.015.048-.032h0l.063-.032h0l.016-.016.047-.033,4.838-2.787a3.637,3.637,0,0,1,.674-.291h0a1.951,1.951,0,0,1,.271-.063h.047a3.8,3.8,0,0,1,.416-.049h.472l.1.017h.144l.045.016h.047l.048.016h0l.031.016h.031l.045.015.095.033.045.016h0l.033.016.047.015h0l.029.017.032.016h.016l.049.016h.014Zm-21.418,19.529h.021l.029-.015h.047l.047-.017h0l.063-.016h.016l.047-.016h0l.045-.016.031-.015h.029l.047-.016h.016l.048-.016h0l.033-.016.05-.016h0l.063-.032h0l.027-.016.029-.016h0l.049-.032h.014l.067-.032h.029l.047-.033h0l.031-.016.032-.015.063-.032h0l-1.056.433Zm13.589-7.866a1.068,1.068,0,0,1-.192-.067Zm25.057-20.234a1.782,1.782,0,0,1,.209.08h0l.063.031h0l.021.015.029.016h0l.063.032h.016a.843.843,0,0,1,.114.067h0l.079.047h0l-.014.016h0l-.016.016h0v.016l-.018.016h0l-.012.014h0v.016l-.018.018h0l-.029.062h0l-.019.016h0l-.018.016v.015h0l-.011.016h0v.017l-.021.016h0l-.014.016h0l-.018.031h0l-.012.033h0l-.021.016v.03l-.013.016h0v.08h0v.047h0v.032h0v.1h0v.094h0v.1h0v.079h0v.08h0v.079h0v.033h0v.032h0v.031h0v.033h0v.032h0v.094h0v.1h0v.047l.013.031h0l.021.032h0l.012.032h0l.018.032h0l.014.031h0l.021.033v.016l.011.033h0l.018.031v.016l.019.016.014.032v.015l.016.016.018.017v.016l.012.016h0l.018.032h0l.016.031h0l.014.016h0l.018.032h0l.016.032h0l.017.033h0l.031.034h0l.029.03h0l.016.016h0l.018.016h0l.029.015h0l.016.017.031.016h.016l.017.016h.013l.019.016a.3.3,0,0,1,.092.064l.021.016h.009l.063.032.038.015h0l.029.016h0l.034.016h0l.029.016h0l.029.016h.128l.063.015h.076a1.262,1.262,0,0,0,.254.032h.18a.259.259,0,0,0,.11-.016h.13v.047h0v.369h0v.063h0v.081h0l-.018.063v.017h0a.317.317,0,0,1-.029.128h0v.015l-.016.064h0v.079l-.014.047h0v.016l-.021.064h0l-.014.064v.016l-.02.031-.009.033h0l-.034.065v.015l-.014.048h0l-.02.045-.014.016-.021.034h0l-.009.047-.031.048h0l-.032.047v.015l-.02.031-.014.034-.016.032v.016l-.019.032-.028.048-.019.031-.016.015-.061.1h0l-.031.047h0l-.031.046v.016l-.029.032-.034.016-.016.033-.029.033h0l-.031.047h0l-.031.031h0l-.031.032h0l-.029.032h0l-.034.031h0l-.029.048h-.018l-.029.032h0l-.033.032h0l-.029.033h0l-.05.032h0l-.043.033-.02.015-.029.016-.031.031-.021.017-.045.032h0l-.047.033h-.014l-.034.033-.029.015h0l-.062.032h0l-.047.03h-.016l-.061.033h0l-.063.032h-.016l-.062.033h0l-5.114,2.274h0c-.1.033-.19.081-.282.113h-.017a.467.467,0,0,1-.146.031h-.018l-.043.016h-.016a.292.292,0,0,0-.133.033h-.018l-.059.016h-.034l-.047.015h-.159l5.767-8.377Zm-6.438,8.361a3.05,3.05,0,0,1-1.491-.609l.61-.272a1.563,1.563,0,0,0,.788-2.05h0a1.556,1.556,0,0,0-2.053-.784l-.605.271c0-.047.009-.1.009-.143v-.048l.02-.1v-.063l.019-.032h0c.016-.063.029-.111.045-.177h0l.018-.047h0l.009-.047v-.033l.021-.033.016-.048h0l.019-.047v-.014l.013-.033v-.015l.017-.032.016-.048.013-.033v-.016l.019-.031h0l.016-.048.014-.031v-.016l.016-.032.018-.017.029-.047.019-.031.011-.032v-.016l.034-.048h0c.031-.031.047-.081.083-.112v-.015h0a1.31,1.31,0,0,0,.08-.112h0c.045-.064.095-.111.128-.161h0l.027-.047h0l.021-.016c.029-.031.063-.063.1-.1h0l.016-.016.029-.033h0l.064-.047h0l.045-.047h0l.063-.048h0l.063-.047h0l.031-.033.016-.015h0l.063-.033h0l.047-.03.014-.016h0l1.348,5.8Zm10.755-2.258a.841.841,0,0,0-.131.16Zm13.917-12.736c.047.016.1.032.13.048h0a3.353,3.353,0,0,1,.721.432h-.018l-.016.017h0l-.014.016h0l-.016.016-.018.016h0l-.016.015h0l-.014.016h0l-.016.016h0l-.019.014-.013.016h0l-.017.017h0v.015l-.016.016h0l-.013.031h0v.016l-.019.016h0l-.016.033h0l-.021.015v.016h0l-.009.016h0l-.021.016v.016h0v.031h0v.032h0v.031h0v.081h0v.047h0v.033h0v.095h0v.032h0v.031h0v.032h0v.031h0v.033h0v.032h0v.031h0v.032h0v.031h0v.032h0v.034h0v.1h0v.03h0v.032h0v.1h0v.1h0l.021.03h0v.033h0l.009.032h0v.033h0v.125l.021.033h0v.047l.016.016v.016l.019.015v.048l.013.016v.015l.016.016h0l.017.033h0l.013.032h0l.019.031h0l.016.033h0l.029.032h0l.018.032h0l.016.032h0l.014.016h0l.016.016v.015l.018.016.029.033h0l.016.016.014.016.019.015.016.016.014.016.033.016h0l.016.015.014.016h0l.033.015h0l.014.018h0l.034.016h0l.031.015h0l.033.015h0l.027.016.029.015h0l.033.016h0l.029.016.032.016h.031l.033.016h.063a.227.227,0,0,0,.1.031h.11l.063.016h.092a1.775,1.775,0,0,0,.285-.016v.065h0v.126h0v.175a.82.82,0,0,0-.031.177h0l-.014.046h0l-.018.065h0a1.291,1.291,0,0,1-.045.161l-.014.064h0l-.019.047a1.117,1.117,0,0,1-.049.112l-.014.047h0l-.034.047c-.011.048-.045.113-.058.16l-.034.048h0l-.029.047c-.062.113-.146.226-.222.338l-.029.048c-.038.031-.048.063-.083.095l-.032.032-.02.016v.016c-.063.065-.128.129-.191.194l-.047.048h0l-.029.03-.018.018-.029.032h0l-.034.031-.045.033h0l-.047.033-.029.03-.033.033h0l-.014.016-.019.016-.028.017-.045.032h0l-.048.033-.018.016-.031.016-.014.015-.034.016h0l-.049.033h0l-.048.031h0l-.028.016-.034.016-.029.016h0l-.047.031h0l-.063.033h0l-.016.016-.047.016h-.014l-.033.015-.045.017h-.019l-.058.016h0l-5.318,1.73h0l-.065.015h-.018l-.063.016h0l-.062.016h-.029l-.047.016h0l-.045.015h-.743l6.506-7.849Zm-6.872,7.8a3.216,3.216,0,0,1-1.55-.785l.638-.208a1.555,1.555,0,0,0,.993-1.956h0a1.556,1.556,0,0,0-1.959-.993l-.626.208a2.117,2.117,0,0,1,.063-.3l.016-.047.016-.048h0v-.048l.014-.047h0l.021-.048v-.031l.014-.016.02-.048h0l.01-.047h0l.02-.033h0l.027-.047h0l.016-.048.018-.015.016-.033v-.016l.014-.032.021-.048.009-.016.021-.032.033-.032h0l.029-.048h0v-.016l.031-.048h0l.017-.016.028-.048h0l.034-.033.014-.031.016-.015.033-.032h0l.048-.065h0l.013-.014.034-.033h0l.029-.033.016-.016.031-.014.031-.033h0l.031-.033.017-.016h0c.028-.032.067-.064.1-.1h0l.029-.032.036-.032v-.016l.045-.033h0l.029-.031.034-.016.016-.016.047-.031h0l.063-.049h0l.063-.047h0l.063-.048.029-.016.033-.031h0l.048-.031h.014c.031-.017.083-.049.112-.066h.016a.4.4,0,0,0,.13-.064h0l.029-.016.038-.015h.009l.05-.016h0l.042-.016.039-.016h0l.063-.031,5.315-1.73a2.536,2.536,0,0,1,.48-.112h.048l.1-.015h.047c.059,0,.126-.016.169-.016h.664l.045.016h.032l.064.015h0l.045.016h.019l.058.016.032.016h.049l.048.017h.018l.029.015.026.016h0l-6.869,7.8Zm-11.359-1.169h0l-.062-.018h-.029l-.047-.015h0l-.048-.016h-.045l-.047-.016h0l-.067-.016h-.031l-.041-.014h-.1l-.045-.016h-.738a2.8,2.8,0,0,0-.34.047l-.047.016a4.443,4.443,0,0,0-.608.193l-5.109,2.275-.045.031-.047.016h0l-.047.033h0l-.063.03-.029.017-.029.032,7.651-2.5Zm-6.438,8.361h0l.083.018h.425l-.53-.034Zm13.679-6.088c-.031-.047-.078-.095-.107-.143Zm30.267-13.377c.029.032.083.047.112.08h0l-.13-.08Zm.256.162c.108.1.238.191.355.3l-.019.015-.014.016h0l-.031.016-.014.016-.018.016h0l-.016.015h0l-.014.016-.016.016h0l-.021.016h0l-.014.017-.018.015h0l-.011.016h0l-.021.016-.012.016h0l-.02.014h0l-.014.018-.018.016h0l-.027.03h0l-.021.016h0l-.009.016h0v.016l-.021.016v.016l-.013.016h0l-.019.016v.031l-.016.016h0l-.016.016v.016h0l-.014.033h0v.031h0V4433l-.018.032h0v.033h0v.046h0l-.016.032h0v.015l-.019.032v.08h0v.032h0v.031h0v.031h0v.032h0v.032h0v.032h0v.032h0v.1h0v.046h0v.033h0v.1h0v.1h0v.031h0v.033h0v.032h0v.032h0v.19l.019.032v.017l.016.016.018.031h0l.014.032h0l.016.032h0l.016.032.019.032h0l.013.033h0l.021.03h0l.009.034h0l.021.032h0l.014.032h0l.014.032h0l.018.016v.016l.014.016h.02c.012.016.032.031.043.048l.018.016.014.016h.021l.016.014h.014l.016.016h.018l.014.016h0l.014.015h0l.031.016h0l.034.016h0l.029.017h0l.033.016h0l.029.015h0l.031.016h0l.034.016h0l.029.016h0l.028.016h0l.034.015h.047l.029.016h.663l-.017.048h0l-.016.064v.063h0l-.013.065h0l-.019.047v.016l-.016.064h0l-.014.063a3.085,3.085,0,0,1-.866,1.394l-.029.033h0l-.034.031h-.014l-.031.031-.047.034h-.014l-.036.033-.042.033h0l-.032.03-.02.016-.031.016h0l-.048.032h0l-.042.031-.05.033-.047.033h0l-.029.016-.019.015h-.016l-.047.016-.047.032h0l-.045.015h0l-.032.016h-.016l-.029.016h0l-.047.016-.033.016h-.014a.488.488,0,0,0-.112.047h0l-.034.016-.049.014h-.014a1.15,1.15,0,0,0-.209.065h-.016l-.061.016h0l-5.466,1.153h0l6.582-6.823Zm-6.744,6.854c-.047,0-.1.016-.146.016h-.061a.468.468,0,0,0-.146.016h-.579l-.05-.016h-.011l-.063-.016h-.016a.254.254,0,0,1-.125-.031h-.021l-.045-.016-.05-.016-.033-.015h0l-.063-.015h0l-.045-.016-.031-.018h-.029l-.049-.014h0l-.048-.016h-.013l-.063-.033h0c-.062-.033-.126-.065-.175-.1h0l-.057-.031h-.02c-.083-.048-.16-.1-.243-.146h0a2.529,2.529,0,0,1-.541-.5l.653-.143a1.562,1.562,0,0,0,1.2-1.842h0a1.563,1.563,0,0,0-1.844-1.2l-.654.146.016-.048.017-.048.013-.048h0l.019-.048v-.016l.016-.031.016-.032h0l.014-.05.018-.048h0l.016-.048.029-.045h0l.019-.032h0l.013-.033.034-.048h0l.029-.048.016-.031h0l.029-.064h0l.033-.064h0a.686.686,0,0,0,.061-.112l.016-.016.032-.064h0l.031-.048.02-.015.012-.033.031-.033h0l.031-.032h0l.036-.048h0l.009-.016.032-.03h0l.031-.033.02-.017.012-.016.036-.031h0l.047-.048h0l.016-.016.029-.031h0l.031-.032.016-.016h0l.063-.048h0c.063-.032.112-.08.175-.112h0c.031-.031.081-.047.107-.081h0a.9.9,0,0,0,.133-.08h0a.891.891,0,0,1,.128-.063h0a1.065,1.065,0,0,1,.191-.08h.016l.063-.016h.029l.047-.017h.019l.029-.016.033-.015h.016l.061-.015h0l.045-.016h.063l.067-.016,5.466-1.154a3.2,3.2,0,0,1,.858-.064h.094c.045,0,.1.016.146.016h0l.045.014h.094a.848.848,0,0,1,.126.033l.05.015h0l.047.016h.029l.047.015h.029l.047.017h.016l.067.033h.034l.038.015h0l.067.033h.033l.043.014h.016l.034.016.029.016h0l.063.033.031.015.045.016.034.033.029.016-6.486,7.033Zm-19.659,5.24h.061l.065.016h.076l-.223-.033Zm14.1-4.663c-.029-.048-.063-.1-.1-.16Zm30.917-10.477c.067.031.131.063.193.1h0c.1.047.173.1.256.143l.063.048h0a3.4,3.4,0,0,1,.61.561h-.029l-.018.016h-.016l-.014.016-.019.017h0l-.016.016h-.016l-.014.015-.018.017h0l-.016.016h0l-.014.016-.016.015h0l-.018.016h0l-.014.016-.016.017h0l-.016.016h0l-.014.016-.018.014h0l-.021.016h0l-.012.016v.015h0l-.018.016h0l-.014.017v.016h0l-.021.032h0l-.009.015-.016.016h0l-.021.016h0l-.011.031h0v.017l-.021.016h0l-.014.033h0v.016l-.018.031h0l-.011.016v.032l-.021.015h0l-.014.033h0v.016l-.016.033h0l-.016.031h0v.016l-.019.016h0v.032h0l-.013.032h0v.033h0v.033h0v.031h0v.078h0v.1h0v.032h0v.032h0v.1h0v.1h0v.033h0v.032h0v.031h0v.032h0v.066h0v.2h0l.013.031v.032h0v.033h0v.033h0l.019.032h0l.016.032h0l.016.032h0l.014.031h0l.021.033h0l.011.033h0l.018.03v.016l.014.017v.016l.021.016.011.015.021.016h0l.016.016h0l.009.032.021.015.014.017.05.065.018.015h0l.014.016h0l.045.048h0l.063.046.031.033h0l.031.016h0l.032.015.033.016h0l.029.016h0l.029.016h0l.018.015h.029l.016.016h.019l.011.016h.034l.018.016.029.016h0l.029.015h0c.033.016.054.016.063.032l.032.016h0l.035.016h.029l.034.015h0l.029.015h.157c.028,0,.045,0,.063.017l-.018.048h0l-.017.047v.016l-.013.047v.032l-.016.032-.019.048h0l-.016.063-.014.048v.032l-.016.031-.014.033v.016l-.033.047h0l-.029.047-.038.048v.016c-.043.08-.095.16-.14.241h0c-.049.079-.114.159-.161.238h0l-.034.034-.029.047a2.524,2.524,0,0,1-.543.5h0l-.047.033a4.432,4.432,0,0,1-.445.256h0l-.047.033h0l-.112.047-.062.033-.05.016h0l-.031.015-.031.016-.048.016-.042.016h0l-.067.017h0l-.059.015h0l-.052.016h-.121l-.063.016h-.157l-5.561.591h-.909l-.05-.016h0c-.064-.014-.13-.032-.192-.047h-.019c-.094-.032-.171-.064-.271-.1h0a3.141,3.141,0,0,1-1.361-1.106l.674-.064a1.564,1.564,0,0,0,1.379-1.714h0a1.584,1.584,0,0,0-1.713-1.393l-.656.064.012-.047.047-.1.018-.048.029-.047.034-.048.016-.047.014-.033h0l.016-.033v-.014l.031-.048h0l.031-.033h0l.031-.031h0l.029-.033h0l.034-.032h0l.013-.032.032-.048h0l.031-.031h0l.033-.033h0l.029-.032h0l.036-.049.012-.015.018-.033.031-.032h.014l.05-.047.026-.033.031-.031v-.016l.031-.033h0l.036-.032.029-.015.047-.047h0l8.764-1.042Zm-8.395.768c.034-.016.083-.047.112-.063h.016a.563.563,0,0,0,.114-.065h0l.063-.032h0l.063-.032h.034l.045-.032h0l.061-.015h.033l.045-.016h0l.063-.033h0l.083-.016h0l.047-.016h.029l.063-.016h.019l.059-.016h.018l.065-.016h.013l.061-.016h.16l5.554-.577a1.339,1.339,0,0,1,.247-.016h.314a.453.453,0,0,1,.144.016h.033l.045.017h.063a.291.291,0,0,1,.126.031h0l.047.016h.033l.029.016h0l.048.017h.047l.045.016h0l.049.015h.014l-8.184.865Zm11.213,6.763a.563.563,0,0,0-.157.111Zm17.307-7.739c.029.032.063.065.1.1h0a1.872,1.872,0,0,1,.242.272h0c.063.079.128.175.2.257a1.554,1.554,0,0,0-.937,1.266h0a1.563,1.563,0,0,0,1.251,1.7l-.016.048h0l-.016.047v.032l-.014.048v.016l-.018.032-.017.031v.016l-.028.048h0l-.039.048a.248.248,0,0,1-.056.1l-.034.048h0l-.028.047a3.235,3.235,0,0,1-1.218,1.106h-.018a.573.573,0,0,1-.142.064h-.019l-.028.017h-.017c-.062.032-.146.047-.208.079h0l-.034.016h-.029l-.047.016h-.016l-.061.015h0l-.05.016h-.062l-.031.016h-.017l-.061.017h-.078l1.536-5.544Zm-1.7,5.56a1.941,1.941,0,0,1-.3.016h-6.06l-.047-.016h-.1l-.061-.016h-.017l-.062-.016h-.045l-.083-.033h0l-.031-.016h0l-.048-.015h0l-.047-.015h0l-.029-.016h0l-.047-.016h0l-.062-.031-.032-.018h-.013l-.034-.016-.047-.015h0l-.029-.016-.029-.015h-.018l-.05-.032h0l-.043-.032-.033-.015-.021-.018-.047-.03h0l-.059-.033h0l-.062-.033h0a.635.635,0,0,0-.112-.08h0a3.19,3.19,0,0,1-.867-.993h.674a1.568,1.568,0,0,0,1.557-1.554h0a1.554,1.554,0,0,0-1.557-1.554h-.674l.034-.048h0l.028-.032.017-.032h0l.031-.032.031-.032v-.016l.031-.032.029-.031.033-.048h0l.029-.033h0l.034-.048h0l.033-.031.014-.031.019-.015.031-.032h0l.029-.033.016-.015.018-.018.027-.031h0l.049-.048.045-.046h0c.034-.033.065-.065.1-.1h0v-.017l.045-.032h0l.031-.032.029-.015.016-.016.031-.032h.016l.063-.032.018-.016.045-.033h0a.429.429,0,0,1,.114-.08h0l.059-.033h0l.063-.032h0a1.663,1.663,0,0,0,.18-.095h.016c.063-.033.13-.065.206-.1h0c.047-.015.1-.033.131-.047h.028l.05-.016h0l.043-.016h.033l.083-.015h0l.061-.016h.029a.282.282,0,0,0,.133-.032h6.043a3.913,3.913,0,0,1,.625.064l.045.016h.067l.033.016.043.016.047.016h0l.05.015h0l.042.015h0l.034.018.05.016h.013l.034.014.029.016h0l.047.016h0l.045.016.047.015h0l.048.016h0l.031.016h0l.047.016h0l.029.016.034.015h.013l.048.032h.016l.029.016.033.016h0l.05.015.013.017.019.016.031.033h0l.059.032h.018l.034.031h.011l.065.048h0l.047.047h0l.063.049h0l-1.7,5.559Zm-18.422-5.351h-.009l-.054-.016h-.009l.063.031Zm-8.395.769h0l-.061.032h0l-.016.016-.047.033h0l-.034.031-.014.016-.062.049h0l.256-.177Zm37.768.354.653.079a1.562,1.562,0,0,1,1.379,1.7h0a1.559,1.559,0,0,1-1.7,1.379l-.674-.065a3.052,3.052,0,0,0,2.516,1.875l5.544.594a3.1,3.1,0,0,0,3.077-1.682,1.576,1.576,0,0,1-1.076-1.811h0a1.558,1.558,0,0,1,1.059-1.154,3.084,3.084,0,0,0-2.4-1.633l-5.55-.576a3.057,3.057,0,0,0-2.848,1.313ZM-14001.814,4434.441Zm40.649,3.27a1.536,1.536,0,0,1-.867-1.908h0a1.574,1.574,0,0,1,1.172-1.04,3.03,3.03,0,0,0-2.214-1.874l-5.462-1.154a3.068,3.068,0,0,0-2.96,1.009l.653.143a1.57,1.57,0,0,1,1.2,1.843h0a1.57,1.57,0,0,1-1.847,1.2l-.653-.146a3.083,3.083,0,0,0,2.307,2.132l5.464,1.154a3.062,3.062,0,0,0,3.218-1.361Zm18.424,5.573a1.54,1.54,0,0,1-.655-1.987h0a1.545,1.545,0,0,1,1.282-.912,3.077,3.077,0,0,0-2-2.1l-5.307-1.729a3.1,3.1,0,0,0-3.059.689l.641.207a1.554,1.554,0,0,1,.992,1.956h0a1.547,1.547,0,0,1-1.956.993l-.643-.209a3.11,3.11,0,0,0,2.066,2.372l5.307,1.73a3.1,3.1,0,0,0,3.347-1.009Zm17.735,7.483a1.536,1.536,0,0,1-.449-2.05h0a1.52,1.52,0,0,1,1.36-.771,3.066,3.066,0,0,0-1.778-2.306l-5.109-2.275a3.076,3.076,0,0,0-3.121.368l.6.272a1.549,1.549,0,0,1,.789,2.051h0a1.551,1.551,0,0,1-2.049.785l-.61-.272a3.087,3.087,0,0,0,1.813,2.563l5.108,2.276a3.12,3.12,0,0,0,3.45-.657Zm16.85,9.291a1.579,1.579,0,0,1-.24-2.083h0a1.517,1.517,0,0,1,1.429-.625,3.043,3.043,0,0,0-1.522-2.467l-4.843-2.787a3.09,3.09,0,0,0-3.135.048l.57.335a1.563,1.563,0,0,1,.563,2.13h0a1.563,1.563,0,0,1-2.129.561l-.574-.335a3.049,3.049,0,0,0,1.536,2.74l4.835,2.787a3.09,3.09,0,0,0,3.494-.288Zm15.8,11.006a1.547,1.547,0,0,1-.016-2.1h0a1.556,1.556,0,0,1,1.489-.481,3.06,3.06,0,0,0-1.265-2.61l-4.519-3.284a3.067,3.067,0,0,0-3.126-.29l.548.385a1.559,1.559,0,0,1,.342,2.165h0a1.563,1.563,0,0,1-2.165.352l-.548-.386a3.1,3.1,0,0,0,1.232,2.884l4.519,3.284a3.124,3.124,0,0,0,3.513.08Zm14.546,12.593a1.555,1.555,0,0,1,.209-2.1h0a1.6,1.6,0,0,1,1.541-.32,3.077,3.077,0,0,0-.978-2.725l-4.147-3.733a3.094,3.094,0,0,0-3.093-.607l.494.447a1.553,1.553,0,0,1,.119,2.2h0a1.548,1.548,0,0,1-2.2.112l-.5-.449a3.083,3.083,0,0,0,.93,3l4.146,3.731a3.108,3.108,0,0,0,3.48.45Zm13.153,14.033a1.552,1.552,0,0,1,.416-2.05h0a1.584,1.584,0,0,1,1.572-.16,3.077,3.077,0,0,0-.686-2.82l-3.736-4.148a3.058,3.058,0,0,0-2.994-.93l.447.5a1.555,1.555,0,0,1-.112,2.2h0a1.565,1.565,0,0,1-2.2-.114l-.445-.5a3.1,3.1,0,0,0,.606,3.075l3.735,4.15a3.1,3.1,0,0,0,3.413.8Zm11.629,15.333a1.573,1.573,0,0,1,.627-2h0a1.536,1.536,0,0,1,1.574.017,3.072,3.072,0,0,0-.389-2.885l-3.285-4.518a3.065,3.065,0,0,0-2.884-1.234l.384.529a1.575,1.575,0,0,1-.335,2.178h0a1.566,1.566,0,0,1-2.181-.352l-.384-.528a3.063,3.063,0,0,0,.287,3.125l3.286,4.518A3.071,3.071,0,0,0-13853.031,4513.023Zm9.949,16.467a1.557,1.557,0,0,1,.837-1.922h0a1.577,1.577,0,0,1,1.57.176,3.018,3.018,0,0,0-.1-2.9l-2.791-4.839a3.083,3.083,0,0,0-2.742-1.537l.343.577a1.574,1.574,0,0,1-.581,2.13h0a1.539,1.539,0,0,1-2.111-.561l-.339-.577a3.091,3.091,0,0,0-.045,3.14l2.787,4.838a3.073,3.073,0,0,0,3.169,1.49Zm8.19,17.415a1.567,1.567,0,0,1,1.039-1.826h0a1.582,1.582,0,0,1,1.539.336,3.061,3.061,0,0,0,.213-2.9l-2.277-5.11a3.125,3.125,0,0,0-2.562-1.809l.27.607a1.537,1.537,0,0,1-.783,2.05h0a1.546,1.546,0,0,1-2.046-.785l-.274-.609a3.055,3.055,0,0,0-.368,3.109l2.275,5.111a3.05,3.05,0,0,0,3,1.81Zm6.313,18.183a1.57,1.57,0,0,1,1.215-1.713h0a1.59,1.59,0,0,1,1.489.5,3.028,3.028,0,0,0,.514-2.851l-1.735-5.3a3.051,3.051,0,0,0-2.35-2.067l.209.641a1.543,1.543,0,0,1-1,1.956h0a1.541,1.541,0,0,1-1.956-.993l-.208-.642a3.092,3.092,0,0,0-.706,3.061l1.731,5.3a3.052,3.052,0,0,0,2.792,2.115Zm4.37,18.744a1.554,1.554,0,0,1,1.393-1.569h0a1.566,1.566,0,0,1,1.431.64,3.085,3.085,0,0,0,.817-2.788l-1.159-5.462a3.087,3.087,0,0,0-2.126-2.308l.139.657a1.554,1.554,0,0,1-1.2,1.843h0a1.554,1.554,0,0,1-1.842-1.2l-.144-.657a3.052,3.052,0,0,0-1.011,2.964l1.154,5.462a3.1,3.1,0,0,0,2.545,2.4Zm2.385,19.1a1.554,1.554,0,0,1,1.543-1.412h0a1.6,1.6,0,0,1,1.361.787,3.053,3.053,0,0,0,1.1-2.674l-.591-5.56a3.074,3.074,0,0,0-1.873-2.516l.063.657a1.562,1.562,0,0,1-1.379,1.714h0a1.56,1.56,0,0,1-1.714-1.376l-.059-.658a3.051,3.051,0,0,0-1.315,2.851l.574,5.56a3.085,3.085,0,0,0,2.286,2.645Zm.387,19.239a1.582,1.582,0,0,1,1.7-1.25h0a1.57,1.57,0,0,1,1.26.93,3.072,3.072,0,0,0,1.377-2.563v-5.576a3.126,3.126,0,0,0-1.6-2.706v.673a1.555,1.555,0,0,1-1.557,1.553h0a1.563,1.563,0,0,1-1.552-1.553V4611a3.062,3.062,0,0,0-1.6,2.69v5.593a3.107,3.107,0,0,0,1.985,2.883Zm-1.633,19.178a1.584,1.584,0,0,1,1.811-1.074h0a1.583,1.583,0,0,1,1.158,1.059,3.064,3.064,0,0,0,1.631-2.4l.591-5.558a3.1,3.1,0,0,0-1.314-2.852l-.064.657a1.577,1.577,0,0,1-1.712,1.393h0a1.588,1.588,0,0,1-1.395-1.713l.067-.658a3.041,3.041,0,0,0-1.875,2.516l-.57,5.558a3.049,3.049,0,0,0,1.675,3.061Zm-3.618,18.9a1.535,1.535,0,0,1,1.9-.865h0a1.566,1.566,0,0,1,1.04,1.17,3.018,3.018,0,0,0,1.875-2.211l1.161-5.463a3.053,3.053,0,0,0-1.015-2.965l-.146.658a1.56,1.56,0,0,1-1.846,1.2h0a1.567,1.567,0,0,1-1.2-1.842l.146-.658a3.076,3.076,0,0,0-2.136,2.308l-1.15,5.463a3.08,3.08,0,0,0,1.359,3.235Zm-5.576,18.424a1.573,1.573,0,0,1,1.99-.672h0a1.586,1.586,0,0,1,.914,1.281,3.09,3.09,0,0,0,2.095-2l1.716-5.318a3.113,3.113,0,0,0-.691-3.06l-.209.625a1.569,1.569,0,0,1-1.954,1.01h0a1.545,1.545,0,0,1-.988-1.955l.205-.641a3.105,3.105,0,0,0-2.369,2.065l-1.716,5.3a3.036,3.036,0,0,0,1.013,3.349Zm-7.482,17.734a1.533,1.533,0,0,1,2.048-.448h0a1.581,1.581,0,0,1,.771,1.361,3.083,3.083,0,0,0,2.293-1.778l2.272-5.11a3.042,3.042,0,0,0-.368-3.108l-.271.609a1.554,1.554,0,0,1-2.049.786h0a1.549,1.549,0,0,1-.788-2.052l.274-.608a3.09,3.09,0,0,0-2.565,1.811l-2.276,5.11a3.087,3.087,0,0,0,.66,3.444Zm-9.291,16.854a1.572,1.572,0,0,1,2.079-.241h0a1.561,1.561,0,0,1,.629,1.442,3.056,3.056,0,0,0,2.462-1.522l2.791-4.838a3.07,3.07,0,0,0-.047-3.14l-.339.577a1.558,1.558,0,0,1-2.127.562h0a1.56,1.56,0,0,1-.562-2.131l.339-.577a3.08,3.08,0,0,0-2.744,1.521l-2.785,4.839a3.064,3.064,0,0,0,.3,3.492Zm-11,15.795a1.544,1.544,0,0,1,2.093-.016h0a1.552,1.552,0,0,1,.485,1.491,3.077,3.077,0,0,0,2.618-1.249l3.281-4.518a3.047,3.047,0,0,0,.285-3.123l-.4.543a1.556,1.556,0,0,1-2.161.353h0a1.582,1.582,0,0,1-.353-2.179l.4-.529a3.074,3.074,0,0,0-2.886,1.234l-3.285,4.518a3.084,3.084,0,0,0-.076,3.508Zm-12.59,14.563a1.537,1.537,0,0,1,2.079.208h0a1.585,1.585,0,0,1,.319,1.537,3.076,3.076,0,0,0,2.744-.976l3.732-4.151a3.07,3.07,0,0,0,.61-3.074l-.446.5a1.548,1.548,0,0,1-2.194.112h0a1.547,1.547,0,0,1-.112-2.2l.447-.5a3.049,3.049,0,0,0-2.994.931l-3.737,4.148a3.08,3.08,0,0,0-.433,3.477Zm-14.053,13.152a1.53,1.53,0,0,1,2.044.417h0a1.559,1.559,0,0,1,.166,1.57,3.067,3.067,0,0,0,2.818-.689l4.148-3.733a3.04,3.04,0,0,0,.93-3l-.5.447a1.562,1.562,0,0,1-2.193-.112h0a1.556,1.556,0,0,1,.112-2.2l.5-.446a3.106,3.106,0,0,0-3.076.608l-4.148,3.733a3.1,3.1,0,0,0-.8,3.413Zm-15.331,11.616a1.559,1.559,0,0,1,2,.624h0a1.568,1.568,0,0,1,0,1.571,3.076,3.076,0,0,0,2.886-.385l4.517-3.285a3.081,3.081,0,0,0,1.235-2.884l-.544.4a1.539,1.539,0,0,1-2.16-.351h0a1.54,1.54,0,0,1,.354-2.165l.544-.4a3.061,3.061,0,0,0-3.122.289l-4.522,3.285a3.108,3.108,0,0,0-1.157,3.3Zm-16.471,9.947a1.55,1.55,0,0,1,1.92.835h0a1.534,1.534,0,0,1-.173,1.554,3.025,3.025,0,0,0,2.9-.1l4.838-2.789a3.093,3.093,0,0,0,1.536-2.737l-.577.335a1.56,1.56,0,0,1-2.127-.561h0a1.571,1.571,0,0,1,.575-2.13l.577-.336a3.1,3.1,0,0,0-3.145-.049l-4.837,2.788a3.077,3.077,0,0,0-1.491,3.171Zm-17.412,8.171a1.57,1.57,0,0,1,1.826,1.042h0a1.574,1.574,0,0,1-.335,1.538,3.086,3.086,0,0,0,2.9.224l5.111-2.274a3.088,3.088,0,0,0,1.811-2.563l-.608.272a1.55,1.55,0,0,1-2.053-.784h0a1.542,1.542,0,0,1,.788-2.052l.608-.271a3.046,3.046,0,0,0-3.108-.369l-5.106,2.274a3.057,3.057,0,0,0-1.812,3Zm-18.186,6.312a1.572,1.572,0,0,1,1.715,1.216h0a1.6,1.6,0,0,1-.5,1.492,3.021,3.021,0,0,0,2.851.512l5.319-1.714a3.056,3.056,0,0,0,2.066-2.371l-.626.208a1.552,1.552,0,0,1-1.954-.994h0a1.545,1.545,0,0,1,.992-1.955l.643-.208a3.084,3.084,0,0,0-3.063-.688l-5.317,1.712a3.105,3.105,0,0,0-2.116,2.789Zm-18.739,4.373a1.56,1.56,0,0,1,1.572,1.4h0a1.552,1.552,0,0,1-.66,1.426,3.033,3.033,0,0,0,2.789.816l5.462-1.169a3.071,3.071,0,0,0,2.306-2.13l-.653.144a1.553,1.553,0,0,1-1.846-1.2h0a1.566,1.566,0,0,1,1.206-1.842l.653-.146a3.054,3.054,0,0,0-2.965-1.009l-5.459,1.17A3.085,3.085,0,0,0-13972.823,4797.191Zm-19.1,2.387a1.568,1.568,0,0,1,1.428,1.556h0a1.522,1.522,0,0,1-.8,1.346,3.049,3.049,0,0,0,2.688,1.1l5.559-.576a3.1,3.1,0,0,0,2.518-1.89l-.653.063a1.566,1.566,0,0,1-1.718-1.378h0a1.558,1.558,0,0,1,1.372-1.713l.674-.063a3.063,3.063,0,0,0-2.851-1.314l-5.558.592a3.045,3.045,0,0,0-2.646,2.291Zm-19.239.386a1.555,1.555,0,0,1,1.25,1.682h0a1.559,1.559,0,0,1-.937,1.266,3.061,3.061,0,0,0,2.547,1.377h5.595a3.074,3.074,0,0,0,2.69-1.6h-.674a1.571,1.571,0,0,1-1.557-1.553h0a1.559,1.559,0,0,1,1.557-1.556h.674a3.1,3.1,0,0,0-2.69-1.6h-5.595a3.1,3.1,0,0,0-2.881,2Zm-19.182-1.635a1.571,1.571,0,0,1,1.076,1.81h0a1.552,1.552,0,0,1-1.061,1.154,3.1,3.1,0,0,0,2.407,1.636l5.559.575a3.085,3.085,0,0,0,2.85-1.314l-.657-.064a1.58,1.58,0,0,1-1.393-1.712h0a1.563,1.563,0,0,1,1.718-1.378l.674.064a3.05,3.05,0,0,0-2.518-1.874l-5.559-.593a3.067,3.067,0,0,0-3.063,1.681Zm-18.9-3.621a1.538,1.538,0,0,1,.862,1.907h0a1.534,1.534,0,0,1-1.17,1.041,3.105,3.105,0,0,0,2.209,1.874l5.465,1.17a3.079,3.079,0,0,0,2.964-1.009l-.653-.145a1.569,1.569,0,0,1-1.206-1.841h0a1.567,1.567,0,0,1,1.844-1.2l.656.143a3.088,3.088,0,0,0-2.3-2.13l-5.466-1.169a3.059,3.059,0,0,0-3.218,1.36Zm-18.43-5.575a1.55,1.55,0,0,1,.663,1.987h0a1.561,1.561,0,0,1-1.285.914,3.067,3.067,0,0,0,2,2.1l5.3,1.729a3.07,3.07,0,0,0,3.062-.7l-.641-.209a1.547,1.547,0,0,1-.99-1.954h0a1.535,1.535,0,0,1,1.952-.993l.645.208a3.068,3.068,0,0,0-2.068-2.356l-5.3-1.73a3.071,3.071,0,0,0-3.349,1.008Zm-17.729-7.481a1.539,1.539,0,0,1,.448,2.05h0a1.534,1.534,0,0,1-1.365.769,3.026,3.026,0,0,0,1.779,2.292l5.111,2.275a3.117,3.117,0,0,0,3.123-.368l-.608-.273a1.543,1.543,0,0,1-.786-2.051h0a1.546,1.546,0,0,1,2.049-.784l.61.271a3.085,3.085,0,0,0-1.81-2.564l-5.109-2.274a3.11,3.11,0,0,0-3.449.657Zm-16.855-9.292a1.571,1.571,0,0,1,.243,2.082h0a1.558,1.558,0,0,1-1.439.625,3.079,3.079,0,0,0,1.518,2.468l4.835,2.788a3.078,3.078,0,0,0,3.146-.049l-.579-.336a1.548,1.548,0,0,1-.562-2.114h0a1.564,1.564,0,0,1,2.131-.562l.578.337a3.058,3.058,0,0,0-1.536-2.74l-4.843-2.789A3.092,3.092,0,0,0-14102.257,4772.362Zm-15.792-11.006a1.551,1.551,0,0,1,.016,2.1h0a1.562,1.562,0,0,1-1.493.479,3.08,3.08,0,0,0,1.251,2.612l4.514,3.283a3.062,3.062,0,0,0,3.126.29l-.541-.385a1.564,1.564,0,0,1-.341-2.177h0a1.541,1.541,0,0,1,2.162-.338l.546.385a3.084,3.084,0,0,0-1.235-2.883l-4.517-3.285a3.119,3.119,0,0,0-3.508-.08Zm-14.546-12.593a1.54,1.54,0,0,1-.209,2.083h0a1.574,1.574,0,0,1-1.543.321,3.091,3.091,0,0,0,.975,2.723l4.153,3.733a3.091,3.091,0,0,0,3.09.608l-.5-.448a1.55,1.55,0,0,1-.112-2.194h0a1.549,1.549,0,0,1,2.194-.113l.5.449a3.03,3.03,0,0,0-.93-3l-4.144-3.733a3.108,3.108,0,0,0-3.479-.449Zm-13.174-14.033a1.535,1.535,0,0,1-.415,2.051h0a1.545,1.545,0,0,1-1.57.143,3.066,3.066,0,0,0,.688,2.818l3.732,4.149a3.056,3.056,0,0,0,2.994.931l-.445-.5a1.553,1.553,0,0,1,.112-2.194h0a1.555,1.555,0,0,1,2.2.111l.439.5a3.089,3.089,0,0,0-.61-3.074l-3.726-4.148a3.1,3.1,0,0,0-3.416-.8Zm-11.612-15.348a1.567,1.567,0,0,1-.627,2h0a1.539,1.539,0,0,1-1.572-.017,3.081,3.081,0,0,0,.391,2.883l3.286,4.518a3.053,3.053,0,0,0,2.884,1.233l-.385-.545a1.553,1.553,0,0,1,.33-2.162h0a1.579,1.579,0,0,1,2.181.336l.387.544a3.073,3.073,0,0,0-.285-3.125l-3.286-4.516a3.073,3.073,0,0,0-3.3-1.153Zm-9.949-16.468a1.556,1.556,0,0,1-.835,1.922h0a1.575,1.575,0,0,1-1.57-.175,3.029,3.029,0,0,0,.1,2.9l2.785,4.838a3.042,3.042,0,0,0,2.744,1.521l-.342-.575a1.564,1.564,0,0,1,.582-2.132h0a1.543,1.543,0,0,1,2.113.561l.339.577a3.092,3.092,0,0,0,.045-3.141l-2.791-4.837a3.066,3.066,0,0,0-3.169-1.49Zm-8.17-17.416a1.578,1.578,0,0,1-1.042,1.827h0a1.586,1.586,0,0,1-1.539-.337,3.039,3.039,0,0,0-.213,2.9l2.277,5.11a3.116,3.116,0,0,0,2.563,1.811l-.274-.609a1.544,1.544,0,0,1,.788-2.05h0a1.546,1.546,0,0,1,2.046.784l.272.609a3.045,3.045,0,0,0,.368-3.108l-2.272-5.11a3.045,3.045,0,0,0-3-1.809Zm-6.311-18.184a1.575,1.575,0,0,1-1.22,1.715h0a1.606,1.606,0,0,1-1.489-.5,3.012,3.012,0,0,0-.512,2.85l1.729,5.318a3.062,3.062,0,0,0,2.36,2.067l-.216-.641a1.564,1.564,0,0,1,1.013-1.954h0a1.55,1.55,0,0,1,1.956,1.009l.209.625a3.062,3.062,0,0,0,.7-3.06l-1.725-5.3a3.057,3.057,0,0,0-2.791-2.115Zm-4.375-18.744a1.554,1.554,0,0,1-1.393,1.57h0a1.523,1.523,0,0,1-1.424-.656,3.078,3.078,0,0,0-.824,2.787l1.161,5.462a3.106,3.106,0,0,0,2.129,2.308l-.144-.657a1.553,1.553,0,0,1,1.2-1.842h0a1.554,1.554,0,0,1,1.842,1.2l.144.656a3.055,3.055,0,0,0,1.009-2.964l-1.152-5.463a3.109,3.109,0,0,0-2.545-2.4Zm-2.385-19.1a1.555,1.555,0,0,1-1.543,1.425h0a1.568,1.568,0,0,1-1.359-.8,3.069,3.069,0,0,0-1.1,2.691l.591,5.558a3.069,3.069,0,0,0,1.873,2.515l-.065-.672a1.564,1.564,0,0,1,1.381-1.713h0a1.56,1.56,0,0,1,1.714,1.393l.063.658a3.067,3.067,0,0,0,1.314-2.852l-.577-5.559a3.08,3.08,0,0,0-2.286-2.644Zm-.394-19.24a1.587,1.587,0,0,1-1.7,1.25h0a1.56,1.56,0,0,1-1.26-.931,3.048,3.048,0,0,0-1.379,2.548v5.591a3.133,3.133,0,0,0,1.6,2.708v-.673a1.554,1.554,0,0,1,1.557-1.553h0a1.563,1.563,0,0,1,1.552,1.553v.673a3.074,3.074,0,0,0,1.6-2.708V4613.1a3.069,3.069,0,0,0-1.985-2.867Zm1.638-19.177a1.569,1.569,0,0,1-1.811,1.073h0a1.529,1.529,0,0,1-1.156-1.058,3.056,3.056,0,0,0-1.631,2.4l-.591,5.558a3.091,3.091,0,0,0,1.312,2.852l.065-.672a1.558,1.558,0,0,1,1.714-1.377h0a1.579,1.579,0,0,1,1.39,1.713l-.078.657a3.076,3.076,0,0,0,1.887-2.514l.581-5.56a3.108,3.108,0,0,0-1.687-3.076Zm3.62-18.9a1.538,1.538,0,0,1-1.9.865h0a1.577,1.577,0,0,1-1.042-1.169,3.021,3.021,0,0,0-1.873,2.21l-1.157,5.464a3.079,3.079,0,0,0,1.011,2.979l.146-.657a1.561,1.561,0,0,1,1.841-1.2h0a1.56,1.56,0,0,1,1.2,1.842l-.142.657a3.064,3.064,0,0,0,2.127-2.308l1.154-5.462a3.049,3.049,0,0,0-1.361-3.219Zm5.578-18.423a1.55,1.55,0,0,1-1.987.656h0a1.561,1.561,0,0,1-.916-1.28,3.045,3.045,0,0,0-2.094,2l-1.722,5.319a3.083,3.083,0,0,0,.689,3.061l.213-.641a1.542,1.542,0,0,1,1.954-.994h0a1.574,1.574,0,0,1,1.008,1.954l-.2.625a3.074,3.074,0,0,0,2.369-2.066l1.711-5.319a3.029,3.029,0,0,0-1.008-3.348Zm7.483-17.735a1.539,1.539,0,0,1-2.051.449h0a1.562,1.562,0,0,1-.771-1.362,3.044,3.044,0,0,0-2.293,1.779l-2.272,5.109a3.041,3.041,0,0,0,.364,3.109l.275-.61a1.548,1.548,0,0,1,2.051-.784h0a1.553,1.553,0,0,1,.786,2.05l-.274.609a3.074,3.074,0,0,0,2.563-1.81l2.275-5.111a3.093,3.093,0,0,0-.653-3.445Zm9.293-16.854a1.582,1.582,0,0,1-2.089.238h0a1.563,1.563,0,0,1-.624-1.441,3.06,3.06,0,0,0-2.462,1.524l-2.791,4.837a3.061,3.061,0,0,0,.047,3.14l.335-.577a1.584,1.584,0,0,1,2.133-.576h0a1.541,1.541,0,0,1,.56,2.115l-.332.578a3.059,3.059,0,0,0,2.737-1.54l2.785-4.837a3.1,3.1,0,0,0-.285-3.494Zm11-15.781a1.566,1.566,0,0,1-2.1.016h0a1.564,1.564,0,0,1-.48-1.491,3.109,3.109,0,0,0-2.619,1.266l-3.281,4.518a3.048,3.048,0,0,0-.285,3.124l.4-.545a1.541,1.541,0,0,1,2.163-.336h0a1.558,1.558,0,0,1,.348,2.163l-.393.544a3.087,3.087,0,0,0,2.886-1.234l3.285-4.517a3.068,3.068,0,0,0,.077-3.493ZM-14133.257,4478.482Zm-.492.931h0l-.021.063h0Zm-.119.5h0v.063h0l.016-.08ZM-14038.836,4432.087ZM-14045.575,4438.943Z" transform="translate(14195.941 -4425.66)" fill="#373435" fill-rule="evenodd"/>
        </g>
        <g id="_2794000329072" transform="translate(134.528 109.311)">
          <path id="path319" d="M-14150.051,4487.156l5.269-4.276a5.2,5.2,0,0,0,2.19,1.521,3.851,3.851,0,0,0,3.38-.689,3.535,3.535,0,0,0,1.507-1.955,2.155,2.155,0,0,0-.306-1.843,2.2,2.2,0,0,0-1.567-.864,9.113,9.113,0,0,0-3.753,1.042c-2.96,1.248-5.3,1.777-7.079,1.6a5.626,5.626,0,0,1-4.23-2.45,5.98,5.98,0,0,1-1.1-3.333,6.75,6.75,0,0,1,1.068-3.829,14.223,14.223,0,0,1,4.105-4.038c2.4-1.714,4.55-2.579,6.452-2.579a7.139,7.139,0,0,1,5.3,2.66l-5.222,4.213a3.6,3.6,0,0,0-2.241-1.2,3.506,3.506,0,0,0-2.342.8,2.925,2.925,0,0,0-1.218,1.521,1.559,1.559,0,0,0,.243,1.409,1.273,1.273,0,0,0,.987.513,5.668,5.668,0,0,0,2.435-.689,30.08,30.08,0,0,1,6.639-2.227,7.011,7.011,0,0,1,3.892.369,6.553,6.553,0,0,1,2.738,2.259,7.345,7.345,0,0,1,1.381,4.054,7.722,7.722,0,0,1-1.141,4.309,13.678,13.678,0,0,1-3.964,4.021c-3.189,2.292-5.846,3.252-7.943,2.9a8.9,8.9,0,0,1-5.431-3.2Zm15.038-28.87,8.59-3.875,9.049,11.342-2.5-14.292,8.539-3.861,9.5,21.067-5.318,2.4-7.243-16.051,3.145,17.912-4.821,2.178-11.344-14.211,7.24,16.053-5.32,2.4Zm34-13.7,7.036-1.153,1.412,8.619,5.974-9.821,9.372-1.538-6.922,9.934,11.038,12.814-8.668,1.428-6.347-8.573-3.023,4.406.907,5.543-7.029,1.155-3.736-22.8Zm42.771-4.742,11.847.9c2.578.193,4.467.961,5.668,2.292a6.917,6.917,0,0,1,1.521,5.382,7.122,7.122,0,0,1-2.518,5.3q-2.253,1.8-6.566,1.49l-3.912-.306-.64,8.524-7.146-.544Zm6.394,10.382,1.75.127a4.517,4.517,0,0,0,2.967-.5,2.348,2.348,0,0,0,.972-1.763,2.585,2.585,0,0,0-.595-1.907,3.73,3.73,0,0,0-2.675-.96l-2.034-.145Zm20.156-7.483,6.953,1.571-3.845,17,10.895,2.466-1.249,5.543-17.848-4.038Zm38.4,12.834,6.469,3-5.779,12.5a11.4,11.4,0,0,1-2.2,3.236,8.491,8.491,0,0,1-3.14,2.05,7.73,7.73,0,0,1-3.393.528,14.268,14.268,0,0,1-4.86-1.393,31.855,31.855,0,0,1-3.227-1.745,9.608,9.608,0,0,1-2.633-2.261,8.591,8.591,0,0,1-1.39-2.836,7.518,7.518,0,0,1-.276-3.059,14.36,14.36,0,0,1,1.042-3.829l5.785-12.5,6.47,3-5.91,12.785a3.977,3.977,0,0,0-.288,3.107,3.848,3.848,0,0,0,2.2,2.178,3.917,3.917,0,0,0,3.057.258,4.041,4.041,0,0,0,2.2-2.261l5.906-12.784Zm4.278,19.431,5.783,3.557a5,5,0,0,0-.71,2.563,3.8,3.8,0,0,0,1.779,2.965,3.4,3.4,0,0,0,2.326.769,2.141,2.141,0,0,0,1.633-.882,2.11,2.11,0,0,0,.285-1.761,9.3,9.3,0,0,0-2.21-3.2c-2.16-2.371-3.432-4.422-3.849-6.152a5.646,5.646,0,0,1,.916-4.8,6.1,6.1,0,0,1,2.773-2.148,6.744,6.744,0,0,1,3.973-.24,14.614,14.614,0,0,1,5.161,2.532q3.627,2.548,4.563,5.238a7.042,7.042,0,0,1-.771,5.879l-5.718-3.54a3.636,3.636,0,0,0,.4-2.514,3.638,3.638,0,0,0-1.521-1.956,2.843,2.843,0,0,0-1.844-.656,1.65,1.65,0,0,0-1.262.688,1.3,1.3,0,0,0-.142,1.1,5.638,5.638,0,0,0,1.453,2.068,29.688,29.688,0,0,1,4.3,5.527,6.962,6.962,0,0,1,.928,3.8,6.6,6.6,0,0,1-1.22,3.317,7.318,7.318,0,0,1-3.357,2.642,7.759,7.759,0,0,1-4.453.335,13.819,13.819,0,0,1-5.1-2.417c-3.2-2.261-4.977-4.456-5.349-6.553a8.952,8.952,0,0,1,1.234-6.185Z" transform="translate(14182.994 -4439.848)" fill="#373435"/>
          <path id="path321" d="M-14147.27,4573.442l-8.012-6.937-4.42,2.773-7.211-6.265,28.439-15.428,7.732,6.713-11.24,30.309-7.4-6.406,2.135-4.759Zm2.791-6.247,4.631-10.38-9.633,6.054,5.021,4.341Zm20.342-7.482,8.107,4.662-11.373,19.8,12.689,7.289-3.717,6.456-20.783-11.95,15.09-26.243Zm13.65,25.7,11.129,5.031-2.687,5.928-11.133-5.031,2.674-5.928Zm17.336-9.6,22.25,6.311-1.779,6.265-13.215-3.747-1.443,5.078,11.311,3.2-1.678,5.9-11.314-3.2-3.379,11.871-9.039-2.563,8.27-29.126Zm34.156,33.018-10.512-1.33-2.135,4.758-9.463-1.2,15.119-28.6,10.154,1.3,7.451,31.465-9.725-1.234-.879-5.142Zm-1.141-6.761-1.908-11.214-4.662,10.381Zm14.916,12.72-2.287-30.184,15.533-1.185a22.213,22.213,0,0,1,6.666.241,7.055,7.055,0,0,1,3.9,2.467,8.48,8.48,0,0,1,1.775,4.806,8.474,8.474,0,0,1-.756,4.421,8.152,8.152,0,0,1-2.727,3.189,11.389,11.389,0,0,1-3.186,1.44,10.093,10.093,0,0,1,2.518.914,9.862,9.862,0,0,1,1.6,1.475,12.66,12.66,0,0,1,1.439,1.776l5.193,8.379-10.543.8-5.686-8.827a6.815,6.815,0,0,0-1.879-2.2,3.915,3.915,0,0,0-2.338-.526l-.834.063.926,12.223-9.352.707Zm8-18.632,3.941-.3a16,16,0,0,0,2.436-.594,2.4,2.4,0,0,0,1.438-1.073,2.788,2.788,0,0,0,.467-1.794,2.789,2.789,0,0,0-1.107-2.179,5.474,5.474,0,0,0-3.539-.512l-4.1.3Zm16.465-13.49,8.988-2.545,2.883,10.172,9.838-2.8-2.887-10.173,9.037-2.564,8.271,29.126-9.023,2.563-3.35-11.808-9.85,2.8,3.348,11.792-8.988,2.546-8.268-29.125Zm56.182,5.751-9.434,4.838.914,5.128-8.492,4.356-3.654-32.136,9.115-4.663,23.9,21.773-8.713,4.469-3.621-3.75Zm-4.736-4.936-7.9-8.185,2,11.2,5.9-3.028Zm.688-21.771,6.852-5.4,19.258,6.135-10.332-13.136,6.953-5.464,18.711,23.806-6.953,5.464-19.141-6.088,10.268,13.073-6.906,5.431-18.709-23.807Z" transform="translate(14166.912 -4289.944)" fill="#373435"/>
        </g>
      </g>
    </g>
  </g>
</svg>
