<svg xmlns="http://www.w3.org/2000/svg" width="63.892" height="57.972" viewBox="0 0 63.892 57.972">
  <g id="flat" transform="translate(-3 -6.373)">
    <path id="Path_87" data-name="Path 87" d="M10,15.876,59.317,6.432A3.3,3.3,0,0,1,62.893,8.2l3.287,6.574L15.508,24.689Z" transform="translate(0.711)" fill="#f4f4e6"/>
    <path id="Path_88" data-name="Path 88" d="M15,23H65.673v8.813H15Z" transform="translate(1.219 1.689)" fill="#d3d3c9"/>
    <path id="Path_89" data-name="Path 89" d="M3,31H66.892V57.438a4.406,4.406,0,0,1-4.406,4.406H7.406A4.406,4.406,0,0,1,3,57.438Z" transform="translate(0 2.502)" fill="#f4f4e6"/>
    <path id="Path_90" data-name="Path 90" d="M16.219,32.625H3V19.406A4.406,4.406,0,0,1,7.406,15h3.3l5.508,8.813Z" transform="translate(0 0.876)" fill="#5a6470"/>
    <path id="Path_91" data-name="Path 91" d="M6,26H8.2v2.2H6Z" transform="translate(0.305 1.994)" fill="#fcf05a"/>
    <path id="Path_92" data-name="Path 92" d="M10,26h2.2v2.2H10Z" transform="translate(0.711 1.994)" fill="#fcf05a"/>
    <path id="Path_93" data-name="Path 93" d="M6,18H8.2v2.2H6Z" transform="translate(0.305 1.181)" fill="#fcf05a"/>
    <g id="Group_26" data-name="Group 26" transform="translate(6.305 6.967)">
      <path id="Path_94" data-name="Path 94" d="M15.674,14.014,10,15.1l5.508,8.813,5.237-1.024Z" transform="translate(-5.594 -6.191)" fill="#394d5c"/>
      <path id="Path_95" data-name="Path 95" d="M27.159,21.653l7.077-1.385L29.2,11.449,22.1,12.807Z" transform="translate(-4.364 -6.451)" fill="#394d5c"/>
      <path id="Path_96" data-name="Path 96" d="M38.978,19.335l7.078-1.385-5.012-8.77-7.092,1.358Z" transform="translate(-3.161 -6.682)" fill="#394d5c"/>
      <path id="Path_97" data-name="Path 97" d="M50.8,17.019l7.078-1.385L52.89,6.912,45.8,8.27Z" transform="translate(-1.957 -6.912)" fill="#394d5c"/>
      <path id="Path_98" data-name="Path 98" d="M26.609,31.813H20L22.2,23h6.609Z" transform="translate(-4.578 -5.278)" fill="#394d5c"/>
      <path id="Path_99" data-name="Path 99" d="M39.609,31.813H33L35.2,23h6.609Z" transform="translate(-3.257 -5.278)" fill="#394d5c"/>
      <path id="Path_100" data-name="Path 100" d="M52.609,31.813H46L48.2,23h6.609Z" transform="translate(-1.937 -5.278)" fill="#394d5c"/>
      <path id="Path_101" data-name="Path 101" d="M63.282,40.2V38H6v2.2H19.219v6.609H6v2.2H63.282v-2.2H50.063V40.2ZM47.86,46.813H21.422V40.2H47.86Z" transform="translate(-6 -3.754)" fill="#394d5c"/>
    </g>
    <path id="Path_102" data-name="Path 102" d="M6,42H17.016v2.2H6Z" transform="translate(0.305 3.619)" fill="#dd3e46"/>
    <path id="Path_103" data-name="Path 103" d="M6,34H25.828v2.2H6Z" transform="translate(0.305 2.806)" fill="#dd3e46"/>
    <path id="Path_104" data-name="Path 104" d="M22,42h2.2v2.2H22Z" transform="translate(1.93 3.619)" fill="#dd3e46"/>
    <path id="Path_105" data-name="Path 105" d="M26,42h2.2v2.2H26Z" transform="translate(2.336 3.619)" fill="#dd3e46"/>
    <path id="Path_106" data-name="Path 106" d="M48,42h2.2v2.2H48Z" transform="translate(4.571 3.619)" fill="#dd3e46"/>
    <path id="Path_107" data-name="Path 107" d="M57.508,56.609H52v-2.2h4.406V50h2.2v5.508A1.1,1.1,0,0,1,57.508,56.609Z" transform="translate(4.977 4.432)" fill="#fff"/>
    <path id="Path_108" data-name="Path 108" d="M12.609,56.609H7.1a1.1,1.1,0,0,1-1.1-1.1V50H8.2v4.406h4.406Z" transform="translate(0.305 4.432)" fill="#fff"/>
  </g>
</svg>
