<svg xmlns="http://www.w3.org/2000/svg" width="56.336" height="59.137" viewBox="0 0 56.336 59.137">
  <path id="path29" d="M9.641,18.83A3.375,3.375,0,1,1,6.2,22.2,3.408,3.408,0,0,1,9.641,18.83Zm11.532,16.6,5.3-5.3,5.3,5.3-5.3,5.3Zm24.518-4.9L33.617,18.514l-3.6,3.5L42.144,34.078Zm-19.028,28.6q-.032-.038-.061-.082c-3.5-3.5-16.767-16.584-20.245-20.11a2.741,2.741,0,0,1,.107-2.307A7.049,7.049,0,0,1,.992,26,3.082,3.082,0,0,1,3.812,24.2a3.022,3.022,0,1,1,0,6.043A3.068,3.068,0,0,1,.806,27.872a5.165,5.165,0,0,0,5.03,6.313,5.141,5.141,0,0,0,3.443-1.317c.2-.593,1.126-2.759,1.126-2.759,4.448-3.506,5.168-1.888,10.848-3.079l-9.805,9.875L26.638,51.99,37.427,41.2l-2.311-2.416L26.7,47.2,15.162,35.661,26.7,24.122,37.077,34.5l3.533,3.521,8.484-8.484L35.948,16.389l3.6-3.5,13.1,13.1.084-.084,3.61,3.61L31.843,54.006l-5.18,5.125ZM17.185,16.6c1.176,1.061,2.14,3,3.636,2.736,3.276-.581,2.365-6.336,8.123-7.49,3.392.418-.049,3.368,1.87,5.57-1.141.355-1.793-1.219-3.424-.489-2.6,2.464-2.7,6.284-6.592,7.1-2.658.56-5.362-2.059-7.174-3.871l-3.547-3.547L26.7-.005c3.8,3.693,7.418,7.422,11.205,11.21L34.36,14.752,26.7,7.091,17.186,16.6Z" transform="translate(0 0.005)" fill="#e62129" fill-rule="evenodd"/>
</svg>
